<?xml version="1.0" encoding="UTF-8"?>
<svg width="286px" height="231px" viewBox="0 0 286 231" version="1.1" xmlns="http://www.w3.org/2000/svg" xmlns:xlink="http://www.w3.org/1999/xlink">
    <title>Group 3</title>
    <defs>
        <rect id="path-1" x="0" y="0" width="239.575" height="135.84375" rx="4"></rect>
        <filter x="-8.6%" y="-9.2%" width="117.1%" height="130.2%" filterUnits="objectBoundingBox" id="filter-2">
            <feMorphology radius="0.5" operator="dilate" in="SourceAlpha" result="shadowSpreadOuter1"></feMorphology>
            <feOffset dx="0" dy="8" in="shadowSpreadOuter1" result="shadowOffsetOuter1"></feOffset>
            <feGaussianBlur stdDeviation="5" in="shadowOffsetOuter1" result="shadowBlurOuter1"></feGaussianBlur>
            <feColorMatrix values="0 0 0 0 0   0 0 0 0 0   0 0 0 0 0  0 0 0 0.14 0" type="matrix" in="shadowBlurOuter1"></feColorMatrix>
        </filter>
    </defs>
    <g id="Desktop" stroke="none" stroke-width="1" fill="none" fill-rule="evenodd">
        <g id="4.1.-My-Certificate---Empty" transform="translate(-679.000000, -366.000000)">
            <g id="Group-3" transform="translate(679.000000, 366.000000)">
                <g id="Group-2" transform="translate(24.000000, 0.000000)">
                    <polygon id="Path" fill="#465161" fill-rule="nonzero" points="164 205 97 204.164821 97.1993041 202.498531 100.436668 175 159.277359 175 163.604467 202.498531 163.935708 204.583766"></polygon>
                    <polygon id="Path" fill="#858F9F" fill-rule="nonzero" points="174 204 85 204 85 206 174 206"></polygon>
                    <path d="M259,5.60584585 C259.004164,4.12540422 258.422269,2.70334227 257.381278,1.65236838 C256.338891,0.60125483 254.922529,0.00698321522 253.443372,0 L5.55611057,0 C4.82295122,0.0033519433 4.09774582,0.151396106 3.42179913,0.435333637 C2.74585244,0.719271167 2.13242105,1.13365516 1.61653028,1.65502201 C1.10049996,2.17624919 0.6921969,2.79412407 0.414924796,3.47331158 C0.137513149,4.1524991 -0.00342536417,4.87973113 0,5.61338772 L0,156 L259,156 L259,5.60584585 Z" id="Path" fill="#53667C" fill-rule="nonzero"></path>
                    <path d="M0,154 L0,171.48183 C0,172.945579 0.585383108,174.34834 1.62735108,175.383776 C2.66931906,176.419213 4.08247156,177 5.5560462,177 L253.443396,177 C254.91697,177 256.330541,176.419213 257.372928,175.383776 C258.413919,174.34834 259,172.945579 259,171.48183 L259,154 L0,154 Z" id="Path" fill="#465161" fill-rule="nonzero"></path>
                    <polygon id="Path" fill-rule="nonzero" points="250.096875 9.703125 11.33125 9.703125 11.33125 144.738281 250.096875 144.738281"></polygon>
                    <path d="M130.496483,170 C131.329685,170.001318 132.1536,169.813134 132.903217,169.448693 C133.652833,169.085577 134.310904,168.555481 134.825685,167.900812 C134.982242,167.700701 135.125531,167.491313 135.254227,167.272648 L132.230552,166.763756 L135.497023,166.78496 C135.810137,166.103786 135.981288,165.366952 135.998536,164.618192 C136.015784,163.870756 135.880455,163.125971 135.60051,162.431545 L131.220891,164.699031 L135.26086,161.733143 C134.881409,161.081125 134.371935,160.515247 133.764281,160.068641 C133.156627,159.622035 132.462734,159.305303 131.727712,159.136997 C130.991363,158.970017 130.229805,158.955439 129.488149,159.094589 C128.746493,159.23374 128.04066,159.523967 127.415758,159.946719 C126.792183,160.369471 126.260154,160.91547 125.856821,161.551585 C125.45216,162.189026 125.182829,162.90068 125.066075,163.645465 C124.94932,164.39025 124.987796,165.150938 125.177522,165.881146 C125.367248,166.610028 125.705571,167.292527 126.169935,167.886235 C126.683389,168.543554 127.340133,169.074975 128.089749,169.442067 C128.838039,169.807833 129.661954,169.998668 130.496483,170 Z" id="Path" fill="#A2A8B0" fill-rule="nonzero"></path>
                    <g id="Group-5" transform="translate(11.000000, 9.000000)">
                        <g id="Rectangle">
                            <use fill="black" fill-opacity="1" filter="url(#filter-2)" xlink:href="#path-1"></use>
                            <use fill="#373638" fill-rule="evenodd" xlink:href="#path-1"></use>
                        </g>
                        <g id="certificate" transform="translate(80.000000, 33.000000)" fill-rule="nonzero">
                            <g id="Group">
                                <path d="M0,61.2651403 L0,1.77380917 C0,0.875437043 0.720643863,0.147207455 1.60965795,0.147207455 L78.3903421,0.147207455 C79.2793561,0.147207455 80,0.875437043 80,1.77380917 L80,61.2649777 C80,62.1633498 79.2793561,62.8915794 78.3903421,62.8915794 L1.60965795,62.8915794 C0.720643863,62.8915794 0,62.1633498 0,61.2651403 L0,61.2651403 Z" id="Path" fill="#4A4A4A"></path>
                                <polygon id="Path" fill="#818181" points="4.93826962 57.9133648 75.0617304 57.9133648 75.0617304 5.12558467 4.93826962 5.12558467"></polygon>
                                <g transform="translate(13.199195, 13.988775)" fill="#4A4A4A" id="Path">
                                    <path d="M1.24957746,2.56856677 L42.8668008,2.56856677 C43.5336821,2.56856677 44.0740443,2.02235391 44.0740443,1.34861548 C44.0740443,0.674877052 43.5336821,0.128664196 42.8668008,0.128664196 L1.24957746,0.128664196 C0.582696177,0.128664196 0.042334004,0.674877052 0.042334004,1.34861548 C0.042334004,2.02235391 0.582696177,2.56856677 1.24957746,2.56856677 Z"></path>
                                    <path d="M52.3520322,7.54873324 L1.24957746,7.54873324 C0.582696177,7.54873324 0.042334004,8.0949461 0.042334004,8.76868453 C0.042334004,9.44242296 0.582696177,9.98863581 1.24957746,9.98863581 L52.3521932,9.98863581 C53.0190744,9.98863581 53.5594366,9.44242296 53.5594366,8.76868453 C53.5594366,8.0949461 53.0189135,7.54873324 52.3520322,7.54873324 L52.3520322,7.54873324 Z"></path>
                                    <path d="M30.2836217,14.9689649 L1.24957746,14.9689649 C0.582696177,14.9689649 0.042334004,15.5151778 0.042334004,16.1889162 C0.042334004,16.8626547 0.582696177,17.4088675 1.24957746,17.4088675 L30.2836217,17.4088675 C30.950503,17.4088675 31.4908652,16.8626547 31.4908652,16.1889162 C31.4908652,15.5151778 30.9503421,14.9689649 30.2836217,14.9689649 Z"></path>
                                </g>
                                <path d="M34.9844668,47.1685219 C32.9353722,47.174215 30.8862777,47.1790948 28.8371831,47.1825106 C28.178994,47.1836493 27.5206439,47.1844626 26.8624547,47.1849505 C26.3587928,47.1852759 25.8152113,47.2752269 25.3896177,46.9466534 C24.9133199,46.5790414 24.7494567,46.0598301 24.6404829,45.487917 C24.4043461,44.2492598 22.6362978,44.4070401 22.3122736,45.487917 C22.1688531,45.9666259 21.444507,47.3370378 20.8117505,47.2249649 C20.4764588,47.165594 20.3299799,46.6429669 20.2060362,46.3723003 C19.9647485,45.845444 19.7889738,45.2870317 19.6384708,44.7274807 C19.0029779,42.3633777 18.8761368,39.8950096 18.4785513,37.4863378 C18.2480483,36.0895749 16.141167,36.4845138 16.1072032,37.8106822 C15.9990342,42.0351295 15.3155734,46.2016698 13.8272837,50.1613064 C13.2750101,51.6306157 15.6082093,52.2659663 16.155493,50.8099951 C16.729336,49.2832668 17.1848692,47.7199398 17.5383501,46.1333525 C17.7279678,46.7114468 17.9541247,47.2784801 18.2301811,47.8300608 C18.9352113,49.2380472 20.3731187,50.07103 21.9116298,49.4447883 C22.4606841,49.2212932 22.9616097,48.8305835 23.388008,48.3551278 C23.4482093,48.4252344 23.5088934,48.4945276 23.5723139,48.5592663 C24.7431791,49.75368 26.2832998,49.6258291 27.8148893,49.6238772 C30.2047485,49.6207866 32.5946076,49.6150935 34.9846278,49.6084244 C36.5379477,49.6040326 36.5408451,47.16413 34.9844668,47.1685219 L34.9844668,47.1685219 Z" id="Path" fill="#373638"></path>
                            </g>
                            <polygon id="Path" fill="#4A4A4A" points="62 70 58.5 68.372093 55 70 55 49 62 49"></polygon>
                            <path d="M58.0000808,54 C56.77379,54 55.9708095,51.8123341 54.9045329,51.3480015 C53.7991417,50.8667285 51.7619506,51.7992901 50.9289068,50.9244948 C50.0958631,50.0498689 50.9840228,47.9108216 50.5256386,46.750244 C50.0834175,45.6306619 48,44.7875449 48,43.4999153 C48,42.2124551 50.0834175,41.3693381 50.5256386,40.2495866 C50.9840228,39.089009 50.0958631,36.9499617 50.9289068,36.0753358 C51.7619506,35.2007099 53.7991417,36.1332715 54.9043713,35.6519985 C55.9706479,35.1876659 56.7736284,33 57.9999192,33 C59.22621,33 60.0291905,35.1876659 61.0954671,35.6519985 C62.2008583,36.1332715 64.2380494,35.2007099 65.0710932,36.0755052 C65.9041369,36.9501311 65.0159772,39.0891784 65.4743614,40.249756 C65.9165825,41.3693381 68,42.2124551 68,43.5000847 C68,44.7875449 65.9165825,45.6306619 65.4743614,46.7504134 C65.0159772,47.910991 65.9041369,50.0500383 65.0710932,50.9246642 C64.2380494,51.7992901 62.2008583,50.8667285 61.0956287,51.3480015 C60.0293521,51.8123341 59.2263716,54 58.0000808,54 L58.0000808,54 Z" id="Path" fill="#FFC700"></path>
                            <path d="M65.5189021,40.2496975 C65.068573,39.0891293 65.9411255,36.9500992 65.1227204,36.0754804 C64.3043154,35.2008615 62.302923,36.1332462 61.2169564,35.6519772 C60.169417,35.1876482 59.380547,33 58.1758052,33 C56.9710635,33 56.1821935,35.1876482 55.1346541,35.6519772 C55.0913044,35.6711195 55.0460492,35.687382 55,35.7022893 C56.1094676,36.0610813 57.9852569,35.2355888 58.7709512,36.0754804 C59.5893562,36.9500992 58.7168037,39.0891293 59.1671329,40.2496975 C59.601583,41.3692706 61.6483895,42.2123808 61.6483895,43.5 C61.6483895,44.7876192 59.601583,45.6307294 59.1671329,46.7503025 C58.7168037,47.9108707 59.5893562,50.0499008 58.7709512,50.9245196 C57.9852569,51.7642418 56.1094676,50.9389187 55,51.2977107 C55.0460492,51.312618 55.0913044,51.3288805 55.1346541,51.3480228 C56.1821935,51.8123518 56.9710635,54 58.1758052,54 C59.380547,54 60.1692582,51.8123518 61.2169564,51.3480228 C62.302923,50.8667538 64.3043154,51.7993079 65.1225617,50.9245196 C65.9409667,50.0499008 65.0684142,47.9108707 65.5187434,46.7503025 C65.9531935,45.6307294 68,44.7876192 68,43.5 C68.0001588,42.2123808 65.9533523,41.3692706 65.5189021,40.2496975 Z" id="Path" fill="#FFC700"></path>
                            <circle id="Oval" fill="#4A4A4A" cx="58.5" cy="43.5" r="3.5"></circle>
                        </g>
                    </g>
                    <path d="M17.4999276,17 C18.3284576,17 19,16.3284576 19,15.4999276 C19,14.6715424 18.3284576,14 17.4999276,14 C16.6715424,14 16,14.6715424 16,15.4999276 C16,16.3284576 16.6715424,17 17.4999276,17 Z" id="Path" fill="#FA5959" fill-rule="nonzero" opacity="0.8"></path>
                    <path d="M21.5000724,17 C22.3284576,17 23,16.3284576 23,15.4999276 C23,14.6715424 22.3284576,14 21.5000724,14 C20.6715424,14 20,14.6715424 20,15.4999276 C20,16.3284576 20.6715424,17 21.5000724,17 Z" id="Path" fill="#FED253" fill-rule="nonzero" opacity="0.8"></path>
                    <path d="M25.4999276,17 C26.3283128,17 27,16.3284576 27,15.4999276 C27,14.6715424 26.3283128,14 25.4999276,14 C24.6715424,14 24,14.6715424 24,15.4999276 C24,16.3284576 24.6715424,17 25.4999276,17 Z" id="Path" fill="#8CCF4D" fill-rule="nonzero" opacity="0.8"></path>
                </g>
                <g id="Group-20" transform="translate(62.000000, 148.000000) scale(-1, 1) translate(-62.000000, -148.000000) translate(0.000000, 65.000000)" fill-rule="nonzero">
                    <g id="Group-19">
                        <path d="M103.850484,44.1020132 C100.732413,38.7542797 94.5635566,38.5050536 94.5635566,38.5050536 C94.5635566,38.5050536 88.5523591,37.7247992 84.6962143,45.8694587 C81.1019779,53.4609524 76.1414746,60.7906952 83.8976126,62.5678081 L85.2985968,58.1418081 L86.1662304,62.8973191 C87.2705231,62.9779383 88.3783961,62.9971569 89.4847939,62.9548872 C97.7909898,62.6826851 105.70139,63.0345256 105.446688,60.0091325 C105.108089,55.9872988 106.850696,49.2476011 103.850484,44.1020132 Z" id="Path" fill="#2F2E41"></path>
                        <path d="M74.7385583,72.5012744 L71.9705818,79.3161924 L58.1306989,91.7608252 C58.1306989,91.7608252 49.8267693,97.6868409 53.5174047,99.4646456 C57.2080401,101.24245 60.5911226,92.9460284 60.5911226,92.9460284 L75.3536642,84.3533057 L78.4291937,74.5753799 L74.7385583,72.5012744 Z" id="Path" fill="#FFB8B8"></path>
                        <polygon id="Path" fill="#FFB8B8" points="78.4291937 148.546812 81.2128769 155.501274 85.2337526 155.501274 81.8314732 147.33734"></polygon>
                        <polygon id="Path" fill="#FFB8B8" points="90.6773997 151.268123 93.4610829 158.222586 97.4819586 158.222586 94.0796792 150.058651"></polygon>
                        <path d="M89.6210902,152.779963 L94.7601351,151.583242 L88.1096064,124.956189 L90.3177694,104.468121 L90.3768321,104.462335 C90.3768321,104.462335 94.1555416,89.9520871 91.132574,86.0627424 C88.1096064,82.1733977 72.9947686,83.6692995 72.9947686,83.6692995 C72.9947686,83.6692995 67.2511302,89.3537264 67.5534269,102.218482 C67.8557237,115.083237 67.5534269,126.152911 69.6695042,131.238977 C71.7855815,136.325043 77.8315167,149.788159 77.8315167,149.788159 L82.6682648,149.189799 L77.5292199,127.050452 L76.7075532,107.805032 C77.3614634,115.517342 78.6776483,130.141482 79.3430005,131.238977 C80.2498907,132.734879 89.6210902,152.779963 89.6210902,152.779963 Z" id="Path" fill="#2F2E41"></path>
                        <path d="M105.783472,77.9438974 L107.953352,85.4856444 L117.562818,102.379158 C117.562818,102.379158 125.932352,109.619235 122.522542,110.524244 C119.112731,111.429254 113.843024,103.887507 113.843024,103.887507 L102.993627,89.105683 L100.203782,78.2455673 L105.783472,77.9438974 Z" id="Path" fill="#FFB8B8"></path>
                        <ellipse id="Oval" fill="#FFB8B8" cx="94.0796792" cy="50.0504548" rx="7.48501477" ry="7.48360656"></ellipse>
                        <path d="M91.3026835,53.4520941 L89.5371764,59.1270241 L86.5946644,65.6979958 L97.4819586,61.2177878 C97.4819586,61.2177878 96.8934562,56.4388994 97.4819586,55.2441773 L91.3026835,53.4520941 Z" id="Path" fill="#FFB8B8"></path>
                        <path d="M102.925606,66.0884948 L96.0032756,60.4465491 L88.1780329,63.7129387 L88.484638,58.8947171 L80.1353568,61.525589 L78.8479358,61.9312597 L77.0421106,71.1365395 C77.0421106,71.1365395 75.8382271,72.0273731 74.6343436,77.0754297 C73.9393035,80.0418968 72.9305389,82.9281782 71.6246349,85.6868205 C71.6246349,85.6868205 84.5663824,80.6387638 90.8867708,87.4684876 C90.8867708,87.4684876 91.7896834,86.8745985 91.4887125,85.983765 C91.1877417,85.0929315 94.1974504,80.6387638 94.1974504,80.6387638 C94.1974504,80.6387638 94.1974504,81.5295974 95.4013339,79.7479303 C96.6052174,77.9662633 97.50813,77.6693187 97.50813,77.6693187 L102.925606,66.0884948 Z" id="Path" fill="#9392B5"></path>
                        <path d="M81.1510173,61.3997558 L79.9211566,60.3181163 C79.9211566,60.3181163 78.8984737,59.8638858 78.0537698,61.3997558 C77.2090659,62.9356258 72.9855466,72.4580199 72.9855466,72.4580199 L78.0537698,75.2225859 L81.1510173,61.3997558 Z" id="Path" fill="#9392B5"></path>
                        <path d="M99.6330772,65.6979958 L103.935314,65.9895648 C103.935314,65.9895648 106.393736,67.1558412 106.393736,68.9052557 C106.393736,70.6546702 107.008341,79.984881 107.008341,79.984881 L100.247683,82.0258646 L97.4819586,73.8619302 L99.6330772,65.6979958 Z" id="Path" fill="#9392B5"></path>
                        <path d="M80.3280896,155.501274 L75.3408868,157.538015 C75.3408868,157.538015 69.4735895,157.828978 70.3536841,160.738607 C71.2337787,163.648236 80.0347247,161.611496 80.0347247,161.611496 C80.0347247,161.611496 87.9555762,161.902459 87.9555762,159.865718 C87.9555762,157.828978 86.7821167,155.501274 85.6086572,155.501274 L80.3280896,155.501274 Z" id="Path" fill="#2F2E41"></path>
                        <path d="M91.2153838,158.222586 L86.2281811,160.259326 C86.2281811,160.259326 80.3608837,160.550289 81.2409783,163.459918 C82.1210729,166.369548 90.922019,164.332807 90.922019,164.332807 C90.922019,164.332807 98.8428704,164.62377 98.8428704,162.58703 C98.8428704,160.550289 97.6694109,158.222586 96.4959515,158.222586 L91.2153838,158.222586 Z" id="Path" fill="#2F2E41"></path>
                        <polygon id="Path" fill="#2F2E41" points="102.638993 43.2254558 96.6222202 39.8455367 88.3137424 41.2282309 86.5946644 49.3701269 90.8738102 49.1939105 92.0693263 46.2023673 92.0693263 49.1446081 94.0439025 49.0631796 95.189755 44.3008845 95.9059876 49.3701269 102.925606 49.2164942"></polygon>
                        <path d="M60.485813,8.68718261 C45.3406731,-4.15296687 22.782965,-2.58373079 9.54357541,12.2309999 C-3.69581419,27.0457307 -2.82839107,49.747684 11.5024834,63.4989874 C25.8333579,77.2502908 48.4444153,77.0772985 62.5652002,63.1083175 L107.552991,101.248357 C108.475795,102.03093 109.744058,102.259358 110.879956,101.847581 C112.015855,101.435805 112.846784,100.446394 113.059688,99.2521149 C113.272592,98.0578354 112.835119,96.8401629 111.912089,96.0578607 L66.9242977,57.9178179 C77.7551141,42.2997466 74.9647548,20.9638011 60.485813,8.68718261 L60.485813,8.68718261 Z M56.3424702,55.405286 C49.2431653,64.0274747 37.7747041,67.4180984 27.2848134,63.9961143 C16.7949227,60.5741302 9.3494073,51.0134397 8.42010019,39.7721787 C7.49079308,28.5309176 13.2607054,17.8228607 23.0393355,12.641159 C32.8179656,7.45945734 44.6795792,8.82455867 53.0931232,16.0999183 C64.5816388,26.0342631 66.0364209,43.6318746 56.3424702,55.405286 L56.3424702,55.405286 Z" id="Shape" fill="#727272"></path>
                        <path d="M20.4519266,55.6136118 C9.41421421,46.2403583 7.3663552,29.9144264 15.7432403,18.0750449 C15.2126828,18.6127274 14.6997799,19.1758425 14.2045316,19.7643902 C7.81047673,27.3888286 5.94444509,37.8669238 9.3094124,47.2513437 C12.6743797,56.6357636 20.7590756,63.5006472 30.5178149,65.2598399 C40.2765543,67.0190325 50.2266022,63.4052438 56.6195538,55.7798687 C57.1136775,55.1905702 57.5789985,54.5870518 58.0155171,53.9693137 C47.8273425,64.2706929 31.4905179,64.9858165 20.4519266,55.6136118 L20.4519266,55.6136118 Z" id="Path" fill="#000000" opacity="0.3"></path>
                    </g>
                </g>
            </g>
        </g>
    </g>
</svg>