<svg xmlns="http://www.w3.org/2000/svg" width="30" height="30" fill="none" viewBox="0 0 30 30">
    <path fill="#FFFFFF" fill-rule="evenodd" d="M20.513 13.845l-4.702 4.702c-.215.215-.506.336-.81.336-.305 0-.596-.12-.81-.336l-4.703-4.702c-.224-.224-.336-.518-.336-.811 0-.293.112-.587.336-.81.448-.449 1.174-.449 1.622 0l2.783 2.784V6.146c0-.633.513-1.146 1.146-1.146.633 0 1.146.513 1.146 1.146v8.785l2.707-2.708c.447-.448 1.174-.448 1.62 0 .448.448.448 1.174 0 1.622zm-13.22 8.863v-4.393c0-.633-.514-1.146-1.146-1.146-.633 0-1.147.513-1.147 1.146v4.542C5 24.04 5.962 25 7.143 25h15.714C24.04 25 25 24.039 25 22.857v-4.542c0-.633-.513-1.146-1.146-1.146-.633 0-1.146.513-1.146 1.146v4.393H7.293z" clip-rule="evenodd"/>
</svg>
