<?xml version="1.0" encoding="UTF-8"?>
<svg width="269px" height="242px" viewBox="0 0 269 242" version="1.1" xmlns="http://www.w3.org/2000/svg" xmlns:xlink="http://www.w3.org/1999/xlink">
    <title>Group 267</title>
    <defs>
        <linearGradient x1="50.8532952%" y1="100.420284%" x2="48.7488834%" y2="0.0202521786%" id="linearGradient-1">
            <stop stop-color="#808080" stop-opacity="0.25" offset="0%"></stop>
            <stop stop-color="#808080" stop-opacity="0.12" offset="54%"></stop>
            <stop stop-color="#808080" stop-opacity="0.1" offset="100%"></stop>
        </linearGradient>
    </defs>
    <g id="1C_Client" stroke="none" stroke-width="1" fill="none" fill-rule="evenodd">
        <g id="1.4-Client_error" transform="translate(-453.000000, -136.000000)" fill-rule="nonzero">
            <g id="Group-267" transform="translate(453.000000, 136.000000)">
                <path d="M135.81627,216 C208.993182,216 268.315789,211.298772 268.315789,205.5 C268.315789,199.701228 208.993182,195 135.81627,195 C62.6380845,195 3.31578947,199.701228 3.31578947,205.5 C3.31578947,211.298772 62.6380845,216 135.81627,216 Z" id="Path" fill="#A7A7A7" opacity="0.1"></path>
                <path d="M97.3157895,16.1530163 C96.0774614,15.925977 94.7971028,16.0608062 93.6385279,16.5401864 C92.9435692,16.839307 92.1912115,16.9939276 91.4303546,16.9939276 C90.6694977,16.9939276 89.91714,16.839307 89.2221814,16.5401864 C88.4006655,16.1924867 87.5108064,16.0212233 86.6141944,16.0384284 C85.717466,16.0557459 84.8354076,16.2609696 84.0289109,16.6400432 C83.5684382,16.8749541 83.0556893,16.9985381 82.5349069,17 C80.4300053,17 78.6791612,14.9519233 78.3157895,12.2503917 C78.7355124,11.9532952 79.0927134,11.5816322 79.3681821,11.1553066 C80.6023188,9.23429992 82.5004443,8 84.6585535,8 C86.8165463,8 88.6959269,9.21008914 89.9300635,11.1190073 C90.2986746,11.6922731 90.8138684,12.164254 91.4260468,12.4895758 C92.0383416,12.8148976 92.7268967,12.9825625 93.4255811,12.9764902 L93.4819322,12.9764902 C95.1419625,12.9673816 96.5921895,14.2651828 97.3157895,16.1530163 Z" id="Path" fill="#4254AF" opacity="0.1"></path>
                <path d="M103.424194,7.42547126 L100.0628,9.56522436 L102.102578,5.83852062 C101.524205,5.37604914 100.808574,5.1203288 100.069012,5.1118094 L100.016433,5.1118094 C99.7832203,5.11467229 99.5501225,5.09699859 99.3200161,5.05900763 L98.177883,5.78571885 L98.6668591,4.89441479 C97.862062,4.61337869 97.1650697,4.08670008 96.6735625,3.38820214 L94.6276865,4.67080957 L95.9152469,2.31987247 C94.7236409,0.88198813 93.1140467,0 91.3467145,0 C89.2265142,0 87.3229591,1.26708089 86.1158209,3.23913584 C85.7545539,3.82817457 85.2445231,4.31082478 84.6372723,4.63809417 C84.0300215,4.96536356 83.3472959,5.12558127 82.6584724,5.10249348 L82.5563051,5.10249348 C80.2163532,5.10249348 78.3157895,7.76398441 78.3157895,11.0528052 C78.3157895,14.3416721 80.2163532,17 82.5563051,17 C83.0709381,16.9984993 83.5776324,16.8716319 84.0326678,16.63048 C84.8296413,16.240989 85.7015144,16.0304283 86.5877692,16.0132279 C87.4739089,15.9960275 88.3532605,16.1727646 89.1646156,16.531087 C89.8515982,16.8372311 90.5949569,16.9953824 91.3467145,16.9953824 C92.0984721,16.9953824 92.8418308,16.8372311 93.5288135,16.531087 C94.3339557,16.1803835 95.2047934,16.0076869 96.0823041,16.0248873 C96.9598148,16.0419722 97.8234041,16.2486079 98.6142798,16.63048 C99.0658636,16.8651673 99.5666902,16.988687 100.075225,16.9906494 C102.418284,16.9906494 104.315789,14.3292047 104.315789,11.0434892 C104.32391,9.78177627 104.017408,8.53802559 103.424194,7.42547126 Z" id="Path" fill="#E1E4F3" opacity="0.1"></path>
                <path d="M27.3157895,58.7948608 C25.5564901,58.4679712 23.7378951,58.6618309 22.0909333,59.3515397 C21.1025941,59.7816696 20.032955,60.0027039 18.9518504,60 C17.8707458,59.9973599 16.8022648,59.7712091 15.8160102,59.3363038 C14.649089,58.8339739 13.3848857,58.5866747 12.1110701,58.6114615 C10.8371271,58.6362483 9.58393753,58.9326661 8.43823307,59.4800215 C7.78298063,59.8189634 7.05399073,59.9973599 6.3133733,60 C3.32236754,60 0.832983872,57.0421638 0.315789474,53.1390445 C0.913466229,52.7115297 1.42129005,52.174521 1.81128795,51.5576945 C3.56538734,48.7832825 6.28221989,47 9.33241714,47 C12.3826491,47 15.0652013,48.7619068 16.8099084,51.5056195 C17.3343049,52.3372268 18.0690159,53.0213642 18.9425854,53.4915168 C19.816155,53.9615557 20.7988194,54.201578 21.794918,54.188275 L21.8728594,54.188275 C24.2344967,54.1852051 26.2969917,56.0602441 27.3157895,58.7948608 Z" id="Path" fill="#4254AF" opacity="0.1"></path>
                <path d="M36.0692089,46.4754538 L31.2840698,49.4938512 L34.1884815,44.2392491 C33.3653624,43.5855594 32.3463771,43.2238808 31.2932385,43.2115664 L31.2162215,43.2115664 C30.8837419,43.2164693 30.5514916,43.1918405 30.2233671,43.138022 L28.6077294,44.1779051 L29.3045498,42.9202395 C28.1547961,42.5204774 27.161827,41.7688426 26.4679865,40.7729721 L23.5635748,42.6134055 L25.3919261,39.2699306 C23.6930826,37.2422726 21.4052653,36 18.8893769,36 C15.8708151,36 13.1822115,37.7852466 11.4463493,40.56739 C10.9322151,41.402261 10.2047483,42.0866227 9.3381238,42.5505793 C8.47149926,43.0145359 7.49670712,43.2415542 6.51313595,43.2086018 L6.34972698,43.2086018 C3.01672496,43.2086018 0.315789474,46.9662056 0.315789474,51.6042894 C0.315789474,56.2422591 3.01672496,60 6.34972698,60 C7.08311899,59.9980386 7.804947,59.8179974 8.45250862,59.4753605 C9.58652652,58.9269134 10.8268095,58.6303415 12.08747,58.6059407 C13.3481648,58.58154 14.5991179,58.8301085 15.7536851,59.334315 C16.7295775,59.7704502 17.7869566,59.9973545 18.8568281,60 C19.9268141,60.0025995 20.9852247,59.7810542 21.9632947,59.349594 C23.1093809,58.8547373 24.3491023,58.6109577 25.5982216,58.6347884 C26.847341,58.658619 28.076633,58.9494898 29.2027773,59.4876749 C29.8442418,59.8216462 30.5569928,59.9973545 31.2809754,60 C34.6139087,60 37.31489,56.2391805 37.31489,51.6042894 C37.3381555,49.8177885 36.9097485,48.0542061 36.0692089,46.4754538 Z" id="Path" fill="#E1E4F3" opacity="0.1"></path>
                <path d="M222.315789,28.1544363 C223.553427,27.9278898 224.834142,28.062493 225.992608,28.5409572 C226.686523,28.8396887 227.438652,28.9940501 228.198932,28.9940501 C228.959211,28.9940501 229.711341,28.8396887 230.405256,28.5409572 C231.227242,28.1937282 232.116758,28.0228642 233.013259,28.0400404 C233.910924,28.0573289 234.792289,28.2622086 235.59914,28.6406466 C236.060198,28.8748269 236.572484,28.9980915 237.09292,29 C239.197951,29 240.952532,26.9553568 241.315789,24.2583542 C240.895482,23.9625416 240.538046,23.5912884 240.263274,23.1651386 C239.034951,21.2412903 237.115042,20 234.963439,20 C232.811837,20 230.929185,21.2080605 229.695041,23.1137223 C229.327126,23.6886203 228.811347,24.162145 228.197768,24.4886053 C227.584188,24.8150657 226.893766,24.9833477 226.192865,24.9771732 L226.139308,24.9771732 C224.473213,24.9741421 223.020183,26.2697676 222.315789,28.1544363 Z" id="Path" fill="#4254AF" opacity="0.1"></path>
                <path d="M216.188582,19.4099101 L219.550382,21.5434526 L217.507071,17.8167373 C218.085779,17.3547507 218.801398,17.0990534 219.541178,17.0900492 L219.596402,17.0900492 C219.829957,17.0927043 220.06236,17.0750421 220.293613,17.0372936 L221.432621,17.7639817 L220.942503,16.8726776 C221.753615,16.5963168 222.457729,16.0716468 222.95475,15.3726641 L224.99461,16.6707749 L223.703734,14.3198609 C224.899117,12.8819535 226.489127,12 228.275874,12 C230.395119,12 232.299218,13.2670578 233.506106,15.2391012 C233.867367,15.828417 234.377045,16.3111826 234.984516,16.638452 C235.591987,16.9658369 236.274241,17.1258352 236.963398,17.1024011 L237.074998,17.1024011 C239.418593,17.1024011 241.315789,19.7639613 241.315789,23.0528167 C241.315789,26.3415567 239.418593,29 237.074998,29 C236.560719,28.9976912 236.054493,28.8709393 235.59889,28.63048 C234.801584,28.240989 233.929495,28.0303129 233.0436,28.0132279 C232.157705,27.9960275 231.277562,28.1727646 230.466451,28.531087 C229.780745,28.8371157 229.037513,28.995267 228.286228,28.995267 C227.534943,28.995267 226.791712,28.8371157 226.106006,28.531087 C225.300647,28.1802681 224.428558,28.0075714 223.550716,28.0247718 C222.672875,28.0418568 221.808839,28.2484925 221.017286,28.63048 C220.566285,28.8655136 220.064661,28.9890333 219.556134,28.9906494 C217.215991,28.9906494 215.316493,26.3292047 215.316493,23.0434662 C215.299236,21.7781399 215.59952,20.5287443 216.188582,19.4099101 Z" id="Path" fill="#E1E4F3" opacity="0.1"></path>
                <path d="M181.315789,242 C201.198523,242 217.315789,239.313633 217.315789,236.000558 C217.315789,232.686367 201.198523,230 181.315789,230 C161.43422,230 145.315789,232.686367 145.315789,236.000558 C145.315789,239.313633 161.43422,242 181.315789,242 Z" id="Path" fill="#686868" opacity="0.1"></path>
                <polygon id="Path" fill="#465161" points="162.315789 206 106.315789 205.276178 106.482372 203.83206 109.188228 180 158.368508 180 161.985194 203.83206 162.262053 205.639264"></polygon>
                <polygon id="Path" fill="#000000" opacity="0.1" points="162.315789 206 134.843237 206 107.315789 205.598179 107.479554 204 162.043613 204"></polygon>
                <polygon id="Path" fill="#858F9F" points="171.315789 204 97.3157895 204 97.3157895 206 171.315789 206"></polygon>
                <path d="M241.315789,39.6356033 C241.319246,38.411392 240.836206,37.2354561 239.972063,36.3663815 C239.106761,35.4971915 237.931016,35.0057746 236.703145,35 L30.9280048,35 C30.3193976,35.0027718 29.7173931,35.1251929 29.1562791,35.3599874 C28.5951651,35.5947819 28.0859459,35.9374456 27.6576968,36.3685759 C27.2293319,36.7995907 26.8903931,37.3105257 26.6602251,37.8721615 C26.4299413,38.4337973 26.312946,39.0351623 26.3157895,39.6418398 L26.3157895,164 L241.315789,164 L241.315789,39.6356033 Z" id="Path" fill-opacity="0.488008086" fill="#8BB3E0"></path>
                <path d="M26.3157895,163 L26.3157895,177.441511 C26.3157895,178.650696 26.8017253,179.809498 27.6666794,180.664859 C28.5316335,181.520219 29.7047137,182 30.9279514,182 L236.703164,182 C237.926402,182 239.09983,181.520219 239.965131,180.664859 C240.829275,179.809498 241.315789,178.650696 241.315789,177.441511 L241.315789,163 L26.3157895,163 Z" id="Path" fill="#465161"></path>
                <polygon id="Path" fill="#383838" points="233.315789 43 35.3157895 43 35.3157895 155 233.315789 155"></polygon>
                <path d="M135.312592,177 C136.070049,177.001198 136.819062,176.830122 137.500532,176.498812 C138.182002,176.168706 138.780248,175.686801 139.24823,175.091647 C139.390555,174.909728 139.520818,174.719375 139.637814,174.520589 L136.889019,174.05796 L139.858538,174.077236 C140.143187,173.457987 140.298779,172.788139 140.314459,172.107447 C140.330139,171.42796 140.207112,170.750883 139.952617,170.119586 L135.971145,172.180938 L139.643844,169.484676 C139.298888,168.891932 138.83573,168.377497 138.283317,167.971492 C137.730905,167.565486 137.100093,167.277548 136.431891,167.124543 C135.762483,166.972743 135.070158,166.95949 134.395925,167.08599 C133.721692,167.212491 133.080025,167.476334 132.511933,167.860654 C131.945047,168.244973 131.461384,168.741336 131.094717,169.319623 C130.726844,169.899114 130.481998,170.546073 130.375857,171.22315 C130.269717,171.900228 130.304695,172.591762 130.477173,173.255587 C130.649651,173.918207 130.957217,174.538661 131.379367,175.078395 C131.846143,175.675958 132.443183,176.159068 133.124653,176.492788 C133.804916,176.825303 134.55393,176.998789 135.312592,177 Z" id="Path" fill="#FFFFFF" opacity="0.5"></path>
                <polygon id="Path" fill="#000000" opacity="0.1" points="140.315789 182 162.315789 204 158.93958 182"></polygon>
                <polygon id="Path" fill="#444053" opacity="0.1" points="233.315789 42 35.3157895 42 35.3157895 49 233.315789 49"></polygon>
                <path d="M162.452157,45.8793741 L162.315107,45.8793741 L162.265073,45.8353144 C162.434754,45.6296659 162.528296,45.3705553 162.528296,45.1029171 C162.52612,44.8832744 162.459771,44.6690982 162.336861,44.4873928 C162.215038,44.3056874 162.041007,44.1645433 161.838695,44.0817809 C161.636383,43.9991279 161.414492,43.978574 161.200216,44.0226338 C160.985939,44.0668028 160.789065,44.1736176 160.6357,44.3297399 C160.482334,44.4858622 160.377915,44.684295 160.336583,44.8998925 C160.294162,45.11549 160.317004,45.3387405 160.401845,45.5413278 C160.486685,45.7439151 160.628086,45.9167648 160.810819,46.0382297 C160.992465,46.1595853 161.206742,46.2240896 161.425369,46.2235429 C161.691855,46.222559 161.94964,46.1278798 162.154127,45.9559047 L162.203074,45.9999644 L162.203074,46.138266 L163.061268,47 L163.315789,46.7412174 L162.452157,45.8793741 Z M161.425369,45.8793812 C161.272004,45.8800301 161.122989,45.8349864 160.99464,45.7500375 C160.86738,45.6649793 160.768399,45.5439517 160.709663,45.4021515 C160.64984,45.2603513 160.634612,45.1041197 160.66398,44.9532452 C160.693348,44.80248 160.767311,44.6638504 160.874994,44.5549584 C160.982676,44.4460663 161.120814,44.3718317 161.269828,44.3415475 C161.419931,44.3113726 161.575472,44.3265694 161.716872,44.3852792 C161.858273,44.4439891 161.979008,44.5434788 162.063848,44.6712848 C162.149776,44.7989815 162.194372,44.9492 162.194372,45.1029171 C162.19546,45.2049214 162.175881,45.3059417 162.137812,45.4002929 C162.099742,45.4946441 162.043182,45.5804677 161.971394,45.6527344 C161.899606,45.7248918 161.814765,45.7821803 161.721223,45.8211016 C161.626593,45.8600228 161.526525,45.8798115 161.425369,45.8793812 Z" id="Shape" fill="#3F3D56"></path>
                <path d="M39.3157412,47 C39.8680946,47 40.3157895,46.5523051 40.3157895,45.9999517 C40.3157895,45.4476949 39.8680946,45 39.3157412,45 C38.7634844,45 38.3157895,45.4476949 38.3157895,45.9999517 C38.3157895,46.5523051 38.7634844,47 39.3157412,47 Z" id="Path" fill="#FA5959" opacity="0.8"></path>
                <path d="M42.3158377,47 C42.8680946,47 43.3157895,46.5523051 43.3157895,45.9999517 C43.3157895,45.4476949 42.8680946,45 42.3158377,45 C41.7634844,45 41.3157895,45.4476949 41.3157895,45.9999517 C41.3157895,46.5523051 41.7634844,47 42.3158377,47 Z" id="Path" fill="#FED253" opacity="0.8"></path>
                <path d="M45.3157412,47 C45.867998,47 46.3157895,46.5523051 46.3157895,45.9999517 C46.3157895,45.4476949 45.867998,45 45.3157412,45 C44.7634844,45 44.3157895,45.4476949 44.3157895,45.9999517 C44.3157895,46.5523051 44.7634844,47 45.3157412,47 Z" id="Path" fill="#8CCF4D" opacity="0.8"></path>
                <path d="M145.315789,90.7499515 C142.60831,87.2246762 138.68431,85 134.316366,85 C129.948422,85 126.024422,87.2246762 123.315789,90.7499515 C123.914249,92.1887102 124.800983,93.4957485 125.921796,94.5944739 C127.307823,95.951218 129.014411,96.9510966 130.889352,97.5049781 C132.765446,98.0588595 134.751085,98.1495727 136.67215,97.768871 C138.592062,97.3882823 140.386286,96.5482532 141.894541,95.3235686 C143.402796,94.0988839 144.577805,92.5277268 145.315789,90.7499515 Z" id="Path" fill="#FFC700"></path>
                <path d="M121.242944,92.9918637 C121.416485,93.1154707 121.601753,93.2197677 121.798745,93.3029047 C123.911728,97.5179138 128.290128,100.74372 133.315789,101.014291 L133.315789,121 C129.514297,120.776837 126.470289,118.888622 123.911728,115.942521 C123.691283,116.107407 123.527123,116.256915 123.37586,116.396826 C123.163624,116.594551 123.014707,116.851246 122.949043,117.132224 C122.883378,117.413201 122.903312,117.706898 123.006499,117.977469 C123.144863,118.348636 123.181213,118.749868 123.110858,119.140692 C123.040504,119.530361 122.86579,119.894591 122.605478,120.196381 C122.345166,120.498172 122.007464,120.72596 121.628722,120.856621 C121.24998,120.987281 120.841923,121.016188 120.447937,120.941029 C120.052779,120.864715 119.686935,120.686647 119.384411,120.425326 C119.083059,120.164005 118.857924,119.827526 118.731286,119.451733 C118.604648,119.07594 118.582369,118.672396 118.665622,118.285041 C118.748874,117.897685 118.935314,117.539236 119.205007,117.24554 C119.287087,117.157662 119.37503,117.076722 119.470009,117.003876 C119.52512,116.954155 119.584921,116.911373 119.650586,116.875528 C119.997668,115.637724 120.820817,114.520983 122.157554,113.497554 C120.653138,110.960779 119.731493,108.128341 119.460628,105.201318 C119.265981,105.203168 119.071333,105.215656 118.877858,105.238666 C118.614028,105.273471 118.365442,105.378924 118.159069,105.543579 C117.952695,105.708118 117.796743,105.9255 117.706454,106.171905 C117.561055,106.553942 117.312469,106.88938 116.987665,107.141913 C116.661689,107.394446 116.273566,107.554476 115.861992,107.604543 C115.451355,107.65461 115.034505,107.592864 114.656818,107.426128 C114.279014,107.259276 113.954796,106.993677 113.719109,106.658007 C113.483538,106.322453 113.345526,105.929663 113.320081,105.522303 C113.294636,105.114944 113.382696,104.708394 113.574882,104.346939 C113.76695,103.985368 114.055755,103.682537 114.409873,103.471283 C114.763991,103.259914 115.170054,103.148217 115.583974,103.148333 C115.675669,103.149836 115.767013,103.15608 115.858474,103.166949 C116.197348,102.926557 116.573745,102.741667 116.972421,102.619447 C117.751012,102.379287 118.56009,102.250477 119.376203,102.236832 C119.455938,100.161646 119.853441,98.1103947 120.555814,96.1523401 C120.045744,95.8666219 119.564988,95.5332646 119.120581,95.1568935 C118.686728,94.7748567 118.331437,94.3145392 118.072298,93.8006858 C117.936279,93.5408683 117.727561,93.3251053 117.470766,93.1784883 C117.272601,93.0612409 117.092024,92.9178614 116.933726,92.7523969 C116.653481,92.4541908 116.461178,92.0862606 116.376753,91.6881513 C116.2935,91.2900421 116.321642,90.8769011 116.45766,90.4932454 C116.594852,90.1097054 116.83523,89.7701042 117.152998,89.5112118 C117.470766,89.2523194 117.854199,89.0839641 118.262255,89.0241842 C118.670312,88.9645198 119.086576,89.0157433 119.467664,89.17242 C119.847578,89.3289811 120.177072,89.5850985 120.420968,89.9130212 C120.664864,90.2409439 120.813781,90.6282996 120.850131,91.033231 C120.887654,91.4382779 120.811436,91.8455219 120.630859,92.2110238 C120.772741,92.5137395 120.98146,92.7807259 121.242944,92.9918637 Z" id="Path" fill="#FFC700"></path>
                <path d="M147.387962,92.9918637 C147.215586,93.1154707 147.029139,93.2197677 146.83331,93.3029047 C144.719068,97.5179138 140.340487,100.74372 135.315789,101.014291 L135.315789,121 C139.116266,120.776837 142.1604,118.888622 144.719068,115.942521 C144.940694,116.107407 145.103689,116.256915 145.25613,116.396826 C145.468375,116.594551 145.616126,116.851246 145.681793,117.132224 C145.74746,117.413201 145.727525,117.706898 145.624334,117.977469 C145.485964,118.348636 145.449613,118.749868 145.51997,119.140692 C145.590328,119.530361 145.765049,119.894591 146.025372,120.196381 C146.285694,120.498172 146.62341,120.72596 147.002168,120.856621 C147.382099,120.987281 147.788999,121.016188 148.184174,120.941029 C148.578176,120.864715 148.945207,120.686647 149.246572,120.425326 C149.547937,120.164005 149.774253,119.827526 149.899724,119.451733 C150.026367,119.07594 150.04982,118.672396 149.966564,118.285041 C149.883307,117.897685 149.69686,117.539236 149.425984,117.24554 C149.345072,117.157662 149.255953,117.076722 149.16097,117.003876 C149.105857,116.954155 149.046053,116.911373 148.981559,116.875528 C148.634462,115.637724 147.811279,114.520983 146.473314,113.497554 C147.978965,110.960779 148.899475,108.128341 149.170351,105.201318 C149.36618,105.203168 149.560835,105.215656 149.754319,105.238666 C150.016986,105.273471 150.265583,105.378924 150.471965,105.543579 C150.678347,105.708118 150.835479,105.9255 150.924598,106.171905 C151.070004,106.553942 151.3186,106.88938 151.64459,107.141913 C151.969407,107.394446 152.358718,107.554476 152.769137,107.604543 C153.180728,107.65461 153.59701,107.592864 153.974595,107.426128 C154.35218,107.259276 154.676997,106.993677 154.912695,106.658007 C155.148393,106.322453 155.28559,105.929663 155.311387,105.522303 C155.337185,105.114944 155.249238,104.708394 155.056928,104.346939 C154.864617,103.985368 154.576152,103.682537 154.222019,103.471283 C153.867886,103.259914 153.460985,103.148217 153.047049,103.148333 C152.955584,103.149836 152.864119,103.15608 152.772655,103.166949 C152.433766,102.926557 152.058526,102.741667 151.659834,102.619447 C150.881211,102.379287 150.070927,102.250477 149.255953,102.236832 C149.175042,100.161646 148.777522,98.1103947 148.076292,96.1523401 C148.585212,95.8666219 149.065988,95.5332646 149.511585,95.1568935 C149.945456,94.7748567 150.300762,94.3145392 150.558739,93.8006858 C150.694764,93.5408683 150.904663,93.3251053 151.161468,93.1784883 C151.358469,93.0612409 151.539053,92.9178614 151.697358,92.7523969 C151.977615,92.4541908 152.169926,92.0862606 152.254355,91.6881513 C152.338784,91.2900421 152.310641,90.8769011 152.173443,90.4932454 C152.037419,90.1097054 151.797031,89.7701042 151.47925,89.5112118 C151.161468,89.2523194 150.776847,89.0839641 150.369947,89.0241842 C149.961873,88.9645198 149.544419,89.0157433 149.164488,89.17242 C148.783385,89.3289811 148.453878,89.5850985 148.209972,89.9130212 C147.966066,90.2409439 147.818315,90.6282996 147.780791,91.033231 C147.74444,91.4382779 147.819488,91.8455219 148.000072,92.2110238 C147.859357,92.5137395 147.649457,92.7807259 147.387962,92.9918637 Z" id="Path" fill="#FFC700"></path>
                <path d="M202.189794,231.835679 C202.008773,231.547967 201.779015,231.293899 201.512124,231.082756 C200.148662,229.793853 199.515088,227.902843 199.177413,226.048958 C198.839739,224.195072 198.743426,222.304063 198.203843,220.490782 C197.910264,219.560358 197.542419,218.655458 197.104951,217.784201 C196.792805,217.115967 196.399432,215.808502 195.827358,215.340971 C195.71596,215.24352 195.580194,215.178553 195.433985,215.15071 C195.164773,214.576446 194.779523,214.064829 194.304922,213.646023 C193.411419,212.837413 192.32181,212.194702 191.725368,211.149426 C191.561752,210.786306 191.359844,210.441748 191.123124,210.122712 C190.720467,209.679543 190.083411,209.498563 189.712086,209.029871 C189.228202,208.424284 189.337279,207.556508 189.39994,206.786182 C189.462601,206.014697 189.39994,205.091234 188.731553,204.685189 C188.332378,204.439242 187.817163,204.463605 187.401743,204.245501 C186.777451,203.933426 186.531448,203.146859 186.544212,202.444981 C186.555816,201.741943 186.77513,201.058627 186.830829,200.356749 C187.006049,198.122342 185.532349,195.899535 186.100942,193.733575 C186.315615,192.913364 186.808782,192.201045 187.174306,191.436521 C187.301949,191.182452 187.406384,190.916783 187.486451,190.644153 C188.460021,191.030476 189.484648,191.276423 190.526682,191.377354 C188.806979,187.519926 189.244447,183.03835 188.441455,178.89321 L188.54473,178.752834 C189.354684,177.684356 189.815361,176.390813 189.861776,175.050864 C189.861776,173.509053 189.141172,172.067013 188.816262,170.556526 C188.538928,169.274584 188.550532,167.932315 188.19197,166.671255 C187.942486,165.888168 187.611774,165.132925 187.205636,164.418285 C186.816904,163.695525 186.407286,162.985527 185.979101,162.285969 C185.578765,160.963422 185.178429,159.639716 184.776933,158.316009 C184.215303,156.459803 183.637427,154.571114 182.544337,152.966656 C182.145161,152.379631 182.02332,151.188179 181.408312,150.832019 C180.909342,150.573311 180.343071,150.4747 179.784921,150.547788 C178.916947,150.061694 178.155729,149.358656 178.046652,148.398069 C178.035048,148.188086 178.057096,147.976943 178.109314,147.77392 L178.214909,147.77392 C179.588815,147.648626 180.285051,146.437452 180.999853,145.375934 C182.154444,143.660104 181.714655,141.337527 180.999853,139.38387 C180.822313,138.767842 180.500884,138.201699 180.063416,137.733007 C179.060836,136.796783 177.474578,137.003286 176.183061,136.549676 C175.749074,136.400019 175.342936,136.172634 174.899666,136.065902 C174.040975,135.86636 173.14167,136.147111 172.354924,136.543875 C171.568177,136.940639 170.834808,137.452256 170.010929,137.764331 C169.18705,138.076405 168.169385,138.322352 167.966316,139.169246 C167.909457,139.453478 167.932665,139.74815 168.03478,140.020781 C168.225084,140.563721 168.558117,141.044014 168.999066,141.412935 C168.648628,142.135695 168.458323,142.926903 168.443238,143.730872 C168.428153,144.534841 168.587127,145.331849 168.909716,146.068531 C169.232305,146.805213 169.710387,147.463006 170.311471,147.995505 C170.912555,148.529164 171.622715,148.925928 172.393217,149.159114 C172.629937,149.539636 172.851572,149.927119 173.054641,150.322723 C173.416683,151.02228 173.723027,151.845972 173.597705,152.595415 C173.371428,152.835561 173.163718,153.09079 172.973413,153.359939 C172.07759,154.608238 171.568177,156.07232 171.100538,157.532922 C170.471605,159.398409 169.967995,161.30334 169.593188,163.234954 C168.830809,164.854494 167.900174,166.403265 167.347827,168.104014 C166.359172,168.105174 165.373998,167.972919 164.420155,167.71073 L161.784902,167.114424 C160.867031,166.905601 159.912027,166.680536 159.193743,166.074949 C158.813134,165.762874 158.517234,165.347548 158.129663,165.038954 C157.742092,164.73036 156.964628,164.3684 156.541085,164.623628 C156.463338,164.671193 156.390233,164.72688 156.325251,164.789527 C155.93768,164.00644 155.569835,163.229154 155.120763,162.470429 C154.474424,161.408912 153.512458,160.439044 152.295206,160.236022 C151.551394,160.116528 150.790176,160.292868 150.175167,160.729076 C149.463846,161.234892 149.017095,162.289449 149.550876,163.000608 C149.684321,163.159546 149.82937,163.306882 149.984863,163.443777 C150.345745,163.860264 150.669495,164.308073 150.94915,164.782566 C151.956371,166.195602 153.461401,167.172431 155.161377,167.516989 L155.05114,167.829063 C154.829505,168.478736 154.358385,169.261822 154.476745,169.935857 L166.196717,173.946422 C166.947491,174.251535 167.745842,174.427875 168.555796,174.467319 C168.872583,174.464999 169.18705,174.423235 169.492233,174.343186 L169.492233,174.941812 L169.492233,174.967335 C169.523564,179.083471 168.867942,183.171764 168.746101,187.28558 C168.725214,188.037344 168.746101,188.845953 169.220701,189.432978 C169.752162,190.07569 170.694401,190.203304 171.515959,190.057128 C171.713226,190.023484 171.907012,189.980559 172.096156,189.926033 C172.37349,190.962028 172.574238,192.016585 172.696079,193.081583 L173.470061,198.656001 C173.569855,199.226784 173.610469,199.805688 173.591903,200.384593 C173.501392,201.692058 172.810958,202.862627 172.311989,204.070321 C171.81186,205.278015 171.515959,206.723535 172.171581,207.853501 C172.376971,208.202699 172.661267,208.499692 172.84577,208.861652 C173.079009,209.421994 173.185765,210.027582 173.157916,210.634329 C173.205492,212.315355 173.251908,213.998702 173.294842,215.684369 C173.159076,215.661166 173.018668,215.689009 172.901469,215.762097 C172.252809,216.267913 172.323593,218.67402 172.277177,219.419983 C172.22728,220.668281 172.277177,221.942102 172.208714,223.202002 C172.127486,224.901591 171.853634,226.586097 171.394118,228.224199 C171.28156,228.756698 171.035556,229.252073 170.679316,229.662758 C170.313792,229.980634 169.878644,230.206859 169.408685,230.321711 C167.852598,230.808965 166.226887,231.03055 164.597695,230.977184 C163.938591,230.955142 163.252799,230.892495 162.640111,231.141922 C162.028584,231.39251 161.535417,232.079306 161.757052,232.703455 C161.947357,233.227834 162.525232,233.477261 163.046249,233.673323 C164.236812,234.09329 165.386762,234.621148 166.479853,235.253418 C166.901075,235.53997 167.344346,235.790558 167.807342,236.005181 C168.249452,236.164119 168.707808,236.276652 169.174286,236.341619 L174.709361,237.297565 C175.841905,237.490146 177.206528,237.609639 177.927132,236.673416 C178.318184,236.167599 178.373883,235.480803 178.355317,234.838092 C178.323986,233.589794 178.074502,232.319453 178.236957,231.071154 C178.359959,230.332153 178.554905,229.608232 178.817153,228.907515 C179.36834,227.270573 179.923008,225.633632 180.477676,223.99901 C181.033505,222.356268 181.596295,220.699605 181.810968,218.976814 C181.888714,218.352665 181.882912,217.640346 181.40483,217.250542 C181.284149,217.151931 181.143742,217.078843 180.992891,217.038239 C180.974324,215.534712 180.778218,214.026545 180.861766,212.521858 C180.883814,212.148297 180.920946,211.773575 180.952277,211.395373 C181.242375,211.670324 181.501143,211.976598 181.723939,212.307234 C182.257719,213.143687 182.453826,214.248129 183.268422,214.803831 C183.962337,215.278324 184.989285,215.252801 185.47665,215.939597 C185.632143,216.204106 185.750503,216.488338 185.825929,216.785331 C186.107904,217.522012 186.532608,218.194887 187.074512,218.767991 C187.260175,219.452466 187.518942,220.11606 187.845013,220.74601 C188.305689,221.718198 188.762884,222.686905 189.218918,223.652132 C189.687717,224.693928 190.208734,225.71136 190.779647,226.70095 C191.215955,227.323939 191.567554,228.002614 191.825162,228.717254 C192.266111,230.259064 191.547828,231.950532 190.411803,233.087458 C189.275778,234.223224 187.77655,234.875216 186.300529,235.484284 C186.145037,235.53649 186.002308,235.621179 185.881627,235.733711 C185.753984,235.884528 185.686681,236.07827 185.691323,236.276652 C185.691323,236.997091 186.284284,237.61544 186.965435,237.837025 C187.66051,238.023805 188.390398,238.050488 189.097077,237.914753 C193.086509,237.43098 197.064337,236.457632 200.591932,234.519057 C201.118751,234.269629 201.58639,233.908829 201.962357,233.461019 C202.143378,233.235954 202.260578,232.965645 202.300031,232.680253 C202.340645,232.393701 202.302352,232.101349 202.189794,231.835679 Z" id="Path" fill="url(#linearGradient-1)"></path>
                <path d="M184.775399,162.082624 C185.443138,163.089014 186.068998,164.121708 186.652978,165.177274 C187.062462,165.876029 187.395168,166.615954 187.64528,167.383327 C188.008232,168.613868 187.998925,169.927893 188.271139,171.183593 C188.584069,172.660013 189.315789,174.06896 189.315789,175.583119 C189.268094,176.893714 188.807424,178.158563 187.995435,179.200406 C187.186936,180.234243 186.260943,181.173159 185.234906,182 C182.872228,175.982244 181.551874,169.616827 181.329682,163.167925 C181.298273,162.275897 181.292456,161.356422 181.623999,160.52272 C181.827578,160.000083 182.803593,158.565977 183.432942,159.12864 C183.660951,159.334493 183.720279,160.26426 183.86104,160.575326 C184.12511,161.10025 184.43106,161.604589 184.775399,162.082624 Z" id="Path" fill="#2F2E41"></path>
                <path d="M184.775399,162.082624 C185.443138,163.089014 186.068998,164.121708 186.652978,165.177274 C187.062462,165.876029 187.395168,166.615954 187.64528,167.383327 C188.008232,168.613868 187.998925,169.927893 188.271139,171.183593 C188.584069,172.660013 189.315789,174.06896 189.315789,175.583119 C189.268094,176.893714 188.807424,178.158563 187.995435,179.200406 C187.186936,180.234243 186.260943,181.173159 185.234906,182 C182.872228,175.982244 181.551874,169.616827 181.329682,163.167925 C181.298273,162.275897 181.292456,161.356422 181.623999,160.52272 C181.827578,160.000083 182.803593,158.565977 183.432942,159.12864 C183.660951,159.334493 183.720279,160.26426 183.86104,160.575326 C184.12511,161.10025 184.43106,161.604589 184.775399,162.082624 Z" id="Path" fill="#000000" opacity="0.1"></path>
                <path d="M103.38995,119.794205 C100.897624,122.26718 100.598264,123.356452 99.1016969,123.84872 C97.6050129,124.339824 92.2202764,127.110719 93.9122005,130.181862 L98.4619843,133.169216 L98.5943305,133.256497 L99.2907296,135.33496 L92.409309,147.507814 C92.409309,147.507814 81.0662966,142.354717 79.9540023,149.977297 C78.8418251,157.601042 79.5475938,159.682995 79.2482336,163.753802 C78.9488733,167.823446 79.3459121,169 78.3471077,169 C77.3483033,169 76.9544267,166.32686 76.9544267,166.32686 C76.9544267,166.32686 76.8914158,166.204666 76.7810882,165.97657 C75.2970532,162.911245 65.2238622,140.410086 81.3593323,124.943811 C81.3593323,124.943811 88.8330317,124.456199 90.6322383,115.939856 C91.8735994,110.054176 96.2154941,110.56134 99.1016969,111.760354 C100.039716,112.125889 100.913787,112.636195 101.691585,113.272535 C102.391614,113.931102 103.014228,114.666245 103.547478,115.464114 C104.369781,116.754483 104.817299,118.372099 103.38995,119.794205 Z" id="Path" fill="#848E99"></path>
                <path d="M97.6256402,133.072524 L98.3157895,135.161684 L91.4960092,147.397193 C91.4960092,147.397193 80.2549091,142.217572 79.1525969,149.880556 C78.0502848,157.542371 78.7498357,159.63504 78.4531621,163.7268 C78.1564884,167.81739 78.549964,169 77.5601232,169 C76.5702824,169 76.1799407,166.313101 76.1799407,166.313101 C76.1799407,166.313101 76.1174953,166.190278 76.0081578,165.961009 C75.5117285,162.133611 72.9948772,139.750585 82.1189855,140.940213 C82.1189855,140.940213 89.5225954,144.426046 90.7060401,143.035222 C91.6428371,141.934494 95.802072,135.599168 97.4944816,133 L97.6256402,133.072524 Z" id="Path" fill="#000000" opacity="0.1"></path>
                <path d="M103.315789,115.563808 L98.6736314,120.511985 C98.6736314,120.511985 93.2825956,127.278042 92.1638794,126.991126 C91.8289338,126.92276 91.4875354,126.885774 91.1448225,126.880171 C90.7716383,126.853272 90.4142275,126.727747 90.1139355,126.518164 C89.8136435,126.30858 89.5827784,126.022785 89.4482265,125.695522 C89.3136747,125.368259 89.2808134,125.011856 89.3534667,124.66666 C89.4261199,124.322585 89.6014197,124.004288 89.8589323,123.749874 C91.6977278,121.94096 95.0860204,118.506936 95.3079234,117.743696 C95.5297069,116.980455 97.6867187,113.637213 98.7669573,112 C99.7239962,112.35192 100.61579,112.843376 101.40936,113.456322 C102.127886,114.088881 102.767425,114.79586 103.315789,115.563808 Z" id="Path" fill="#000000" opacity="0.1"></path>
                <path d="M230.048052,189.239132 C229.283582,190.770628 225.367265,196.516644 223.653877,199.026531 L222.852285,200.20827 C222.852285,200.20827 222.540233,202.284737 217.424428,199.712102 C212.309784,197.138306 92.130258,146.344459 92.130258,146.344459 L91.3157895,143.892671 L97.2452504,135 L228.965729,185.976279 C228.965729,185.976279 231.037572,187.260272 230.048052,189.239132 Z" id="Path" fill="#53667C"></path>
                <path d="M223.315789,199.03024 L222.516245,200.209758 C222.516245,200.209758 222.20499,202.282322 217.102255,199.714523 C212.000677,197.145564 92.1281773,146.44718 92.1281773,146.44718 L91.3157895,144 L223.315789,199.03024 Z" id="Path" fill="#000000" opacity="0.1"></path>
                <path d="M151.615341,165.093254 C150.460413,164.884724 149.179232,164.985352 148.281199,165.814622 C147.737767,166.321399 147.395241,167.041555 147.323881,167.823542 C147.247033,168.726768 147.722398,169.799728 148.543583,169.868834 C148.741194,169.871259 148.938805,169.85671 149.134221,169.8264 C149.6535,169.823976 150.170583,169.871259 150.682176,169.969462 C151.687799,170.073727 152.702204,169.910055 153.638662,169.492995 C154.57512,169.074722 155.408381,168.415186 156.065988,167.568942 C156.771899,166.590548 155.842028,166.166214 155.008767,165.97102 C153.869208,165.703083 152.755998,165.295722 151.615341,165.093254 Z" id="Path" fill="#FBBEBE"></path>
                <path d="M172.50379,193.855828 L173.273673,199.322228 C173.371784,199.886167 173.411028,200.459332 173.391406,201.031344 C173.301375,202.319523 172.615752,203.472772 172.121735,204.665231 C171.627718,205.856538 171.326459,207.283107 171.982071,208.387919 C172.184064,208.731588 172.4657,209.026819 172.649226,209.383173 C172.882383,209.93558 172.988574,210.531809 172.959718,211.130346 L173.170945,218.887099 C175.568314,219.049707 177.973764,219.037021 180.368825,218.846735 C180.462319,218.851348 180.554658,218.822517 180.629685,218.766008 C180.693168,218.68528 180.725487,218.584948 180.719716,218.483462 C180.825906,216.668248 180.508489,214.850727 180.611217,213.035513 C180.648152,212.371242 180.741646,211.71043 180.754343,211.043852 C180.791279,208.340636 179.455816,205.695083 179.859802,203.023005 C179.986769,202.349507 180.151827,201.682929 180.356128,201.029037 C181.632725,196.374524 181.362631,191.484748 181.079841,186.679159 C181.084458,186.601891 181.062527,186.525777 181.017511,186.462348 C180.972496,186.416218 180.913629,186.38508 180.850146,186.372395 C179.491598,185.965298 178.054561,185.890337 176.661386,186.155584 C175.26821,186.419678 173.959295,187.015908 172.845447,187.892377 C172.506099,188.165697 171.653111,188.428638 171.429187,188.755007 C171.118695,189.208234 171.52499,189.660308 171.705052,190.141213 C172.104421,191.347511 172.372206,192.59302 172.50379,193.855828 Z" id="Path" fill="#3F3D56"></path>
                <path d="M172.50379,193.855828 L173.273673,199.322228 C173.371784,199.886167 173.411028,200.459332 173.391406,201.031344 C173.301375,202.319523 172.615752,203.472772 172.121735,204.665231 C171.627718,205.856538 171.326459,207.283107 171.982071,208.387919 C172.184064,208.731588 172.4657,209.026819 172.649226,209.383173 C172.882383,209.93558 172.988574,210.531809 172.959718,211.130346 L173.170945,218.887099 C175.568314,219.049707 177.973764,219.037021 180.368825,218.846735 C180.462319,218.851348 180.554658,218.822517 180.629685,218.766008 C180.693168,218.68528 180.725487,218.584948 180.719716,218.483462 C180.825906,216.668248 180.508489,214.850727 180.611217,213.035513 C180.648152,212.371242 180.741646,211.71043 180.754343,211.043852 C180.791279,208.340636 179.455816,205.695083 179.859802,203.023005 C179.986769,202.349507 180.151827,201.682929 180.356128,201.029037 C181.632725,196.374524 181.362631,191.484748 181.079841,186.679159 C181.084458,186.601891 181.062527,186.525777 181.017511,186.462348 C180.972496,186.416218 180.913629,186.38508 180.850146,186.372395 C179.491598,185.965298 178.054561,185.890337 176.661386,186.155584 C175.26821,186.419678 173.959295,187.015908 172.845447,187.892377 C172.506099,188.165697 171.653111,188.428638 171.429187,188.755007 C171.118695,189.208234 171.52499,189.660308 171.705052,190.141213 C172.104421,191.347511 172.372206,192.59302 172.50379,193.855828 Z" id="Path" fill="#324254"></path>
                <path d="M186.87354,192.207919 C186.510773,192.971959 186.022076,193.68226 185.804878,194.502376 C185.238776,196.668324 186.702554,198.902031 186.529258,201.12172 C186.472647,201.822674 186.258915,202.503767 186.242741,203.204722 C186.227722,203.905676 186.48189,204.684903 187.09767,205.00851 C187.511272,205.222301 188.030006,205.201273 188.41819,205.445438 C189.074407,205.850823 189.149502,206.772578 189.083649,207.545964 C189.018952,208.318182 188.910353,209.182692 189.394428,209.786681 C189.764127,210.255152 190.398393,210.4374 190.795819,210.880169 C191.032658,211.197935 191.234837,211.541403 191.396581,211.904731 C191.99041,212.953825 193.074092,213.595198 193.963681,214.41882 C194.852115,215.242441 195.604222,216.44925 195.206795,217.590637 C194.914501,218.425941 194.094231,218.941142 193.305154,219.334845 C191.864482,220.054491 190.344093,220.59773 188.776337,220.95288 C188.607661,221.004284 188.429743,221.01363 188.257602,220.980918 C188.081995,220.916664 187.926028,220.809185 187.803565,220.666657 C186.886249,219.758922 185.938894,218.806792 185.51605,217.583627 C185.440955,217.288058 185.323114,217.004172 185.167147,216.741314 C184.683071,216.053211 183.660622,216.078913 182.969746,215.603432 C182.162184,215.047342 181.965781,213.944507 181.437804,213.11154 C180.909827,212.278573 180.135769,211.782064 179.573133,211.049567 C178.622313,209.829906 178.38894,208.202525 177.708462,206.809962 C177.419634,206.218824 177.049935,205.666239 176.818873,205.049399 C176.587811,204.311061 176.444552,203.547021 176.393719,202.774803 C175.955856,199.10414 174.839826,195.407775 175.542255,191.774496 C175.697066,190.976577 175.936216,190.203191 176.035572,189.37957 C176.206558,187.955464 175.936216,186.49748 176.145327,185.076879 C176.149948,184.898136 176.195005,184.724066 176.275877,184.565183 C176.357904,184.4063 176.473435,184.269614 176.614383,184.162134 C176.781903,184.086198 176.964442,184.048813 177.149292,184.052318 C178.990857,183.953016 180.838198,183.995074 182.675142,184.17849 C183.607477,184.269614 184.651878,184.461208 185.211048,185.231089 C185.687036,185.891154 185.661619,186.774357 185.81412,187.575781 C186.003591,188.56179 186.498064,189.099188 187.016799,189.872574 C187.535533,190.64596 187.255948,191.41 186.87354,192.207919 Z" id="Path" fill="#263546"></path>
                <path d="M179.466987,217.319566 C179.956795,217.319566 180.499618,217.287682 180.877635,217.605346 C181.349003,218.002131 181.354765,218.730751 181.281006,219.349547 C181.063185,221.090205 180.508838,222.764732 179.953337,224.433355 L178.304124,229.391987 C178.043661,230.09935 177.850043,230.831513 177.727879,231.577847 C177.56653,232.848504 177.814316,234.119161 177.845433,235.389817 C177.845433,236.025146 177.805096,236.730148 177.417859,237.242662 C176.717145,238.166132 175.349139,238.058669 174.224309,237.87799 L168.732693,236.924997 C168.269392,236.861228 167.814159,236.747861 167.37506,236.584896 C166.916369,236.367609 166.476118,236.113714 166.057764,235.825572 C164.970965,235.189063 163.828848,234.657654 162.646393,234.237251 C162.132382,234.04004 161.554985,233.788506 161.369434,233.258279 C161.149308,232.62295 161.639116,231.923853 162.246479,231.669958 C162.854993,231.416063 163.53381,231.478651 164.19073,231.498726 C165.807673,231.550686 167.421159,231.327494 168.965496,230.837418 C169.431102,230.720508 169.862134,230.491412 170.224016,230.170205 C170.592812,229.746259 170.842903,229.230202 170.950084,228.673995 C171.417995,227.018362 171.696898,225.31195 171.78103,223.591367 C171.845569,222.31953 171.802927,221.048873 171.852484,219.778216 C171.883601,219.025978 171.812147,216.601574 172.456389,216.084337 C172.949655,215.695818 174.978037,216.766901 175.644177,216.922781 C176.896934,217.216827 178.18196,217.35027 179.466987,217.319566 Z" id="Path" fill="#626262"></path>
                <path d="M198.111128,220.378053 C198.662885,222.1885 198.749505,224.103509 199.106664,225.965649 C199.463823,227.82779 200.096268,229.726351 201.49168,231.022212 C201.762219,231.236036 201.997161,231.492153 202.183453,231.781167 C202.30211,232.051383 202.341267,232.349795 202.299737,232.641159 C202.257021,232.932522 202.134803,233.207437 201.944951,233.434184 C201.559315,233.884152 201.081125,234.247181 200.543607,234.499774 C196.938792,236.446504 192.881893,237.42868 188.792956,237.916244 C188.070332,238.050177 187.326349,238.023156 186.615591,237.837529 C185.919072,237.602559 185.303239,236.983412 185.316292,236.256178 C185.309172,236.057628 185.377994,235.862603 185.50733,235.709872 C185.631921,235.597086 185.779056,235.512497 185.939243,235.459628 C187.445007,234.847531 188.974502,234.180215 190.139718,233.048832 C191.304935,231.91745 192.035865,230.204515 191.586153,228.667809 C191.319174,227.9488 190.957268,227.267385 190.50993,226.642364 C189.926135,225.648439 189.393363,224.626318 188.913987,223.579525 L187.509082,220.662367 C187.09734,219.80825 186.682039,218.929461 186.612031,217.988404 C188.376468,218.065945 190.138532,217.78633 191.790244,217.166008 C192.560331,216.854672 193.279395,216.429376 193.918959,215.901867 C194.462411,215.453074 194.957212,214.615404 195.688142,215.200481 C196.275497,215.668072 196.645708,216.986256 196.989815,217.653572 C197.43834,218.530011 197.813298,219.440521 198.111128,220.378053 Z" id="Path" fill="#626262"></path>
                <path d="M177.836795,149.249528 C177.977837,150.460892 179.174304,151.258305 180.315789,151.737926 L173.090369,154 C173.556525,153.122845 173.181209,152.051028 172.717444,151.160974 C172.340933,150.456201 171.910635,149.780746 171.431331,149.139297 C171.36081,149.040793 171.280727,148.917663 171.332123,148.803914 C171.377544,148.730036 171.44926,148.674921 171.534124,148.650295 C173.019848,147.999465 174.550991,147.327527 176.174171,147.091821 C176.643913,147.024979 177.532,146.842043 177.882215,147.308764 C178.23243,147.775486 177.76986,148.691338 177.836795,149.249528 Z" id="Path" fill="#FBBEBE"></path>
                <path d="M177.836795,149.249528 C177.977837,150.460892 179.174304,151.258305 180.315789,151.737926 L173.090369,154 C173.556525,153.122845 173.181209,152.051028 172.717444,151.160974 C172.340933,150.456201 171.910635,149.780746 171.431331,149.139297 C171.36081,149.040793 171.280727,148.917663 171.332123,148.803914 C171.377544,148.730036 171.44926,148.674921 171.534124,148.650295 C173.019848,147.999465 174.550991,147.327527 176.174171,147.091821 C176.643913,147.024979 177.532,146.842043 177.882215,147.308764 C178.23243,147.775486 177.76986,148.691338 177.836795,149.249528 Z" id="Path" fill="#000000" opacity="0.1"></path>
                <path d="M173.815209,151 C176.852653,151 179.315789,148.536863 179.315789,145.49942 C179.315789,142.461977 176.852653,140 173.815209,140 C170.778926,140 168.315789,142.461977 168.315789,145.49942 C168.315789,148.536863 170.778926,151 173.815209,151 Z" id="Path" fill="#FBBEBE"></path>
                <path d="M168.790922,190.120386 C169.330334,190.751506 170.280167,190.87521 171.110392,190.736616 C173.049928,190.428501 174.636502,189.032249 176.536169,188.530561 C178.863847,187.914332 181.327551,188.705808 183.527412,189.677114 C185.7261,190.647274 187.91189,191.833916 190.315789,192 C188.141726,187.267176 189.384718,181.57221 187.306811,176.799297 C186.797888,175.630982 186.088444,174.506192 185.974699,173.242807 C185.83281,171.674744 186.633719,170.161661 186.756846,168.602761 C186.870591,167.213382 186.441407,165.82973 186.032158,164.504493 C185.524407,162.876869 185.01783,161.250391 184.511252,159.623912 C183.943697,157.802714 183.359725,155.95059 182.258622,154.384818 C181.851718,153.808678 181.728592,152.640363 181.110613,152.292159 C179.759739,151.531608 177.712321,152.490314 176.248873,152.541858 C174.785426,152.594546 173.450969,153.611668 172.596119,154.760512 C171.690846,155.974644 171.176059,157.420148 170.703488,158.849617 C169.949484,160.978929 169.38662,163.167803 169.021931,165.392184 C168.973853,165.724352 168.932811,166.057666 168.902322,166.39327 C168.586884,169.558031 169.046556,172.741119 169.072354,175.92077 L169.072354,175.942533 C169.104015,179.976658 168.441477,183.985584 168.31835,188.016273 C168.305451,188.751624 168.324214,189.556846 168.790922,190.120386 Z" id="Path" fill="#465C76"></path>
                <path d="M168.593303,176 C169.674912,175.728465 170.652789,175.032222 171.493134,174.269835 C172.221588,173.622329 172.86729,172.887792 173.418584,172.084791 C174.112073,171.005614 174.669195,169.845208 175.077129,168.629103 C176.237994,165.378806 176.975773,161.992742 177.271816,158.55562 C177.353403,157.619173 177.379045,156.613101 176.817261,155.870442 C176.502569,155.467781 176.059668,155.183481 175.561988,155.06396 C175.063143,154.943277 174.539821,154.994335 174.07361,155.20901 C173.334666,155.567576 172.854469,156.29515 172.409238,156.991394 C171.5281,158.371116 170.641134,159.769405 170.073522,161.305782 C169.821768,161.98578 169.637615,162.685504 169.392854,163.368983 C169.143431,164.043179 168.856712,164.70345 168.533861,165.345154 C168.486074,165.682833 168.445281,166.01935 168.414977,166.359349 C168.12243,169.56555 168.567661,172.778714 168.593303,176 Z" id="Path" fill="#000000" opacity="0.1"></path>
                <path d="M177.812345,154.870876 C178.377827,155.608376 178.353139,156.616676 178.273196,157.533941 C177.975759,160.94718 177.231579,164.309716 176.059466,167.537428 C175.651519,168.755454 175.089563,169.917016 174.38653,170.997914 C173.830452,171.794182 173.177972,172.522463 172.444373,173.167775 C171.369838,174.128829 170.060175,174.987324 168.602382,175 C167.781785,174.961973 166.972945,174.789121 166.21113,174.48836 L154.334816,170.526605 C154.2149,169.862856 154.69221,169.087329 154.916757,168.448931 L155.549252,166.610945 C155.729125,166.102761 155.938389,165.554246 156.40982,165.277684 C156.881252,165.002274 157.627783,165.380243 158.019271,165.686766 C158.411935,165.994441 158.709372,166.396609 159.094982,166.710046 C159.825054,167.305807 160.790254,167.528209 161.720186,167.733326 L164.386537,168.318717 C165.352913,168.577994 166.351031,168.709361 167.352676,168.707056 C168.095681,166.48073 169.509976,164.521747 170.309411,162.313858 C170.556295,161.638586 170.743222,160.941418 170.999511,160.264993 C171.568521,158.739291 172.46671,157.354175 173.355494,155.980582 C173.801061,155.292634 174.285425,154.570115 175.035483,154.210584 C175.505739,153.995096 176.037128,153.94324 176.541478,154.063084 C177.047003,154.182928 177.494922,154.467556 177.812345,154.870876 Z" id="Path" fill="#3E5066"></path>
                <path d="M175.230033,146.252347 C175.187514,145.880836 175.072947,145.522423 174.89224,145.194969 C174.798933,145.031837 174.656021,144.902046 174.484762,144.825839 C174.313503,144.750822 174.122166,144.73177 173.939096,144.772255 C173.380438,144.948485 173.192644,145.820108 172.608002,145.848686 C172.213516,145.867738 171.931235,145.464076 171.80722,145.086611 C171.683205,144.707955 171.617063,144.275716 171.32179,144.010181 C171.115098,143.855384 170.878879,143.745836 170.628487,143.689871 C169.271409,143.257632 167.87063,142.459835 167.419452,141.097627 C167.313153,140.821375 167.28835,140.520117 167.346224,140.229576 C167.552916,139.36867 168.617082,139.109088 169.427313,138.798305 C170.237545,138.487521 171.015886,137.955259 171.810763,137.551598 C172.604459,137.147937 173.526894,136.863349 174.399723,137.068157 C174.843815,137.208664 175.279639,137.372987 175.706014,137.558742 C177.021754,138.01956 178.632768,137.805226 179.652053,138.762582 C180.098507,139.237688 180.424489,139.812816 180.605196,140.441528 C181.317397,142.433639 181.768575,144.798452 180.589842,146.547651 C179.862288,147.626463 179.157174,148.860071 177.758757,148.991053 C176.13239,149.129179 175.486331,147.643133 175.230033,146.252347 Z" id="Path" fill="#2F2E41"></path>
                <g id="Group" opacity="0.1" transform="translate(166.315789, 139.000000)" fill="#000000">
                    <path d="M6.22109091,5.30666667 C6.097,4.95444444 6.02963636,4.55111111 5.73772727,4.30222222 C5.53209091,4.15777778 5.29572727,4.05555556 5.044,4.00333333 C3.68372727,3.6 2.28445455,2.85555556 1.82945455,1.58555556 C1.72663636,1.32666667 1.70181818,1.04666667 1.75972727,0.775555556 C1.79163636,0.647777778 1.84836364,0.526666667 1.92872727,0.42 C1.40990909,0.632222222 0.958454545,0.913333333 0.832,1.40888889 C0.772909091,1.68 0.798909091,1.96111111 0.905272727,2.21888889 C1.35672727,3.49 2.75836364,4.23444444 4.11627273,4.63777778 C4.36681818,4.69 4.60318182,4.79222222 4.80881818,4.93666667 C5.10427273,5.18444444 5.16809091,5.58555556 5.29572727,5.94111111 C5.42218182,6.29666667 5.70227273,6.67 6.097,6.65222222 C6.49054545,6.63444444 6.682,6.29666667 6.93254545,6.01222222 C6.58627273,5.97111111 6.33572727,5.63555556 6.22109091,5.30666667 Z" id="Path"></path>
                    <path d="M12.1739091,8.94222222 C10.5406364,9.08222222 9.89418182,7.68333333 9.63063636,6.39555556 C9.59636364,6.05 9.48763636,5.71444444 9.31272727,5.40888889 C9.21936364,5.25666667 9.07636364,5.13555556 8.90381818,5.06555556 C8.73245455,4.99444444 8.54218182,4.97666667 8.359,5.01444444 C8.06945455,5.14666667 7.82481818,5.35333333 7.657,5.61222222 C7.80236364,5.62555556 7.943,5.67 8.06827273,5.74222222 C8.19236364,5.81444444 8.29754545,5.91333333 8.37554545,6.03 C8.55518182,6.33555556 8.66981818,6.67 8.71236364,7.01666667 C8.97,8.30555556 9.61527273,9.70666667 11.2556364,9.56333333 C11.9044545,9.49666667 12.5024545,9.20444444 12.9338182,8.74444444 C12.6939091,8.85 12.4374545,8.91666667 12.1739091,8.94222222 Z" id="Path"></path>
                </g>
            </g>
        </g>
    </g>
</svg>