<svg xmlns="http://www.w3.org/2000/svg" width="232" height="209" fill="none" viewBox="0 0 232 209">
    <path fill="#4254AF" d="M117.037 186.671c63.145 0 114.335-3.975 114.335-8.878 0-4.903-51.19-8.878-114.335-8.878-63.146 0-114.336 3.975-114.336 8.878 0 4.903 51.19 8.878 114.336 8.878zM84.14 13.965c-1.064-.202-2.164-.082-3.159.344-.597.266-1.243.404-1.897.404-.653 0-1.3-.138-1.896-.404-.706-.309-1.47-.461-2.24-.446-.77.016-1.528.198-2.22.535-.396.21-.837.319-1.284.32-1.808 0-3.312-1.821-3.624-4.223.36-.265.668-.595.904-.974 1.06-1.709 2.69-2.806 4.544-2.806 1.854 0 3.468 1.076 4.528 2.773.316.51.759.93 1.285 1.22.526.289 1.117.438 1.717.432h.049c1.425-.008 2.67 1.146 3.292 2.825z" opacity=".1"/>
    <path fill="#4254AF" d="M89.634 6.432l-2.922 1.854 1.773-3.228c-.503-.4-1.125-.622-1.767-.63h-.046c-.203.003-.405-.013-.605-.046l-.993.63.425-.772c-.7-.244-1.305-.7-1.733-1.305l-1.778 1.111 1.12-2.036C82.071.764 80.672 0 79.135 0c-1.842 0-3.497 1.098-4.546 2.806-.314.51-.757.928-1.285 1.212-.528.283-1.121.422-1.72.402h-.089c-2.034 0-3.685 2.306-3.685 5.155s1.651 5.151 3.685 5.151c.448 0 .888-.11 1.283-.32.693-.337 1.45-.52 2.221-.534.77-.015 1.535.138 2.24.448.597.265 1.243.402 1.897.402.653 0 1.299-.137 1.896-.402.7-.304 1.457-.453 2.22-.438.762.014 1.513.194 2.2.524.393.204.828.31 1.27.312 2.037 0 3.686-2.305 3.686-5.151.007-1.093-.26-2.17-.775-3.135zM23.341 51.236c-1.52-.288-3.09-.117-4.512.49-.853.378-1.777.572-2.71.57-.934-.003-1.856-.202-2.708-.584-1.007-.442-2.099-.66-3.199-.638-1.1.022-2.182.283-3.171.764-.566.298-1.195.455-1.835.458-2.583 0-4.732-2.602-5.179-6.035.516-.376.955-.848 1.292-1.39 1.514-2.44 3.86-4.009 6.494-4.009s4.95 1.55 6.457 3.963c.452.731 1.087 1.333 1.841 1.746.754.414 1.603.625 2.463.613h.067c2.04-.002 3.82 1.647 4.7 4.052z" opacity=".1"/>
    <path fill="#4254AF" d="M31.196 40.461l-4.175 2.648 2.534-4.609c-.718-.573-1.607-.89-2.526-.901h-.067c-.29.004-.58-.017-.867-.065l-1.41.912.609-1.103c-1.003-.35-1.87-1.01-2.475-1.883l-2.534 1.614 1.595-2.932c-1.482-1.778-3.479-2.868-5.674-2.868-2.634 0-4.98 1.566-6.494 4.006-.449.732-1.084 1.332-1.84 1.74-.756.406-1.606.605-2.465.576h-.142C2.357 37.596 0 40.892 0 44.96c0 4.067 2.357 7.363 5.265 7.363.64-.002 1.27-.16 1.835-.46.989-.481 2.071-.742 3.171-.763 1.1-.021 2.192.197 3.2.639.85.382 1.773.581 2.707.584.933.002 1.857-.192 2.71-.57 1-.435 2.082-.648 3.172-.628 1.09.021 2.162.276 3.145.748.56.293 1.182.447 1.813.45 2.908 0 5.265-3.299 5.265-7.364.02-1.566-.354-3.113-1.087-4.498zM192.186 24.457c1.063-.202 2.163-.082 3.158.345.596.266 1.242.403 1.895.403s1.299-.137 1.895-.403c.706-.31 1.47-.462 2.24-.447.771.016 1.528.198 2.221.535.396.209.836.319 1.283.32 1.808 0 3.315-1.82 3.627-4.223-.361-.264-.668-.594-.904-.974-1.055-1.714-2.704-2.82-4.552-2.82-1.848 0-3.465 1.077-4.525 2.774-.316.512-.759.934-1.286 1.225-.527.29-1.12.44-1.722.435h-.046c-1.431-.003-2.679 1.151-3.284 2.83z" opacity=".1"/>
    <path fill="#4254AF" d="M186.675 16.924l2.922 1.849-1.776-3.229c.503-.4 1.125-.622 1.768-.63h.048c.203.003.405-.012.606-.045l.99.63-.426-.773c.705-.239 1.317-.694 1.749-1.299l1.773 1.125-1.122-2.037c1.039-1.246 2.421-2.01 3.974-2.01 1.842 0 3.497 1.098 4.546 2.806.314.51.757.929 1.285 1.213.528.283 1.121.422 1.72.401h.097c2.037 0 3.686 2.306 3.686 5.155s-1.649 5.152-3.686 5.152c-.447-.002-.887-.112-1.283-.32-.693-.338-1.451-.52-2.221-.535-.77-.015-1.535.138-2.24.449-.596.265-1.242.402-1.895.402s-1.299-.137-1.895-.402c-.7-.304-1.458-.454-2.221-.439-.763.015-1.514.194-2.202.525-.392.203-.828.31-1.27.312-2.034 0-3.685-2.306-3.685-5.152-.015-1.096.246-2.178.758-3.148zM156.584 209c17.087 0 30.938-2.409 30.938-5.38 0-2.972-13.851-5.381-30.938-5.381-17.086 0-30.938 2.409-30.938 5.381 0 2.971 13.852 5.38 30.938 5.38z" opacity=".1"/>
    <path fill="#D0D2D5" d="M140.389 178.062l-47.938-.616.143-1.229 2.316-20.282h42.1l3.096 20.282.237 1.538.046.307z"/>
    <path fill="#000" d="M140.343 177.755h-23.922l-23.97-.309.143-1.229h47.512l.237 1.538z" opacity=".1"/>
    <path fill="#D0D2D5" d="M148.072 176.526H84.461v1.536h63.611v-1.536z"/>
    <path fill="#3F3D56" d="M208.762 34.12c.003-1.06-.414-2.078-1.16-2.83-.747-.753-1.762-1.178-2.822-1.183H27.138c-.526.002-1.045.108-1.53.311-.484.204-.924.5-1.293.874-.37.373-.663.815-.861 1.301-.2.487-.3 1.007-.298 1.533v107.677h185.606V34.12z"/>
    <path fill="#D0D2D5" d="M23.156 140.727v12.612c0 1.056.42 2.068 1.166 2.815.747.747 1.76 1.166 2.816 1.166H204.78c1.056 0 2.069-.419 2.816-1.166.746-.747 1.166-1.759 1.166-2.815v-12.612H23.156z"/>
    <path fill="#fff" d="M202.003 36.86H30.842v96.797h171.161V36.859z"/>
    <path fill="#4254AF" d="M116.883 152.534c.628.001 1.249-.141 1.814-.416.565-.274 1.061-.674 1.449-1.168.118-.151.226-.309.323-.474l-2.279-.384 2.462.016c.236-.514.365-1.07.378-1.635.013-.564-.089-1.126-.3-1.65l-3.301 1.711 3.045-2.238c-.286-.492-.67-.919-1.128-1.256-.458-.337-.981-.576-1.535-.703-.555-.126-1.129-.137-1.688-.032-.559.105-1.091.324-1.562.643-.47.319-.871.731-1.175 1.211-.305.481-.508 1.018-.596 1.58-.088.562-.059 1.136.084 1.687.143.55.398 1.065.748 1.513.387.496.882.897 1.447 1.174.564.276 1.185.42 1.814.421z"/>
    <path fill="#000" d="M121.031 157.318l19.125 19.208-2.935-19.208h-16.19z" opacity=".1"/>
    <path fill="#444053" d="M202.054 36.87H30.707v5.655h171.347V36.87z" opacity=".1"/>
    <path fill="#4254AF" d="M141.669 37.855H90.355c-.086 0-.156.07-.156.156v3.128c0 .086.07.156.156.156h51.314c.086 0 .156-.07.156-.156V38.01c0-.086-.07-.155-.156-.155z" opacity=".3"/>
    <path fill="#3F3D56" d="M140.292 39.931h-.126l-.046-.04c.156-.188.242-.425.242-.67-.002-.2-.063-.397-.176-.563-.112-.166-.272-.295-.458-.37-.186-.076-.39-.095-.587-.055-.197.04-.378.138-.519.28-.141.144-.237.325-.275.522-.039.198-.018.402.06.587.078.185.208.343.376.455.167.11.364.17.565.17.245-.002.482-.088.67-.246l.045.04v.127l.789.788.234-.236-.794-.789zm-.944 0c-.141 0-.278-.04-.396-.118-.117-.078-.208-.189-.262-.318-.055-.13-.069-.273-.042-.41.027-.139.095-.266.194-.365.099-.1.226-.168.363-.195.138-.028.281-.014.411.04.13.053.241.144.319.261.079.117.12.255.12.395.001.093-.017.186-.052.272-.035.086-.087.165-.153.231s-.144.118-.23.154c-.087.036-.179.054-.272.053z"/>
    <path fill="#FA5959" d="M33.786 40.733c.572 0 1.035-.464 1.035-1.036 0-.572-.463-1.036-1.035-1.036-.572 0-1.036.464-1.036 1.036 0 .572.464 1.036 1.036 1.036z" opacity=".8"/>
    <path fill="#FED253" d="M36.635 40.733c.572 0 1.036-.464 1.036-1.036 0-.572-.464-1.036-1.036-1.036-.572 0-1.035.464-1.035 1.036 0 .572.463 1.036 1.035 1.036z" opacity=".8"/>
    <path fill="#8CCF4D" d="M39.487 40.733c.572 0 1.036-.464 1.036-1.036 0-.572-.464-1.036-1.036-1.036-.572 0-1.036.464-1.036 1.036 0 .572.464 1.036 1.036 1.036z" opacity=".8"/>
    <path fill="#4254AF" d="M125.489 78.394c-2.348-3.12-5.751-5.09-9.539-5.09-3.788 0-7.191 1.97-9.54 5.09.519 1.273 1.288 2.43 2.26 3.403 1.202 1.201 2.682 2.086 4.308 2.576 1.627.49 3.349.571 5.015.234 1.665-.337 3.221-1.08 4.529-2.165 1.308-1.084 2.327-2.474 2.967-4.048z"/>
    <path fill="#4254AF" d="M104.696 79.951c.148.107.306.198.474.27 1.802 3.645 5.536 6.435 9.822 6.669v17.284c-3.242-.193-5.838-1.826-8.02-4.374-.188.143-.328.272-.457.393-.181.171-.308.393-.364.636-.056.243-.039.497.049.731.118.321.149.668.089 1.006-.06.337-.209.652-.431.913s-.51.458-.833.571c-.323.113-.671.138-1.007.073-.337-.066-.649-.22-.907-.446-.257-.226-.449-.517-.557-.842-.108-.325-.127-.674-.056-1.009.071-.335.23-.645.46-.899.07-.076.145-.146.226-.209.047-.043.098-.08.154-.111.296-1.07.998-2.036 2.138-2.921-1.283-2.194-2.069-4.644-2.3-7.175-.166.001-.332.012-.497.032-.225.03-.437.121-.613.264-.176.142-.309.33-.386.543-.124.33-.336.62-.613.839-.278.218-.609.357-.96.4-.35.043-.706-.01-1.028-.154-.322-.145-.598-.374-.8-.665-.2-.29-.318-.63-.34-.982-.021-.352.054-.704.218-1.016.163-.313.41-.575.712-.758.302-.182.648-.279 1-.279.08.002.157.007.235.016.289-.208.61-.368.95-.473.664-.208 1.354-.32 2.05-.331.068-1.795.407-3.569 1.006-5.262-.435-.247-.845-.536-1.224-.861-.37-.33-.673-.729-.894-1.173-.116-.225-.294-.411-.513-.538-.169-.102-.323-.225-.458-.369-.239-.257-.403-.576-.475-.92-.071-.344-.047-.702.069-1.033.117-.332.322-.626.593-.85.271-.224.598-.37.946-.42.348-.052.703-.008 1.028.127.324.136.605.357.813.64.208.284.335.62.366.97.032.35-.033.702-.187 1.018.121.262.299.493.522.675zM127.163 79.951c-.147.107-.306.198-.473.27-1.803 3.645-5.537 6.435-9.822 6.669v17.284c3.241-.193 5.837-1.826 8.019-4.374.189.143.328.272.458.393.181.171.307.393.363.636.056.243.039.497-.049.731-.118.321-.149.668-.089 1.006.06.337.209.652.431.913s.51.458.833.571c.324.113.671.138 1.008.073.336-.066.649-.22.906-.446s.45-.517.557-.842c.108-.325.128-.674.057-1.009-.071-.335-.23-.645-.461-.899-.069-.076-.145-.146-.226-.209-.047-.043-.098-.08-.153-.111-.296-1.07-.998-2.036-2.139-2.921 1.284-2.194 2.069-4.644 2.3-7.175.167.001.333.012.498.032.224.03.436.121.612.264.176.142.31.33.386.543.124.33.336.62.614.839.277.218.609.357.959.4.351.043.706-.01 1.028-.154.322-.145.599-.374.8-.665.201-.29.318-.63.34-.982.022-.352-.053-.704-.217-1.016-.164-.313-.41-.575-.712-.758-.302-.182-.649-.279-1.002-.279-.078.002-.156.007-.234.016-.289-.208-.609-.368-.949-.473-.664-.208-1.355-.32-2.05-.331-.069-1.795-.408-3.569-1.006-5.262.434-.247.844-.536 1.224-.861.37-.33.673-.729.893-1.173.116-.225.295-.411.514-.538.168-.102.322-.225.457-.369.239-.257.403-.576.475-.92.072-.344.048-.702-.069-1.033-.116-.332-.321-.626-.592-.85-.271-.224-.599-.37-.946-.42-.348-.052-.704-.008-1.028.127-.325.136-.606.357-.814.64-.208.284-.334.62-.366.97-.031.35.033.702.187 1.018-.12.262-.299.493-.522.675z"/>
    <path fill="url(#prefix__paint0_linear)" d="M174.171 200.483c-.156-.248-.354-.467-.584-.649-1.175-1.111-1.721-2.741-2.012-4.339-.291-1.598-.374-3.228-.839-4.791-.253-.802-.57-1.582-.947-2.333-.269-.576-.608-1.703-1.101-2.106-.096-.084-.213-.14-.339-.164-.232-.495-.564-.936-.973-1.297-.77-.697-1.709-1.251-2.223-2.152-.141-.313-.315-.61-.519-.885-.347-.382-.896-.538-1.216-.942-.417-.522-.323-1.27-.269-1.934.054-.665 0-1.461-.576-1.811-.344-.212-.788-.191-1.146-.379-.538-.269-.75-.947-.739-1.552.01-.606.199-1.195.247-1.8.151-1.926-1.119-3.842-.629-5.709.185-.707.61-1.321.925-1.98.11-.219.2-.448.269-.683.839.333 1.722.545 2.62.632-1.482-3.325-1.105-7.188-1.797-10.761l.089-.121c.698-.921 1.095-2.036 1.135-3.191 0-1.329-.621-2.572-.901-3.874-.239-1.105-.229-2.262-.538-3.349-.215-.675-.5-1.326-.85-1.942-.335-.623-.688-1.235-1.057-1.838l-1.036-3.422c-.484-1.6-.982-3.228-1.924-4.611-.344-.506-.449-1.533-.979-1.84-.43-.223-.918-.308-1.399-.245-.748-.419-1.404-1.025-1.498-1.853-.01-.181.009-.363.054-.538h.091c1.184-.108 1.784-1.152 2.4-2.067.995-1.479.616-3.481 0-5.165-.153-.531-.43-1.019-.807-1.423-.864-.807-2.231-.629-3.344-1.02-.374-.129-.724-.325-1.106-.417-.74-.172-1.515.07-2.193.412-.678.342-1.31.783-2.02 1.052s-1.587.481-1.762 1.211c-.049.245-.029.499.059.734.164.468.451.882.831 1.2-.302.623-.466 1.305-.479 1.998-.013.693.124 1.38.402 2.015.278.635.69 1.202 1.208 1.661.518.46 1.13.802 1.794 1.003.204.328.395.662.57 1.003.312.603.576 1.313.468 1.959-.195.207-.374.427-.538.659-.772 1.076-1.211 2.338-1.614 3.597-.542 1.608-.976 3.25-1.299 4.915-.657 1.396-1.459 2.731-1.935 4.197-.852.001-1.701-.113-2.523-.339l-2.271-.514c-.791-.18-1.614-.374-2.233-.896-.328-.269-.583-.627-.917-.893-.334-.266-1.004-.578-1.369-.358-.067.041-.13.089-.186.143-.334-.675-.651-1.345-1.038-1.999-.557-.915-1.386-1.751-2.435-1.926-.641-.103-1.297.049-1.827.425-.613.436-.998 1.345-.538 1.958.115.137.24.264.374.382.311.359.59.745.831 1.154.868 1.218 2.165 2.06 3.63 2.357l-.095.269c-.191.56-.597 1.235-.495 1.816l10.1 3.457c.647.263 1.335.415 2.033.449.273-.002.544-.038.807-.107v.538c.027 3.548-.538 7.072-.643 10.618-.018.648 0 1.345.409 1.851.458.554 1.27.664 1.978.538.17-.029.337-.066.5-.113.239.893.412 1.802.517 2.72l.667 4.805c.086.492.121.991.105 1.49-.078 1.127-.673 2.136-1.103 3.177-.431 1.041-.686 2.287-.121 3.261.177.301.422.557.581.869.201.483.293 1.005.269 1.528.041 1.449.081 2.9.118 4.353-.117-.02-.238.004-.339.067-.559.436-.498 2.51-.538 3.153-.043 1.076 0 2.174-.059 3.26-.07 1.465-.306 2.917-.702 4.329-.097.459-.309.886-.616 1.24-.315.274-.69.469-1.095.568-1.341.42-2.742.611-4.146.565-.568-.019-1.159-.073-1.687.142-.527.216-.952.808-.761 1.346.164.452.662.667 1.111.836 1.026.362 2.017.817 2.959 1.362.363.247.745.463 1.144.648.381.137.776.234 1.178.29l4.77.824c.976.166 2.152.269 2.773-.538.337-.436.385-1.028.369-1.582-.027-1.076-.242-2.171-.102-3.247.106-.637.274-1.261.5-1.865.475-1.411.953-2.822 1.431-4.231.479-1.416.964-2.844 1.149-4.329.067-.538.062-1.152-.35-1.488-.104-.085-.225-.148-.355-.183-.016-1.296-.185-2.596-.113-3.893.019-.322.051-.645.078-.971.25.237.473.501.665.786.46.721.629 1.673 1.331 2.152.598.409 1.483.387 1.903.979.134.228.236.473.301.729.243.635.609 1.215 1.076 1.709.16.59.383 1.162.664 1.705l1.184 2.505c.404.898.853 1.775 1.345 2.628.376.537.679 1.122.901 1.738.38 1.329-.239 2.787-1.218 3.767-.979.979-2.271 1.541-3.543 2.066-.134.045-.257.118-.361.215-.11.13-.168.297-.164.468 0 .621.511 1.154 1.098 1.345.599.161 1.228.184 1.837.067 3.438-.417 6.866-1.256 9.906-2.927.454-.215.857-.526 1.181-.912.156-.194.257-.427.291-.673.035-.247.002-.499-.095-.728z"/>
    <path fill="#2F2E41" d="M159.64 140.154c.574.88 1.112 1.783 1.614 2.706.352.611.638 1.258.853 1.929.312 1.076.304 2.225.538 3.323.269 1.291.898 2.523.898 3.847-.041 1.146-.437 2.252-1.135 3.163-.695.904-1.491 1.725-2.373 2.448-2.031-5.262-3.166-10.828-3.357-16.467-.027-.78-.032-1.584.253-2.313.175-.457 1.014-1.711 1.555-1.219.196.18.247.993.368 1.265.227.459.49.9.786 1.318z"/>
    <path fill="#000" d="M159.64 140.154c.574.88 1.112 1.783 1.614 2.706.352.611.638 1.258.853 1.929.312 1.076.304 2.225.538 3.323.269 1.291.898 2.523.898 3.847-.041 1.146-.437 2.252-1.135 3.163-.695.904-1.491 1.725-2.373 2.448-2.031-5.262-3.166-10.828-3.357-16.467-.027-.78-.032-1.584.253-2.313.175-.457 1.014-1.711 1.555-1.219.196.18.247.993.368 1.265.227.459.49.9.786 1.318z" opacity=".1"/>
    <path fill="#D0D2D5" d="M88.713 103.451c-2.128 2.125-2.383 3.061-3.661 3.484-1.278.422-5.876 2.803-4.43 5.442l3.884 2.567.113.075.594 1.786-5.875 10.46s-9.685-4.428-10.635 2.122c-.95 6.551-.347 8.34-.602 11.838-.256 3.497.083 4.508-.77 4.508s-1.189-2.297-1.189-2.297-.054-.105-.148-.301c-1.267-2.634-9.868-21.969 3.91-35.259 0 0 6.38-.419 7.917-7.737 1.06-5.057 4.767-4.622 7.231-3.591.8.314 1.547.752 2.211 1.299.598.566 1.13 1.198 1.585 1.883.702 1.109 1.084 2.499-.135 3.721z"/>
    <path fill="#000" d="M84.618 115.019l.594 1.786-5.875 10.46s-9.685-4.428-10.635 2.123c-.95 6.55-.347 8.339-.602 11.837-.256 3.497.083 4.508-.77 4.508s-1.189-2.297-1.189-2.297-.054-.105-.148-.301c-.428-3.272-2.596-22.407 5.265-21.39 0 0 6.378 2.98 7.398 1.791.807-.941 4.39-6.357 5.849-8.579l.113.062zM88.847 99.714l-3.885 4.415s-4.511 6.037-5.448 5.781c-.28-.061-.566-.094-.852-.099-.313-.024-.612-.136-.863-.323-.252-.187-.445-.442-.557-.734-.113-.292-.14-.61-.08-.918.061-.307.208-.591.423-.818 1.54-1.614 4.375-4.678 4.56-5.359.186-.681 1.991-3.664 2.895-5.125.801.314 1.547.753 2.211 1.3.602.564 1.137 1.195 1.596 1.88z" opacity=".1"/>
    <path fill="#454B69" d="M198.76 163.228c-.659 1.318-4.035 6.263-5.512 8.423l-.691 1.017s-.269 1.787-4.679-.427c-4.409-2.215-108.008-45.928-108.008-45.928l-.702-2.11 5.111-7.653 113.548 43.87s1.786 1.105.933 2.808z"/>
    <path fill="#000" d="M193.248 171.651l-.691 1.017s-.269 1.787-4.679-.427c-4.409-2.215-108.008-45.928-108.008-45.928l-.702-2.11 114.08 47.448z" opacity=".1"/>
    <path fill="#FBBEBE" d="M130.758 143.097c-1.052-.172-2.219-.089-3.037.595-.495.418-.807 1.012-.872 1.657-.07.745.363 1.63 1.111 1.687.18.002.36-.01.538-.035.473-.002.944.037 1.41.118.916.086 1.84-.049 2.693-.393.853-.345 1.612-.889 2.211-1.587.643-.807-.204-1.157-.963-1.318-1.038-.221-2.052-.557-3.091-.724z"/>
    <path fill="#3F3D56" d="M148.752 167.393l.667 4.74c.085.489.119.986.102 1.482-.078 1.117-.672 2.117-1.1 3.151-.428 1.033-.689 2.27-.121 3.228.175.298.419.554.578.863.202.479.294.996.269 1.515l.183 6.726c2.077.141 4.161.13 6.236-.035.081.004.161-.021.226-.07.055-.07.083-.157.078-.245.092-1.574-.183-3.15-.094-4.724.032-.576.113-1.149.124-1.727.032-2.344-1.125-4.638-.775-6.955.11-.584.253-1.162.43-1.729 1.106-4.036.872-8.276.627-12.443.004-.067-.015-.133-.054-.188-.039-.04-.09-.067-.145-.078-1.177-.353-2.422-.418-3.629-.188-1.207.229-2.341.746-3.306 1.506-.294.237-1.033.465-1.227.748-.269.393.083.785.239 1.202.346 1.046.578 2.126.692 3.221z"/>
    <path fill="#000" d="M148.752 167.393l.667 4.74c.085.489.119.986.102 1.482-.078 1.117-.672 2.117-1.1 3.151-.428 1.033-.689 2.27-.121 3.228.175.298.419.554.578.863.202.479.294.996.269 1.515l.183 6.726c2.077.141 4.161.13 6.236-.035.081.004.161-.021.226-.07.055-.07.083-.157.078-.245.092-1.574-.183-3.15-.094-4.724.032-.576.113-1.149.124-1.727.032-2.344-1.125-4.638-.775-6.955.11-.584.253-1.162.43-1.729 1.106-4.036.872-8.276.627-12.443.004-.067-.015-.133-.054-.188-.039-.04-.09-.067-.145-.078-1.177-.353-2.422-.418-3.629-.188-1.207.229-2.341.746-3.306 1.506-.294.237-1.033.465-1.227.748-.269.393.083.785.239 1.202.346 1.046.578 2.126.692 3.221z" opacity=".1"/>
    <path fill="#3F3D56" d="M161.225 165.964c-.314.654-.737 1.262-.925 1.964-.49 1.854.777 3.766.627 5.666-.049.6-.234 1.183-.248 1.783-.013.6.207 1.267.74 1.544.358.183.807.165 1.143.374.568.347.633 1.136.576 1.798-.056.661-.15 1.401.269 1.918.32.401.869.557 1.213.936.205.272.38.566.52.877.514.898 1.452 1.447 2.222 2.152.769.705 1.42 1.738 1.076 2.715-.253.715-.963 1.156-1.646 1.493-1.247.616-2.563 1.081-3.92 1.385-.146.044-.3.052-.449.024-.152-.055-.287-.147-.393-.269-.794-.777-1.614-1.592-1.98-2.639-.065-.253-.167-.496-.302-.721-.419-.589-1.304-.567-1.902-.974-.699-.476-.869-1.42-1.326-2.133-.457-.713-1.127-1.138-1.614-1.765-.823-1.044-1.025-2.437-1.614-3.629-.25-.506-.57-.979-.77-1.507-.2-.632-.324-1.286-.368-1.947-.379-3.142-1.345-6.306-.737-9.416.134-.683.341-1.345.427-2.05.148-1.219-.086-2.467.095-3.683.004-.153.043-.302.113-.438.071-.136.171-.253.293-.345.145-.065.303-.097.463-.094 1.594-.085 3.193-.049 4.783.108.807.078 1.711.242 2.195.901.412.565.39 1.321.522 2.007.164.844.592 1.304 1.041 1.966.449.662.207 1.316-.124 1.999z"/>
    <path fill="#2F2E41" d="M155.021 187.825c.425 0 .896-.027 1.224.242.409.336.414.953.35 1.477-.189 1.474-.67 2.892-1.152 4.305l-1.431 4.199c-.226.599-.394 1.219-.5 1.851-.14 1.076.075 2.152.102 3.228 0 .538-.035 1.135-.371 1.569-.608.782-1.795.691-2.771.538l-4.765-.807c-.402-.054-.797-.15-1.178-.288-.398-.184-.78-.399-1.143-.643-.943-.539-1.934-.989-2.96-1.345-.446-.167-.947-.38-1.108-.829-.191-.538.234-1.13.761-1.345.528-.215 1.117-.162 1.687-.145 1.403.044 2.803-.145 4.143-.56.404-.099.778-.293 1.092-.565.32-.359.537-.796.63-1.267.406-1.402.648-2.847.721-4.304.056-1.077.019-2.153.062-3.229.027-.637-.035-2.69.524-3.128.428-.329 2.188.578 2.766.71 1.087.249 2.202.362 3.317.336zM170.715 190.817c.465 1.541.538 3.171.839 4.756.301 1.585.834 3.201 2.01 4.304.228.182.426.4.583.646.1.23.133.484.098.732-.036.248-.139.482-.299.675-.325.383-.728.692-1.181.907-3.038 1.657-6.457 2.493-9.903 2.908-.609.114-1.236.091-1.835-.067-.587-.2-1.106-.727-1.095-1.346-.006-.169.052-.335.161-.465.105-.096.229-.168.364-.213 1.269-.521 2.558-1.089 3.54-2.052.982-.963 1.598-2.421 1.219-3.729-.225-.612-.53-1.192-.907-1.724-.492-.846-.941-1.716-1.345-2.607l-1.184-2.483c-.347-.727-.697-1.475-.756-2.276 1.487.066 2.972-.172 4.364-.7.649-.265 1.255-.627 1.794-1.076.458-.382.875-1.095 1.491-.597.495.398.807 1.52 1.097 2.088.378.746.694 1.521.945 2.319z"/>
    <path fill="#FBBEBE" d="M153.37 129.159c.118 1.033 1.119 1.713 2.074 2.122l-6.045 1.929c.39-.748.076-1.662-.312-2.421-.315-.601-.675-1.177-1.076-1.724-.059-.084-.126-.189-.083-.286.038-.063.098-.11.169-.131 1.243-.555 2.524-1.128 3.882-1.329.393-.057 1.136-.213 1.429.185.293.398-.094 1.179-.038 1.655z"/>
    <path fill="#000" d="M153.37 129.159c.118 1.033 1.119 1.713 2.074 2.122l-6.045 1.929c.39-.748.076-1.662-.312-2.421-.315-.601-.675-1.177-1.076-1.724-.059-.084-.126-.189-.083-.286.038-.063.098-.11.169-.131 1.243-.555 2.524-1.128 3.882-1.329.393-.057 1.136-.213 1.429.185.293.398-.094 1.179-.038 1.655z" opacity=".1"/>
    <path fill="#FBBEBE" d="M149.855 129.996c2.618 0 4.741-2.123 4.741-4.741 0-2.618-2.123-4.74-4.741-4.74-2.617 0-4.74 2.122-4.74 4.74 0 2.618 2.123 4.741 4.74 4.741z"/>
    <path fill="#2F2E41" d="M145.747 164.264c.46.551 1.27.659 1.978.538 1.654-.269 3.007-1.488 4.627-1.926 1.985-.538 4.086.153 5.962 1.001 1.875.847 3.739 1.883 5.789 2.028-1.854-4.132-.794-9.104-2.566-13.271-.434-1.02-1.039-2.002-1.136-3.105-.121-1.369.562-2.69.667-4.051.097-1.213-.269-2.421-.618-3.578l-1.297-4.261c-.484-1.59-.982-3.207-1.921-4.574-.347-.503-.452-1.523-.979-1.827-1.152-.664-2.898.173-4.146.218-1.248.046-2.386.934-3.115 1.937-.772 1.06-1.211 2.322-1.614 3.57-.643 1.859-1.123 3.77-1.434 5.712-.041.29-.076.581-.102.874-.269 2.763.123 5.542.145 8.318v.019c.027 3.522-.538 7.022-.643 10.541-.011.642.005 1.345.403 1.837z"/>
    <path fill="#000" d="M145.994 151.87c.928-.234 1.767-.834 2.488-1.491.625-.558 1.179-1.191 1.652-1.883.595-.93 1.073-1.93 1.423-2.978.996-2.801 1.629-5.719 1.883-8.681.07-.807.092-1.674-.39-2.314-.27-.347-.65-.592-1.077-.695-.428-.104-.877-.06-1.277.125-.634.309-1.046.936-1.428 1.536-.756 1.189-1.517 2.394-2.004 3.718-.216.586-.374 1.189-.584 1.778-.214.581-.46 1.15-.737 1.703-.041.291-.076.581-.102.874-.251 2.763.131 5.532.153 8.308z" opacity=".1"/>
    <path fill="#2F2E41" d="M153.039 134.004c.481.64.46 1.515.392 2.311-.253 2.962-.886 5.88-1.883 8.681-.347 1.057-.825 2.065-1.423 3.003-.473.691-1.028 1.323-1.652 1.883-.914.834-2.028 1.579-3.268 1.59-.698-.033-1.386-.183-2.034-.444l-10.102-3.438c-.102-.576.304-1.249.495-1.803l.538-1.595c.153-.441.331-.917.732-1.157.401-.239 1.036.089 1.369.355.334.267.587.616.915.888.621.517 1.442.71 2.233.888l2.268.508c.822.225 1.671.339 2.523.337.632-1.932 1.835-3.632 2.515-5.548.21-.586.369-1.191.587-1.778.484-1.324 1.248-2.526 2.004-3.718.379-.597.791-1.224 1.429-1.536.4-.187.852-.232 1.281-.128.43.104.811.351 1.081.701zM151.367 126.326c-.036-.312-.133-.613-.286-.888-.079-.137-.2-.246-.345-.31-.145-.063-.307-.079-.462-.045-.473.148-.632.88-1.127.904-.334.016-.573-.323-.678-.64-.105-.318-.161-.681-.411-.904-.175-.13-.375-.222-.587-.269-1.149-.363-2.335-1.033-2.717-2.177-.09-.232-.111-.485-.062-.729.175-.723 1.076-.941 1.762-1.202.686-.261 1.345-.708 2.018-1.047.672-.339 1.453-.578 2.192-.406.376.118.745.256 1.106.412 1.114.387 2.478.207 3.341 1.011.378.399.654.882.807 1.41.603 1.673.985 3.659-.013 5.128-.616.906-1.213 1.942-2.397 2.052-1.377.116-1.924-1.132-2.141-2.3z"/>
    <g opacity=".1">
        <path fill="#000" d="M149.264 124.776c-.105-.317-.162-.68-.409-.904-.174-.13-.374-.222-.587-.269-1.151-.363-2.335-1.033-2.72-2.176-.087-.233-.108-.485-.059-.729.027-.115.075-.224.143-.32-.439.191-.821.444-.928.89-.05.244-.028.497.062.729.382 1.144 1.568 1.814 2.717 2.177.212.047.412.139.586.269.25.223.304.584.412.904.107.32.344.656.678.64.333-.016.495-.32.707-.576-.293-.037-.505-.339-.602-.635zM154.301 128.048c-1.382.126-1.929-1.133-2.152-2.292-.029-.311-.121-.613-.269-.888-.079-.137-.2-.246-.346-.309-.145-.064-.306-.08-.461-.046-.245.119-.452.305-.594.538.123.012.242.052.348.117.105.065.194.154.26.259.152.275.249.576.285.888.218 1.16.764 2.421 2.152 2.292.549-.06 1.055-.323 1.42-.737-.203.095-.42.155-.643.178z" opacity=".1"/>
    </g>
    <defs>
        <linearGradient id="prefix__paint0_linear" x1="152.886" x2="149.326" y1="206.166" y2="117.893" gradientUnits="userSpaceOnUse">
            <stop stop-color="gray" stop-opacity=".25"/>
            <stop offset=".54" stop-color="gray" stop-opacity=".12"/>
            <stop offset="1" stop-color="gray" stop-opacity=".1"/>
        </linearGradient>
    </defs>
</svg>
