<?xml version="1.0" encoding="UTF-8"?>
<svg width="249px" height="206px" viewBox="0 0 249 206" version="1.1" xmlns="http://www.w3.org/2000/svg" xmlns:xlink="http://www.w3.org/1999/xlink">
    <title>Group</title>
    <g id="1C_Client" stroke="none" stroke-width="1" fill="none" fill-rule="evenodd">
        <g id="1.7-Client_error_PageNotFound" transform="translate(-393.000000, -173.000000)">
            <g id="Group" transform="translate(393.000000, 173.000000)">
                <g id="Group-2" fill-rule="nonzero">
                    <path d="M134.037,182.671 C197.182,182.671 248.372,178.696 248.372,173.793 C248.372,168.89 197.182,164.915 134.037,164.915 C70.8909,164.915 19.70117,168.89 19.70117,173.793 C19.70117,178.696 70.8909,182.671 134.037,182.671 Z" id="Path" fill="#4254AF" opacity="0.1"></path>
                    <polygon id="Path" fill="#465161" points="157.389 174.062 109.4512 173.446 109.5938 172.217 111.9101 151.935 154.01 151.935 157.106 172.217 157.343 173.755"></polygon>
                    <polygon id="Path" fill="#858F9F" points="165.072 172.526 101.4609 172.526 101.4609 174.062 165.072 174.062"></polygon>
                    <path d="M225.762016,30.1204 C225.765,29.0604 225.348,28.0422 224.602,27.2897 C223.855,26.5371 222.84,26.1116 221.78,26.1066 L44.1379,26.1066 C43.6125,26.109 43.0928,26.215 42.6084,26.4183 C42.124,26.6216 41.6844,26.9183 41.3147,27.2916 C40.9449,27.6648 40.6523,28.1072 40.4536,28.5935 C40.2548,29.0798 40.1538,29.6005 40.1562547,30.1258 L40.1562547,137.803 L225.762016,137.803 L225.762016,30.1204 Z" id="Path" fill="#53667C"></path>
                    <path d="M40.1562,136.727 L40.1562,149.339 C40.1562,150.395 40.5757,151.407 41.3224,152.154 C42.0691,152.901 43.0818,153.32 44.1378,153.32 L221.78,153.32 C222.836,153.32 223.849,152.901 224.596,152.154 C225.342,151.407 225.762,150.395 225.762,149.339 L225.762,136.727 L40.1562,136.727 Z" id="Path" fill="#465161"></path>
                    <polygon id="Path" points="219.1612 33 48 33 48 129.7979 219.1612 129.7979"></polygon>
                    <path d="M133.883,148.534005 C134.511,148.535 135.132,148.393 135.697,148.118 C136.262,147.844 136.758,147.444 137.146,146.95 C137.264,146.799 137.372,146.641 137.469,146.476 L135.19,146.092 L137.652,146.108 C137.888,145.594 138.017,145.038 138.03,144.473 C138.043,143.909 137.941,143.347 137.73,142.823 L134.429,144.534 L137.474,142.296 C137.188,141.804 136.804,141.377 136.346,141.04 C135.888,140.703 135.365,140.464 134.811,140.337 C134.256,140.211 133.682,140.2 133.123,140.305 C132.564,140.41 132.032,140.629 131.561,140.948 C131.091,141.267 130.69,141.679 130.386,142.159 C130.081,142.64 129.878,143.177 129.79,143.739 C129.702,144.301 129.731,144.875 129.874,145.426 C130.017,145.976 130.272,146.491 130.622,146.939 C131.009,147.435 131.504,147.836 132.069,148.113 C132.633,148.389 133.254,148.533 133.883,148.534005 Z" id="Path" fill="#A2A8B0"></path>
                    <g id="Group-3" transform="translate(48.000000, 38.000000)" fill="#383838">
                        <path d="M0,0 L0,89.255108 C0,90.77107 1.3511387,92 3.01785276,92 L167.982147,92 C169.648861,92 171,90.77107 171,89.255108 L171,0 L0,0 Z" id="Path"></path>
                    </g>
                    <polygon id="Path" fill="#39383A" points="219.054 32.8698 47.707 32.8698 47.707 38.5247 219.054 38.5247"></polygon>
                    <path d="M50.7857,36.733 C51.3578,36.733 51.8215,36.2693 51.8215,35.6972 C51.8215,35.1252 51.3578,34.6615 50.7857,34.6615 C50.2137,34.6615 49.75,35.1252 49.75,35.6972 C49.75,36.2693 50.2137,36.733 50.7857,36.733 Z" id="Path" fill="#FA5959" opacity="0.8"></path>
                    <path d="M53.6354,36.733 C54.2074,36.733 54.6711,36.2693 54.6711,35.6972 C54.6711,35.1252 54.2074,34.6615 53.6354,34.6615 C53.0633,34.6615 52.5996,35.1252 52.5996,35.6972 C52.5996,36.2693 53.0633,36.733 53.6354,36.733 Z" id="Path" fill="#FED253" opacity="0.8"></path>
                    <path d="M56.4869,36.733 C57.0589,36.733 57.5227,36.2693 57.5227,35.6972 C57.5227,35.1252 57.0589,34.6615 56.4869,34.6615 C55.9149,34.6615 55.4512,35.1252 55.4512,35.6972 C55.4512,36.2693 55.9149,36.733 56.4869,36.733 Z" id="Path" fill="#8CCF4D" opacity="0.8"></path>
                    <path d="M84.1394,13.9651 C83.0758,13.7632 81.9761,13.8831 80.981,14.3094 C80.3841,14.5754 79.7379,14.7129 79.0844,14.7129 C78.4309,14.7129 77.7847,14.5754 77.1878,14.3094 C76.4822,14.0002 75.7179,13.8479 74.9478,13.8632 C74.1776,13.8786 73.42,14.0611 72.7273,14.3982 C72.3318,14.6071 71.8914,14.717 71.4441,14.7183 C69.6362,14.7183 68.1324,12.897 67.8203,10.4946 C68.1808,10.2304 68.4876,9.89989 68.7242,9.52077 C69.7842,7.81247 71.4145,6.71484 73.2681,6.71484 C75.1216,6.71484 76.7358,7.79094 77.7958,9.48849 C78.1124,9.99828 78.5549,10.418 79.0807,10.7073 C79.6066,10.9966 80.198,11.1457 80.7981,11.1403 L80.8465,11.1403 C82.2723,11.1322 83.5179,12.2863 84.1394,13.9651 Z" id="Path" fill="#4254AF" opacity="0.1"></path>
                    <path d="M89.6338,6.43238 L86.7122,8.28596 L88.4851,5.05767 C87.9824,4.65705 87.3604,4.43553 86.7176,4.42815 L86.6719,4.42815 C86.4692,4.43063 86.2666,4.41532 86.0666,4.38241 L85.0739,5.01193 L85.4989,4.23983 C84.7994,3.99638 84.1936,3.54014 83.7664,2.93506 L81.9882,4.04613 L83.1073,2.00961 C82.0716,0.76403 80.6726,-2.21156427e-13 79.1365,-2.21156427e-13 C77.2937,-2.21156427e-13 75.6392,1.09762 74.59,2.80593 C74.276,3.31619 73.8327,3.73429 73.3049,4.01779 C72.7771,4.30129 72.1837,4.44008 71.585,4.42008 L71.4962,4.42008 C69.4624,4.42008 67.8105,6.72562 67.8105,9.57459 C67.8105,12.4236 69.4624,14.7264 71.4962,14.7264 C71.9435,14.7251 72.3839,14.6152 72.7794,14.4063 C73.4721,14.0689 74.2299,13.8865 75.0002,13.8716 C75.7704,13.8567 76.5347,14.0098 77.2399,14.3202 C77.837,14.5854 78.4831,14.7224 79.1365,14.7224 C79.7899,14.7224 80.436,14.5854 81.0331,14.3202 C81.7329,14.0164 82.4898,13.8668 83.2525,13.8817 C84.0152,13.8965 84.7658,14.0755 85.4532,14.4063 C85.8457,14.6096 86.281,14.7166 86.723,14.7183 C88.7595,14.7183 90.4087422,12.4128 90.4087422,9.56652 C90.4158,8.47355 90.1494,7.39614 89.6338,6.43238 Z" id="Path" fill="#4254AF" opacity="0.1"></path>
                    <path d="M23.341,51.2358 C21.8219,50.9483 20.2516,51.1188 18.8295,51.7254 C17.9761,52.1037 17.0525,52.2981 16.119,52.295722 C15.1855,52.2934 14.2629,52.0945 13.4113,51.712 C12.4037,51.2702 11.3121,51.0527 10.2122,51.0745 C9.11219,51.0963 8.0301,51.357 7.04082,51.8384 C6.47503,52.1365 5.84557,52.2934 5.20607,52.295722 C2.62343,52.295722 0.473925,49.6943 0.0273438,46.2615 C0.543419,45.8855 0.981909,45.4132 1.31866,44.8707 C2.83327,42.4306 5.17917,40.8622 7.81292,40.8622 C10.4467,40.8622 12.763,42.4118 14.2695,44.8249 C14.7223,45.5563 15.3567,46.158 16.111,46.5715 C16.8653,46.9849 17.7138,47.196 18.5739,47.1843 L18.6412,47.1843 C20.6804,47.1816 22.4613,48.8307 23.341,51.2358 Z" id="Path" fill="#4254AF" opacity="0.1"></path>
                    <path d="M31.1961,40.4614 L27.0209,43.1086 L29.5551,38.5002 C28.8369,37.9269 27.9478,37.6097 27.0289,37.5989 L26.9617,37.5989 C26.6716,37.6032 26.3817,37.5816 26.0954,37.5344 L24.6857,38.4464 L25.2937,37.3434 C24.2905,36.9928 23.4241,36.3336 22.8187,35.4602 L20.2845,37.0743 L21.8798,34.142 C20.3975,32.3637 18.4013,31.2742 16.2061,31.2742 C13.5723,31.2742 11.2264,32.8399 9.7118,35.2799 C9.2632,36.0121 8.62846,36.6123 7.8723,37.0192 C7.11614,37.4261 6.2656,37.6252 5.4074,37.5963 L5.26482,37.5963 C2.35666,37.5963 -1.0658141e-14,40.8918 -1.0658141e-14,44.9595 C-1.0658141e-14,49.0271 2.35666,52.3227202 5.26482,52.3227202 C5.90473,52.321 6.53455,52.1631 7.09957,51.8626 C8.08904,51.3816 9.17123,51.1215 10.2712,51.1001 C11.3712,51.0787 12.4627,51.2967 13.4701,51.7389 C14.3216,52.1214 15.2442,52.3204 16.1777,52.3227202 C17.1113,52.325 18.0348,52.1307 18.8882,51.7523 C19.8882,51.3183 20.9699,51.1045 22.0598,51.1254 C23.1497,51.1463 24.2223,51.4014 25.2049,51.8734 C25.7646,52.1663 26.3865,52.3204 27.0182,52.3227202 C29.9263,52.3227202 32.283,49.0244 32.283,44.9595 C32.3033,43.3927 31.9295,41.846 31.1961,40.4614 Z" id="Path" fill="#4254AF" opacity="0.1"></path>
                    <path d="M192.186,24.4572 C193.249,24.2554 194.349,24.3753 195.344,24.8015 C195.94,25.0676 196.586,25.2051 197.239,25.2051 C197.892,25.2051 198.538,25.0676 199.134,24.8015 C199.84,24.4922 200.604,24.34 201.374,24.3553 C202.145,24.3707 202.902,24.5532 203.595,24.8903 C203.991,25.0989 204.431,25.2087 204.878,25.2104 C206.686,25.2104 208.193,23.3891 208.505,20.9867 C208.144,20.7232 207.837,20.3925 207.601,20.0129 C206.546,18.2992 204.897,17.1935 203.049,17.1935 C201.201,17.1935 199.584,18.2696 198.524,19.9671 C198.208,20.4792 197.765,20.901 197.238,21.1918 C196.711,21.4826 196.118,21.6325 195.516,21.627 L195.47,21.627 C194.039,21.6243 192.791,22.7784 192.186,24.4572 Z" id="Path" fill="#4254AF" opacity="0.1"></path>
                    <path d="M186.675,16.9243 L189.597,18.7725 L187.821,15.5442 C188.324,15.144 188.946,14.9225 189.589,14.9147 L189.637,14.9147 C189.84,14.917 190.042,14.9017 190.243,14.869 L191.233,15.4985 L190.807,14.7264 C191.512,14.487 192.124,14.0325 192.556,13.427 L194.329,14.5515 L193.207,12.515 C194.246,11.2694 195.628,10.5054 197.181,10.5054 C199.023,10.5054 200.678,11.603 201.727,13.3113 C202.041,13.8218 202.484,14.24 203.012,14.5235 C203.54,14.8071 204.133,14.9457 204.732,14.9254 L204.829,14.9254 C206.866,14.9254 208.515,17.231 208.515,20.08 C208.515,22.9289 206.866,25.2318 204.829,25.2318 C204.382,25.2298 203.942,25.12 203.546,24.9117 C202.853,24.5743 202.095,24.3918 201.325,24.377 C200.555,24.3621 199.79,24.5152 199.085,24.8256 C198.489,25.0907 197.843,25.2277 197.19,25.2277 C196.537,25.2277 195.891,25.0907 195.295,24.8256 C194.595,24.5217 193.837,24.3721 193.074,24.387 C192.311,24.4018 191.56,24.5808 190.872,24.9117 C190.48,25.1153 190.044,25.2223 189.602,25.2237 C187.568,25.2237 185.917,22.9182 185.917,20.0719 C185.902,18.9758 186.163,17.8935 186.675,16.9243 Z" id="Path" fill="#4254AF" opacity="0.1"></path>
                </g>
                <path d="M112.817383,96.5205078 L112.817383,94.4287109 L110.111328,93.9638672 L110.111328,90.9423828 L113.448242,90.9423828 L113.448242,88.3857422 L110.111328,88.3857422 L110.111328,72.3486328 L106.658203,72.3486328 L96,89.0996094 L96,90.9423828 L106.857422,90.9423828 L106.857422,93.9638672 L104.151367,94.4287109 L104.151367,96.5205078 L112.817383,96.5205078 Z M106.857422,88.3857422 L99.4863281,88.3857422 L106.425781,77.8603516 L106.757812,76.9804688 L106.857422,77.0136719 L106.857422,88.3857422 Z M124.37207,96.8691406 C126.751628,96.8691406 128.627604,96.0473633 130,94.4038086 C131.372396,92.7602539 132.058594,90.3945312 132.058594,87.3066406 L132.058594,87.3066406 L132.058594,81.5791016 C132.058594,78.5022786 131.366862,76.136556 129.983398,74.4819336 C128.599935,72.8273112 126.718424,72 124.338867,72 C121.970378,72 120.099935,72.8273112 118.727539,74.4819336 C117.355143,76.136556 116.668945,78.5022786 116.668945,81.5791016 L116.668945,81.5791016 L116.668945,87.3066406 C116.668945,90.3834635 117.360677,92.7464193 118.744141,94.3955078 C120.127604,96.0445964 122.003581,96.8691406 124.37207,96.8691406 Z M124.37207,94.3125 C122.944336,94.3125 121.848633,93.7784831 121.084961,92.7104492 C120.321289,91.6424154 119.939453,90.0625 119.939453,87.9707031 L119.939453,87.9707031 L119.939453,80.8818359 C119.939453,78.7900391 120.315755,77.2156576 121.068359,76.1586914 C121.820964,75.1017253 122.911133,74.5732422 124.338867,74.5732422 C125.788737,74.5732422 126.892741,75.1017253 127.650879,76.1586914 C128.409017,77.2156576 128.788086,78.7900391 128.788086,80.8818359 L128.788086,80.8818359 L128.788086,87.9707031 C128.788086,90.0735677 128.414551,91.65625 127.66748,92.71875 C126.92041,93.78125 125.82194,94.3125 124.37207,94.3125 Z M151.914062,96.5205078 L151.914062,94.4287109 L149.208008,93.9638672 L149.208008,90.9423828 L152.544922,90.9423828 L152.544922,88.3857422 L149.208008,88.3857422 L149.208008,72.3486328 L145.754883,72.3486328 L135.09668,89.0996094 L135.09668,90.9423828 L145.954102,90.9423828 L145.954102,93.9638672 L143.248047,94.4287109 L143.248047,96.5205078 L151.914062,96.5205078 Z M145.954102,88.3857422 L138.583008,88.3857422 L145.522461,77.8603516 L145.854492,76.9804688 L145.954102,77.0136719 L145.954102,88.3857422 Z" id="404" fill="#FFFFFF" fill-rule="nonzero" opacity="0.600000024"></path>
                <ellipse id="Oval" fill="#252630" cx="218" cy="202" rx="17" ry="4"></ellipse>
                <g id="Group-20" transform="translate(157.000000, 82.000000)" fill-rule="nonzero">
                    <g id="Group-19">
                        <path d="M77.1941059,32.4123229 C74.9029424,28.482061 70.3700575,28.2988948 70.3700575,28.2988948 C70.3700575,28.2988948 65.9530207,27.7254548 63.1195197,33.7112889 C60.4784695,39.2905795 56.8334843,44.6774989 62.532706,45.9835698 L63.5621513,42.7307264 L64.1996898,46.2257405 C65.0111257,46.2849908 65.8251924,46.2991153 66.6381752,46.2680496 C72.7415803,46.0679975 78.5541538,46.3265791 78.3669985,44.1030974 C78.118196,41.1472919 79.3986662,36.19402 77.1941059,32.4123229 Z" id="Path" fill="#2F2E41"></path>
                        <path d="M55.8026193,53.2840692 L53.768706,58.2926233 L43.5991395,67.4386788 C43.5991395,67.4386788 37.4973996,71.7939433 40.209284,73.1005226 C42.9211684,74.407102 45.4070624,68.3097317 45.4070624,68.3097317 L56.2546,61.9945982 L58.5145037,54.8084117 L55.8026193,53.2840692 Z" id="Path" fill="#FFB8B8"></path>
                        <polygon id="Path" fill="#FFB8B8" points="58.5145037 109.172958 60.5599583 114.284069 63.5145037 114.284069 61.0145037 108.284069"></polygon>
                        <polygon id="Path" fill="#FFB8B8" points="67.5145037 111.172958 69.5599583 116.284069 72.5145037 116.284069 70.0145037 110.284069"></polygon>
                        <path d="M66.7383259,112.284069 L70.5145037,111.404551 L65.6276854,91.8352717 L67.2502468,76.7777755 L67.2936462,76.773523 C67.2936462,76.773523 70.0702475,66.1093652 67.8489664,63.2509312 C65.6276854,60.3924971 54.52128,61.4918948 54.52128,61.4918948 C54.52128,61.4918948 50.300846,65.6696061 50.5229741,75.1244265 C50.7451022,84.5792468 50.5229741,92.7147899 52.0778708,96.4527421 C53.6327676,100.190694 58.0753297,110.085274 58.0753297,110.085274 L61.6293794,109.645515 L57.8532016,93.3744285 L57.2494396,79.2302042 C57.7299338,84.8982876 58.6970685,95.6461492 59.1859703,96.4527421 C59.8523546,97.5521398 66.7383259,112.284069 66.7383259,112.284069 Z" id="Path" fill="#2F2E41"></path>
                        <path d="M78.6144682,57.2840692 L80.2088988,62.8267989 L87.2699488,75.2425135 C87.2699488,75.2425135 93.4198955,80.563534 90.9143616,81.2286616 C88.4088278,81.8937892 84.5366391,76.3510594 84.5366391,76.3510594 L76.564486,65.4873092 L74.5145037,57.5057784 L78.6144682,57.2840692 Z" id="Path" fill="#FFB8B8"></path>
                        <circle id="Oval" fill="#FFB8B8" cx="70.0145037" cy="36.7840692" r="5.5"></circle>
                        <path d="M67.9739632,39.2840692 L66.6766659,43.4548009 L64.5145037,48.2840692 L72.5145037,44.9913862 C72.5145037,44.9913862 72.0820713,41.4791911 72.5145037,40.6011423 L67.9739632,39.2840692 Z" id="Path" fill="#FFB8B8"></path>
                        <path d="M76.5145037,48.5710624 L71.4279653,44.4245722 L65.6779653,46.8251718 L65.9032591,43.2840692 L59.7681949,45.2176016 L58.822196,45.5157451 L57.4952729,52.2810712 C57.4952729,52.2810712 56.6106576,52.9357802 55.7260422,56.6457978 C55.2153257,58.8259723 54.4740839,60.9472153 53.5145037,62.9746512 C53.5145037,62.9746512 63.0241191,59.2646337 67.6683499,64.2840692 C67.6683499,64.2840692 68.3318114,63.8475965 68.1106576,63.1928875 C67.8895037,62.5381786 70.1010422,59.2646337 70.1010422,59.2646337 C70.1010422,59.2646337 70.1010422,59.9193426 70.9856576,58.6099247 C71.8702729,57.3005067 72.5337345,57.0822704 72.5337345,57.0822704 L76.5145037,48.5710624 Z" id="Path" fill="#9392B5"></path>
                        <path d="M60.5145037,45.1251218 L59.6108003,44.3301819 C59.6108003,44.3301819 58.8593313,43.9963498 58.2386416,45.1251218 C57.617952,46.2538937 54.5145037,53.2522797 54.5145037,53.2522797 L58.2386416,55.2840692 L60.5145037,45.1251218 Z" id="Path" fill="#9392B5"></path>
                        <path d="M74.0951489,48.2840692 L77.2564392,48.4983549 C77.2564392,48.4983549 79.0628908,49.3554977 79.0628908,50.641212 C79.0628908,51.9269263 79.5145037,58.7840692 79.5145037,58.7840692 L74.5467618,60.2840692 L72.5145037,54.2840692 L74.0951489,48.2840692 Z" id="Path" fill="#9392B5"></path>
                        <path d="M59.9098152,114.284069 L56.2452112,115.780951 C56.2452112,115.780951 51.9339124,115.994791 52.5806072,118.133193 C53.227302,120.271595 59.6942503,118.774714 59.6942503,118.774714 C59.6942503,118.774714 65.5145037,118.988554 65.5145037,117.491672 C65.5145037,115.994791 64.6522439,114.284069 63.7899842,114.284069 L59.9098152,114.284069 Z" id="Path" fill="#2F2E41"></path>
                        <path d="M67.9098152,116.284069 L64.2452112,117.780951 C64.2452112,117.780951 59.9339124,117.994791 60.5806072,120.133193 C61.227302,122.271595 67.6942503,120.774714 67.6942503,120.774714 C67.6942503,120.774714 73.5145037,120.988554 73.5145037,119.491672 C73.5145037,117.994791 72.6522439,116.284069 71.7899842,116.284069 L67.9098152,116.284069 Z" id="Path" fill="#2F2E41"></path>
                        <polygon id="Path" fill="#2F2E41" points="76.3039003 31.768106 71.8827666 29.2840692 65.7776848 30.3002661 64.5145037 36.2840692 67.6588264 36.1545608 68.5372934 33.9559567 68.5372934 36.1183264 69.9882149 36.0584814 70.8301891 32.5584814 71.3564778 36.2840692 76.5145037 36.1711584"></polygon>
                        <path d="M45.3296808,6.38455589 C34.2010095,-3.05218047 17.625572,-1.89888649 7.8972488,8.98904815 C-1.83107439,19.8769828 -1.19369058,36.5615509 9.33665732,46.6679305 C19.8670052,56.7743101 36.4816439,56.6471712 46.8576176,46.3808116 L79.9147134,74.4114434 C80.592791,74.9865868 81.5247125,75.1544679 82.3593724,74.8518369 C83.1940324,74.5492059 83.8046005,73.8220489 83.9610427,72.9443254 C84.1174848,72.0666019 83.7960289,71.171686 83.1177848,70.596741 L50.060689,42.5661072 C58.019189,31.0877656 55.9688289,15.4071309 45.3296808,6.38455589 L45.3296808,6.38455589 Z M42.2851464,40.7195476 C37.0685666,47.0563368 28.6415242,49.548241 20.9335369,47.0332888 C13.2255496,44.5183367 7.75457379,37.491805 7.07171754,29.2301554 C6.38886129,20.9685057 10.6286015,13.0987289 17.8139534,9.29049035 C24.9993054,5.48225178 33.7152367,6.48551902 39.8975214,11.83247 C48.3392997,19.1336151 49.4082758,32.0667994 42.2851464,40.7195476 L42.2851464,40.7195476 Z" id="Shape" fill="#727272"></path>
                        <path d="M15.9127215,40.8726544 C7.802194,33.9838778 6.29742415,21.9853013 12.4527718,13.2840692 C12.0629173,13.6792334 11.6860355,14.0930891 11.3221264,14.5256362 C6.62376532,20.1291391 5.25260248,27.8299078 7.72518547,34.7268911 C10.1977685,41.6238744 16.1384151,46.6691504 23.3091512,47.962051 C30.4798874,49.2549516 37.7911975,46.5990346 42.4887478,40.9948433 C42.8518306,40.5617443 43.1937492,40.1181947 43.5145037,39.6641944 C36.0282179,47.2350876 24.0238948,47.7606603 15.9127215,40.8726544 L15.9127215,40.8726544 Z" id="Path" fill="#000000" opacity="0.3"></path>
                    </g>
                </g>
            </g>
        </g>
    </g>
</svg>