<svg xmlns="http://www.w3.org/2000/svg" xmlns:xlink="http://www.w3.org/1999/xlink" width="283" height="227" viewBox="0 0 283 227">
    <defs>
        <filter id="o75hfijrea" width="117.1%" height="130.2%" x="-8.6%" y="-9.2%" filterUnits="objectBoundingBox">
            <feMorphology in="SourceAlpha" operator="dilate" radius=".5" result="shadowSpreadOuter1"/>
            <feOffset dy="8" in="shadowSpreadOuter1" result="shadowOffsetOuter1"/>
            <feGaussianBlur in="shadowOffsetOuter1" result="shadowBlurOuter1" stdDeviation="5"/>
            <feColorMatrix in="shadowBlurOuter1" values="0 0 0 0 0 0 0 0 0 0 0 0 0 0 0 0 0 0 0.14 0"/>
        </filter>
        <filter id="c7qtpmrv3c">
            <feColorMatrix in="SourceGraphic" values="0 0 0 0 1.000000 0 0 0 0 1.000000 0 0 0 0 1.000000 0 0 0 1.000000 0"/>
        </filter>
        <rect id="e2jqcnq6jb" width="239.575" height="135.844" x="0" y="0" rx="4"/>
    </defs>
    <g fill="none" fill-rule="evenodd">
        <g>
            <g>
                <g>
                    <path fill="#465161" fill-rule="nonzero" d="M164 205L97 204.165 97.199 202.499 100.437 175 159.277 175 163.604 202.499 163.936 204.584z" transform="translate(-693 -303) translate(693 303)"/>
                    <path fill="#858F9F" fill-rule="nonzero" d="M174 204L85 204 85 206 174 206z" transform="translate(-693 -303) translate(693 303)"/>
                    <path fill="#53667C" fill-rule="nonzero" d="M259 5.606c.004-1.48-.578-2.903-1.619-3.954C256.34.602 254.923.007 253.443 0H5.556c-.733.003-1.458.151-2.134.435-.676.284-1.29.699-1.805 1.22C1.1 2.176.692 2.795.415 3.473.138 4.153-.003 4.88 0 5.613V156h259V5.606z" transform="translate(-693 -303) translate(693 303)"/>
                    <path fill="#465161" fill-rule="nonzero" d="M0 154v17.482c0 1.464.585 2.866 1.627 3.902C2.67 176.419 4.082 177 5.556 177h247.887c1.474 0 2.888-.58 3.93-1.616 1.04-1.036 1.627-2.438 1.627-3.902V154H0z" transform="translate(-693 -303) translate(693 303)"/>
                    <path fill-rule="nonzero" d="M250.097 9.703L11.331 9.703 11.331 144.738 250.097 144.738z" transform="translate(-693 -303) translate(693 303)"/>
                    <path fill="#A2A8B0" fill-rule="nonzero" d="M130.496 170c.834.001 1.658-.187 2.407-.551.75-.363 1.408-.894 1.923-1.548.156-.2.3-.41.428-.628l-3.023-.51 3.266.022c.313-.681.484-1.418.502-2.167.017-.747-.119-1.492-.398-2.186l-4.38 2.267 4.04-2.966c-.38-.652-.89-1.218-1.497-1.664-.607-.447-1.301-.764-2.036-.932-.737-.167-1.498-.182-2.24-.042-.742.139-1.447.429-2.072.852-.624.422-1.156.968-1.56 1.605-.404.637-.673 1.349-.79 2.093-.117.745-.078 1.506.112 2.236.19.729.528 1.412.992 2.005.513.658 1.17 1.189 1.92 1.556.748.366 1.572.557 2.406.558z" transform="translate(-693 -303) translate(693 303)"/>
                    <g transform="translate(-693 -303) translate(693 303) translate(11 9)">
                        <use fill="#000" filter="url(#o75hfijrea)" xlink:href="#e2jqcnq6jb"/>
                        <use fill="#373638" xlink:href="#e2jqcnq6jb"/>
                    </g>
                    <g opacity=".5">
                        <g filter="url(#c7qtpmrv3c)" transform="translate(-693 -303) translate(693 303) translate(94 40)">
                            <path fill="#000" fill-rule="nonzero" d="M58.583 15.417v43.166H15.417V15.417h43.166m3.392-6.167h-49.95c-1.533 0-2.775 1.242-2.775 2.775v49.95c.1 1.49 1.286 2.675 2.775 2.775h49.95c1.439-.206 2.57-1.336 2.775-2.775v-49.95c-.1-1.49-1.286-2.675-2.775-2.775zM33.917 21.583h18.5v6.167h-18.5v-6.167zm0 12.334h18.5v6.166h-18.5v-6.166zm0 12.333h18.5v6.167h-18.5V46.25zM21.583 21.583h6.167v6.167h-6.167v-6.167zm0 12.334h6.167v6.166h-6.167v-6.166zm0 12.333h6.167v6.167h-6.167V46.25z"/>
                            <path d="M0 0L74 0 74 74 0 74z"/>
                        </g>
                    </g>
                    <path fill="#FA5959" fill-rule="nonzero" d="M17.5 17c.828 0 1.5-.672 1.5-1.5s-.672-1.5-1.5-1.5-1.5.672-1.5 1.5.672 1.5 1.5 1.5z" opacity=".8" transform="translate(-693 -303) translate(693 303)"/>
                    <path fill="#FED253" fill-rule="nonzero" d="M21.5 17c.828 0 1.5-.672 1.5-1.5s-.672-1.5-1.5-1.5-1.5.672-1.5 1.5.672 1.5 1.5 1.5z" opacity=".8" transform="translate(-693 -303) translate(693 303)"/>
                    <path fill="#8CCF4D" fill-rule="nonzero" d="M25.5 17c.828 0 1.5-.672 1.5-1.5s-.672-1.5-1.5-1.5-1.5.672-1.5 1.5.672 1.5 1.5 1.5z" opacity=".8" transform="translate(-693 -303) translate(693 303)"/>
                </g>
                <g fill-rule="nonzero" transform="translate(-693 -303) translate(693 303) translate(230 61)">
                    <path fill="#F2F2F2" d="M15 26H16V30H15zM43 35H44V39H43zM40 138H41V142H40zM46 104H47V108H46z"/>
                    <path fill="#A0616A" d="M18 13.65s3.162 9.496 1.216 10.957C17.27 26.068 25.784 38 25.784 38L36 35.078l-5.595-9.984s-.73-9.984-.73-11.445c0-1.46-11.675 0-11.675 0z"/>
                    <path fill="#000" d="M18 13.65s3.162 9.496 1.216 10.957C17.27 26.068 25.784 38 25.784 38L36 35.078l-5.595-9.984s-.73-9.984-.73-11.445c0-1.46-11.675 0-11.675 0z" opacity=".1"/>
                    <path fill="#9EA0AC" d="M21 151v3.927S16.5 165.6 21 165.6s8 1.106 8-.366v-13.253L21 151z"/>
                    <path fill="#2F2E41" d="M11.432 78.951s-.972 11.783 0 17.91c.973 6.127 2.432 23.094 2.432 23.094s0 32.05 5.35 32.521c5.351.471 9.243.943 9.729-.943.486-1.885-2.432-2.827-.973-3.77 1.46-.943 1.946-4.242 0-8.012-1.945-3.77 0-41.947 0-41.947l9.242 24.037s.973 19.795 1.946 22.623c.972 2.828-.973 8.012 2.432 8.483 3.404.472 7.296-2.356 9.241-3.299 1.946-.942-2.918-.942-1.945-1.414.973-.471 3.891-1.885 2.918-2.356-.973-.472-1.945-23.095-1.945-23.095s-2.676-48.31-6.08-50.195c-3.405-1.885-5.594 1.362-5.594 1.362l-26.753 5.001z"/>
                    <path fill="#9EA0AC" d="M49 151v3.927s4.5 10.674 0 10.674-8 1.106-8-.366v-13.253l8-.982z"/>
                    <circle cx="24.5" cy="11.5" r="8.5" fill="#A0616A"/>
                    <path fill="#9392B5" d="M22.919 28s2.297 7.087 5.973 5.67l3.676-1.418L39 77.612s-5.054 7.56-12.405 2.834C19.243 75.722 22.919 28 22.919 28z"/>
                    <path fill="#9EA0AC" d="M29 26.51L31.077 22s12.23 5.934 14.077 7.833C47 31.732 47 34.58 47 34.58l-3.23 11.867s.922 26.11.922 27.059c0 .95 3.231 6.171.923 4.272-2.307-1.899-2.769-3.797-4.615-.95C39.154 79.678 35 83 35 83l-6-56.49z"/>
                    <path fill="#A0616A" d="M45.35 61l-1.425 13.323s-8.55 7.614-6.65 8.09c1.9.475 2.85-1.428 2.85-1.428s3.325 3.33 5.225 1.428C47.25 80.509 52 62.428 52 62.428L45.35 61z"/>
                    <path fill="#2F2E41" d="M25.05.029c-1.92-.068-3.975-.102-5.594.924-.745.514-1.399 1.148-1.934 1.875-1.577 1.976-2.94 4.461-2.354 6.912l.68-.263c0 .655-.146 1.3-.43 1.892.097-.276.417.17.331.45L15 14.254c1.232-.448 2.765.458 2.952 1.745.086-2.83.382-6.075 2.699-7.732 1.168-.835 2.647-1.09 4.07-1.317 1.312-.209 2.688-.408 3.945.02 1.257.428 2.328 1.702 2.043 2.988.58-.197 1.227.203 1.514.74.286.537.301 1.17.31 1.778.618.432 1.321-.427 1.573-1.134.59-1.659 1.116-3.425.798-5.156-.319-1.732-1.742-3.386-3.518-3.392.215-.235.33-.543.32-.86l-1.463-.123c.371-.052.713-.23.966-.505-.587.641-5.208-1.244-6.158-1.278z"/>
                    <path fill="#9EA0AC" d="M24.897 24.533S20.95 20.78 19.53 21.01c-1.42.23-3.36 3.523-3.36 3.523s-11.64 3.763-11.154 7.526c.485 3.763 5.819 22.107 5.819 22.107s4.364 22.108.485 24.46c-3.88 2.352 18.428 8.467 18.913 5.645.485-2.823 1.454-31.045 0-35.279-1.455-4.233-5.335-24.46-5.335-24.46zM41 33h6.113s4.27 17.538 4.763 19.385C52.371 54.23 53.36 63 52.866 63c-.495 0-10.383-1.846-10.383-.462L41 33z"/>
                    <path fill="#F2F2F2" d="M41 77H18.7c-2.175-10.037-2.357-19.735 0-29H41c-3.599 9.099-3.823 18.73 0 29z" opacity=".5"/>
                    <path fill="#A0616A" d="M9 64.987l6.83 2.695S29 69.478 29 64.538s-13.17-2.246-13.17-2.246L11.438 61 9 64.987z"/>
                    <path fill="#9EA0AC" d="M10.204 29L4.61 30.425.416 55.6s-1.398 6.65.932 7.125C3.678 63.2 10.204 67 10.204 67s.932-7.125 2.796-7.125l-4.66-3.8 2.796-16.625L10.204 29z"/>
                </g>
            </g>
        </g>
    </g>
</svg>
