<?xml version="1.0" encoding="UTF-8"?>
<svg width="146px" height="40px" viewBox="0 0 146 40" version="1.1" xmlns="http://www.w3.org/2000/svg" xmlns:xlink="http://www.w3.org/1999/xlink">
    <title>PoweredByIntertekAlchemy-Logo</title>
    <g id="Desktop" stroke="none" stroke-width="1" fill="none" fill-rule="evenodd">
        <g id="9.1.-Signup-empty" transform="translate(-647.000000, -906.000000)" fill-rule="nonzero">
            <g id="PoweredByIntertekAlchemy-Logo" transform="translate(647.000000, 906.000000)">
                <g id="Group" transform="translate(37.781344, 0.000000)" fill="#FFFFFF">
                    <path d="M2.83945838,11.4061585 C2.25077232,11.4061585 1.34431294,11.3153661 0.739518556,11.1791775 L0.739518556,13.9747041 C0.739518556,14.1255366 0.634082247,14.2617252 0.483249749,14.2617252 L0.332417252,14.2617252 C0.181584754,14.2617252 0.0761484453,14.1255366 0.0761484453,13.9747041 L0.0761484453,3.70052156 C0.0761484453,3.51893681 0.121544634,3.45889669 0.303129388,3.4135005 C0.967963892,3.27731194 1.97985958,3.12647944 2.84092277,3.12647944 C4.92621866,3.12647944 5.80192578,4.62162487 5.80192578,6.79771314 L5.80192578,7.79496489 C5.80046138,10.1833902 4.80320963,11.4061585 2.83945838,11.4061585 Z M5.13562688,6.79771314 C5.13562688,4.84860582 4.5308325,3.7151655 2.83945838,3.7151655 C2.11458375,3.7151655 1.28280843,3.82060181 0.739518556,3.91139418 L0.739518556,10.6197793 C1.31356068,10.741324 2.25077232,10.816008 2.83945838,10.816008 C4.50154463,10.816008 5.13562688,9.78800401 5.13562688,7.7935005 L5.13562688,6.79771314 Z" id="Shape"></path>
                    <path d="M10.5743831,11.4061585 C8.50373119,11.4061585 7.46108325,10.0764895 7.46108325,7.79496489 L7.46108325,6.73767302 C7.46108325,4.45614845 8.50373119,3.12647944 10.5743831,3.12647944 C12.6450351,3.12647944 13.6862202,4.45614845 13.6862202,6.73767302 L13.6862202,7.79496489 C13.687683,10.0764895 12.6450351,11.4061585 10.5743831,11.4061585 Z M13.0228485,6.73767302 C13.0228485,4.87935807 12.3433701,3.7151655 10.5758475,3.7151655 C8.80832497,3.7151655 8.12738215,4.87789368 8.12738215,6.73767302 L8.12738215,7.79496489 C8.12738215,9.65327984 8.80686058,10.8174724 10.5758475,10.8174724 C12.3433701,10.8174724 13.0228485,9.65474423 13.0228485,7.79496489 L13.0228485,6.73767302 Z" id="Shape"></path>
                    <path d="M23.1608425,10.5904915 C23.024654,11.1645336 22.8430692,11.4061585 22.3744634,11.4061585 C21.8912136,11.4061585 21.7550251,11.1044935 21.6041926,10.5450953 L20.0021464,4.80320963 C19.9567503,4.68166499 19.9421063,4.66702106 19.8967101,4.66702106 C19.8513139,4.66702106 19.83667,4.68166499 19.7912738,4.80320963 L18.1892277,10.5450953 C18.0383952,11.1044935 17.9022066,11.4061585 17.4189569,11.4061585 C16.9503511,11.4061585 16.7687663,11.1645336 16.6325777,10.5904915 L14.9704915,3.564333 C14.9250953,3.38274824 14.9704915,3.20116349 15.2428686,3.20116349 L15.333661,3.20116349 C15.5152457,3.20116349 15.5445336,3.3065998 15.5752859,3.41203611 L17.2066199,10.4381946 C17.2974122,10.8013641 17.3281645,10.816008 17.4174925,10.816008 C17.4936409,10.816008 17.5229288,10.7706118 17.6137212,10.4528385 L19.2450552,4.62016048 C19.3504915,4.22770311 19.6082247,4.07687061 19.8952457,4.07687061 C20.1822668,4.07687061 20.4385356,4.22770311 20.5454363,4.62016048 L22.1767703,10.4528385 C22.2675627,10.7706118 22.3129589,10.816008 22.372999,10.816008 C22.4330391,10.816008 22.4945436,10.816008 22.5838716,10.4381946 L24.2152056,3.41203611 C24.2459579,3.3065998 24.2913541,3.20116349 24.4568305,3.20116349 L24.5476229,3.20116349 C24.8346439,3.20116349 24.8800401,3.33735206 24.82,3.564333 L23.1608425,10.5904915 Z" id="Path"></path>
                    <path d="M32.0292076,7.41715145 L26.9214042,7.41715145 L26.9214042,7.73492477 C26.9214042,10.2727182 28.1456369,10.8174724 29.6568907,10.8174724 C30.3217252,10.8174724 31.1520361,10.7120361 31.8930191,10.5612036 C32.0438516,10.5304514 32.2107924,10.5612036 32.2107924,10.7574323 L32.2107924,10.8628686 C32.2107924,11.0298094 32.1507523,11.1044935 31.9237713,11.1498897 C31.1988967,11.3007222 30.3378335,11.4061585 29.6568907,11.4061585 C27.7839318,11.4061585 26.2565697,10.5904915 26.2565697,7.73492477 L26.2565697,6.73767302 C26.2565697,4.65237713 27.3138616,3.12647944 29.3083651,3.12647944 C31.393661,3.12647944 32.314776,4.57769308 32.314776,6.72302909 L32.314776,7.13159478 C32.3162287,7.29707121 32.1800401,7.41715145 32.0292076,7.41715145 Z M31.6513942,6.72302909 C31.6513942,4.81931795 31.0173119,3.71662989 29.3098295,3.71662989 C27.6330993,3.71662989 26.9228686,4.94086259 26.9228686,6.73913741 L26.9228686,6.81528586 L31.6513942,6.81528586 L31.6513942,6.72302909 Z" id="Shape"></path>
                    <path d="M36.9700702,3.71662989 C36.3960281,3.71662989 35.7619458,3.85281846 34.8701304,4.41221665 L34.8701304,11.0298094 C34.8701304,11.1806419 34.7339418,11.3168305 34.5831093,11.3168305 L34.492317,11.3168305 C34.3414845,11.3168305 34.2052959,11.1806419 34.2052959,11.0298094 L34.2052959,3.50429288 C34.2052959,3.33881645 34.3107322,3.20262788 34.477673,3.20262788 L34.5992177,3.20262788 C34.7646941,3.20262788 34.8715948,3.33881645 34.8715948,3.50429288 L34.8715948,3.8220662 C35.6418656,3.32417252 36.232016,3.12647944 36.9715346,3.12647944 C37.2131595,3.12647944 37.3801003,3.17187563 37.3801003,3.35346038 L37.3801003,3.47500502 C37.3786359,3.6712337 37.2116951,3.71662989 36.9700702,3.71662989 Z" id="Path"></path>
                    <path d="M43.9654764,7.41715145 L38.857673,7.41715145 L38.857673,7.73492477 C38.857673,10.2727182 40.0819057,10.8174724 41.5931595,10.8174724 C42.257994,10.8174724 43.0883049,10.7120361 43.8292879,10.5612036 C43.9801204,10.5304514 44.1470612,10.5612036 44.1470612,10.7574323 L44.1470612,10.8628686 C44.1470612,11.0298094 44.0870211,11.1044935 43.8600401,11.1498897 C43.1351655,11.3007222 42.2741023,11.4061585 41.5931595,11.4061585 C39.7202006,11.4061585 38.1928385,10.5904915 38.1928385,7.73492477 L38.1928385,6.73767302 C38.1928385,4.65237713 39.2501304,3.12647944 41.2446339,3.12647944 C43.3299298,3.12647944 44.2510448,4.57769308 44.2510448,6.72302909 L44.2510448,7.13159478 C44.2524975,7.29707121 44.1163089,7.41715145 43.9654764,7.41715145 Z M43.587663,6.72302909 C43.587663,4.81931795 42.9535807,3.71662989 41.2460983,3.71662989 C39.5693681,3.71662989 38.8591374,4.94086259 38.8591374,6.73913741 L38.8591374,6.81528586 L43.587663,6.81528586 L43.587663,6.72302909 Z" id="Shape"></path>
                    <path d="M51.4133801,11.1191374 C50.7485456,11.255326 49.7366499,11.4061585 48.8755868,11.4061585 C46.7902909,11.4061585 45.9145838,9.91101304 45.9145838,7.73492477 L45.9145838,6.73767302 C45.9145838,4.35071214 46.9118355,3.12647944 48.8755868,3.12647944 C49.4642728,3.12647944 50.3707322,3.21727182 50.9755266,3.35346038 L50.9755266,0.376349047 C50.9755266,0.22551655 51.0809629,0.089327984 51.2317954,0.089327984 L51.3826279,0.089327984 C51.5334604,0.089327984 51.6389307,0.22551655 51.6389307,0.376349047 L51.6389307,10.8321163 C51.6403611,11.0137011 51.5949649,11.0737412 51.4133801,11.1191374 Z M50.9755266,3.91285858 C50.4014845,3.79131394 49.4642728,3.71662989 48.8755868,3.71662989 C47.2135005,3.71662989 46.5794183,4.7446339 46.5794183,6.73913741 L46.5794183,7.73638917 C46.5794183,9.68549649 47.1842126,10.8189368 48.8755868,10.8189368 C49.6004614,10.8189368 50.4322367,10.7135005 50.9755266,10.6227081 L50.9755266,3.91285858 Z" id="Shape"></path>
                    <path d="M59.7692076,11.4061585 C58.9081444,11.4061585 57.8962487,11.255326 57.2314142,11.1191374 C57.0498295,11.0737412 57.0044333,11.0137011 57.0044333,10.8321163 L57.0044333,0.376349047 C57.0044333,0.22551655 57.1098696,0.089327984 57.2607021,0.089327984 L57.4115346,0.089327984 C57.5623671,0.089327984 57.6678034,0.22551655 57.6678034,0.376349047 L57.6678034,3.35346038 C58.2725978,3.21727182 59.1790572,3.12647944 59.7677432,3.12647944 C61.7314945,3.12647944 62.7287481,4.35071214 62.7287481,6.73767302 L62.7287481,7.73492477 C62.7302106,9.91101304 61.8545035,11.4061585 59.7692076,11.4061585 Z M62.0653761,6.73767302 C62.0653761,4.74316951 61.4312939,3.7151655 59.7692076,3.7151655 C59.1805216,3.7151655 58.2433099,3.79131394 57.6692678,3.91139418 L57.6692678,10.6197793 C58.2125577,10.7105717 59.044333,10.816008 59.7692076,10.816008 C61.4620461,10.816008 62.0653761,9.6825677 62.0653761,7.73346038 L62.0653761,6.73767302 Z" id="Shape"></path>
                    <path d="M67.8219057,12.1617854 C67.3532999,13.7784754 66.7792578,14.2617252 65.3749047,14.2617252 C65.0278435,14.2617252 64.7100702,14.216329 64.4376931,14.1709328 C64.2561083,14.1401805 64.1360281,14.1108927 64.1360281,13.9600602 L64.1360281,13.7945838 C64.1360281,13.612999 64.2121765,13.5529589 64.4538014,13.5822467 C64.6807823,13.612999 65.1947844,13.6730391 65.4364092,13.6730391 C66.5244534,13.6730391 66.8715145,13.3406219 67.2346841,12.0255968 L67.4309127,11.3153661 L67.2200401,11.3153661 C66.7514343,11.3153661 66.5098094,11.1938215 66.2989368,10.4689468 L64.2590371,3.564333 C64.198997,3.36810431 64.2590371,3.20116349 64.500662,3.20116349 L64.6368506,3.20116349 C64.802327,3.20116349 64.8477232,3.3065998 64.8784754,3.41203611 L66.9183751,10.3620461 C67.0091675,10.6798195 67.1453561,10.6944634 67.2654363,10.6944634 L67.6124975,10.6944634 L69.6831494,3.39592778 C69.7139017,3.29049147 69.7592979,3.1996991 69.9555266,3.1996991 L70.0917151,3.1996991 C70.33334,3.1996991 70.3640923,3.38128385 70.3025878,3.57751254 L67.8219057,12.1617854 Z" id="Path"></path>
                </g>
                <g id="Group" transform="translate(0.000000, 19.183551)">
                    <g id="Path">
                        <path d="M1.15540622,2.33570712 C1.77777332,2.33570712 2.27859579,1.83195587 2.27859579,1.21105316 C2.27859579,0.590150451 1.77630893,0.0849348044 1.15540622,0.0849348044 C0.534503511,0.0849348044 0.0307490721,0.588686058 0.0307490721,1.21105316 C0.0292878636,1.83342026 0.533039117,2.33570712 1.15540622,2.33570712" fill="#FFC700"></path>
                        <path d="M38.8884253,3.75177533 L38.8869609,3.75616851 L38.8884253,3.75177533 C37.2087663,3.75177533 35.6301505,4.50593781 34.5538215,5.8194985 C33.7249749,6.82992979 33.2695486,8.10102307 33.2724634,9.39261785 L33.2724634,13.6891474 C33.2724634,14.3539819 33.7410832,14.819659 34.4132397,14.819659 C35.0897894,14.819659 35.5481444,14.3656971 35.5481444,13.6891474 L35.5481444,9.34282849 C35.554002,8.57841525 35.8205216,7.83450351 36.3023069,7.24874624 C36.9363892,6.47261785 37.8823872,6.02597793 38.8913541,6.02597793 L38.8913541,6.02451354 L38.9264995,6.02451354 C39.1974122,6.02451354 39.4624674,5.93079238 39.6704112,5.76092277 C39.9017854,5.57055165 40.0511535,5.31135406 40.0862989,5.02726179 C40.1258375,4.72559679 40.0350451,4.43271815 39.8285657,4.17937813 C39.5386158,3.82645938 39.159338,3.75177533 38.8884253,3.75177533" fill="#FFFFFF"></path>
                        <path d="M8.5461986,3.50575727 C5.67745236,3.50575727 3.67416249,5.42118355 3.67416249,8.16252758 L3.67416249,11.8732999 L3.67562688,11.9025878 C3.65951856,12.2774724 3.35199599,12.5703511 2.98004012,12.5703511 C2.61247743,12.5703511 2.31081244,12.2847944 2.28298897,11.9274824 L2.27859579,11.9274824 L2.27859579,4.52790371 C2.27859579,3.86306921 1.81438315,3.39739218 1.15101304,3.39739218 C0.486178536,3.39739218 0.0219658977,3.86306921 0.0219658977,4.52790371 L0.0219658977,11.8732999 C0.0219658977,13.5017051 1.34724173,14.8284453 2.97271815,14.8284453 C4.53961886,14.8284453 5.83707121,13.6042126 5.92200602,12.0358475 C5.92932798,11.9831294 5.93518556,11.9289468 5.93518556,11.8747643 L5.93518556,8.29578736 C5.93518556,6.73327984 6.98515547,5.68330993 8.54912738,5.68330993 C10.1116349,5.68330993 11.1616048,6.73327984 11.1616048,8.29578736 L11.1616048,13.6920762 C11.1616048,14.3569107 11.6272818,14.8225878 12.2921163,14.8225878 C12.9569509,14.8225878 13.4211635,14.3569107 13.4211635,13.6920762 L13.4211635,8.16399198 C13.4182347,5.42118355 11.4134804,3.50575727 8.5461986,3.50575727" fill="#FFFFFF"></path>
                        <path d="M20.2979539,12.5703511 C19.58333,12.5674223 18.8350251,12.2730792 18.1921565,11.7458977 C17.4087061,11.1044935 16.9562086,10.1497091 16.9635306,9.13049147 L16.9635306,6.01865597 L19.2377332,6.01865597 C19.843992,6.01865597 20.3330993,5.53101304 20.3330993,4.92475426 C20.3330993,4.31703109 19.8395988,3.82645938 19.2362688,3.82645938 L16.9635306,3.82645938 L16.9635306,1.21544634 C16.9635306,0.550611836 16.491996,0.0863991976 15.8271615,0.0863991976 C15.1608626,0.0863991976 14.6951856,0.550611836 14.6951856,1.21544634 L14.6951856,9.13342026 C14.6981143,10.8262588 15.4390973,12.4121966 16.7614443,13.4943831 C17.7967703,14.3437312 18.9668205,14.7757272 20.234985,14.7757272 L20.2481645,14.7757272 C20.912999,14.7757272 21.3772116,14.3071214 21.3772116,13.6349649 C21.3772116,12.9994183 20.94668,12.5732798 20.2979539,12.5703511" fill="#FFFFFF"></path>
                        <path d="M68.7664393,12.7504714 L64.4201204,8.40268806 L67.7267202,5.57055165 C67.9610231,5.35675025 68.1191775,4.99943831 68.1191775,4.68459378 C68.1191775,4.01975928 67.6549649,3.55554664 66.9901304,3.55554664 C66.6635707,3.55554664 66.3091876,3.70198596 66.0397392,3.94946841 L61.9496891,7.45376128 L61.9496891,1.21398195 C61.9496891,0.547683049 61.4854764,0.0834704112 60.8206419,0.0834704112 C60.1558074,0.0834704112 59.6901304,0.547683049 59.6901304,1.21398195 L59.6901304,13.702327 C59.6901304,14.3671615 60.154343,14.8313741 60.8206419,14.8313741 C61.484012,14.8313741 61.9496891,14.3671615 61.9496891,13.702327 L61.9496891,10.6432096 C61.9511535,10.4865196 62.0185155,10.3283651 62.1444534,10.2156068 C62.3846138,10.0018054 62.7404614,10.0325577 62.9659779,10.2639318 L67.1482849,14.4403811 C67.3606219,14.6761484 67.715005,14.8328385 68.0342427,14.8328385 C68.6976128,14.8328385 69.1618255,14.3686259 69.1618255,13.7037914 C69.1603611,13.3772317 69.0124574,13.0213842 68.7664393,12.7504714" fill="#FFFFFF"></path>
                        <path d="M46.4154062,12.5703511 C45.699318,12.5674223 44.9524774,12.2730792 44.3081444,11.7458977 C43.5246941,11.1044935 43.0721966,10.1497091 43.0795186,9.13049147 L43.0795186,6.01865597 L45.349328,6.01865597 C45.9585155,6.01865597 46.3978335,5.55883651 46.3978335,4.92182548 C46.3978335,4.28774323 45.9585155,3.82645938 45.349328,3.82645938 L43.0795186,3.82645938 L43.0795186,1.21544634 C43.0795186,0.550611836 42.607984,0.0863991976 41.9416851,0.0863991976 C41.2783149,0.0863991976 40.8111735,0.550611836 40.8111735,1.21544634 L40.8111735,9.13342026 C40.8126379,10.8262588 41.5536209,12.4121966 42.8759679,13.4943831 C43.9142227,14.3437312 45.0842728,14.7757272 46.3509729,14.7757272 L46.3626881,14.7757272 C47.0275226,14.7757272 47.4946677,14.3071214 47.4946677,13.6349649 C47.4961284,12.9994183 47.0641324,12.5732798 46.4154062,12.5703511" fill="#FFFFFF"></path>
                        <path d="M56.4728586,4.83689067 C55.4477834,3.99925777 54.2191575,3.55554664 52.9187763,3.55554664 C51.2420461,3.55554664 49.6648947,4.30824473 48.5871013,5.62180542 C46.5955266,8.05416249 46.939659,11.515988 49.3705517,13.5075627 C50.3853761,14.3378736 51.6593982,14.7962287 52.9583149,14.7962287 C53.238014,14.7962287 53.5177131,14.7757272 53.7944835,14.7347242 C54.0024273,14.7025075 54.2982347,14.6058576 54.5281444,14.3246941 C54.9147442,13.8516951 54.8415246,13.1238917 54.36999,12.7358275 C54.191334,12.5908526 53.9702106,12.5161685 53.7124774,12.5161685 C53.6421866,12.5161685 53.5704313,12.5234905 53.4972116,12.5337412 C53.334664,12.5601003 53.1662588,12.5703511 52.9963892,12.5703511 C51.0165296,12.5703511 49.5184554,11.0459178 49.5184554,9.17149448 C49.5184554,7.29414243 51.0384955,5.77410231 52.9143831,5.77410231 C54.4432096,5.77410231 55.7362688,6.78306921 56.1624072,8.17131394 L52.9085256,8.17131394 C52.3505918,8.17131394 51.8980943,8.62381143 51.8980943,9.18467402 C51.8980943,9.74407222 52.3344835,10.1951053 52.8924173,10.1951053 L57.2196991,10.1951053 C57.6883049,10.1951053 58.0734403,9.99741224 58.2901705,9.73235707 C58.4702909,9.50976931 58.5610832,9.232999 58.5449749,8.9327984 C58.4658977,7.34539619 57.7117352,5.85317954 56.4728586,4.83689067" fill="#FFFFFF"></path>
                        <path d="M30.3876229,4.83689067 C29.3625476,3.99925777 28.1339218,3.55554664 26.835005,3.55554664 C25.1568104,3.55554664 23.5781946,4.30824473 22.5018656,5.62180542 C20.5102909,8.05416249 20.8558877,11.515988 23.2867803,13.5075627 C24.3016048,14.3378736 25.5741625,14.7962287 26.8745436,14.7962287 C27.1513139,14.7962287 27.431013,14.7757272 27.7077834,14.7347242 C27.9157272,14.7025075 28.212999,14.6058576 28.4414443,14.3246941 C28.8295085,13.8516951 28.7562889,13.1238917 28.2818255,12.7358275 C28.1046339,12.5908526 27.8849749,12.5161685 27.6257773,12.5161685 C27.5554865,12.5161685 27.4837312,12.5234905 27.4105115,12.5337412 C27.2479639,12.5601003 27.0795587,12.5703511 26.9096891,12.5703511 C24.9298295,12.5703511 23.4332197,11.0459178 23.4332197,9.17149448 C23.4332197,7.29414243 24.9517954,5.77410231 26.8291474,5.77410231 C28.3565095,5.77410231 29.6495687,6.78306921 30.0786359,8.17131394 L26.8232899,8.17131394 C26.2668205,8.17131394 25.8128586,8.62381143 25.8128586,9.18467402 C25.8128586,9.74407222 26.2507121,10.1951053 26.8071815,10.1951053 L31.1344634,10.1951053 C31.6030692,10.1951053 31.9882046,9.99741224 32.2034704,9.73235707 C32.3865196,9.50976931 32.4743831,9.232999 32.4612036,8.9327984 C32.380662,7.34539619 31.6264995,5.85317954 30.3876229,4.83689067" fill="#FFFFFF"></path>
                    </g>
                    <path d="M131.14666,3.55115346 C129.736449,3.55115346 128.471214,4.11055165 127.621866,4.98918756 C126.772518,4.11055165 125.507282,3.55115346 124.097071,3.55115346 C121.544634,3.55115346 119.469589,5.37725176 119.469589,7.6221665 L119.469589,12.9833099 C119.469589,13.5924975 119.963089,14.0874624 120.573741,14.0874624 C121.184393,14.0874624 121.677894,13.5939619 121.677894,12.9833099 L121.677894,7.6221665 C121.677894,6.59416249 122.763009,5.75945838 124.098536,5.75945838 C125.432598,5.75945838 126.519178,6.59562688 126.519178,7.6221665 L126.519178,12.9833099 C126.519178,13.5924975 127.012678,14.0874624 127.62333,14.0874624 C128.232518,14.0874624 128.727482,13.5939619 128.727482,12.9833099 L128.727482,7.66609829 C128.727482,7.65145436 128.730411,7.63681043 128.730411,7.62070211 C128.730411,6.59269809 129.815527,5.75799398 131.151053,5.75799398 C132.485115,5.75799398 133.571695,6.59416249 133.571695,7.62070211 L133.571695,12.9818455 C133.571695,13.5910331 134.065196,14.085998 134.675848,14.085998 C135.285035,14.085998 135.78,13.5924975 135.78,12.9818455 L135.78,7.62070211 C135.774142,5.37725176 133.697633,3.55115346 131.14666,3.55115346 Z" id="Path" fill="#FFC700"></path>
                    <path d="M113.305958,14.1709328 C110.365456,14.1709328 107.974102,11.7795787 107.974102,8.83907723 C107.974102,5.89857573 110.365456,3.50722166 113.305958,3.50722166 C116.246459,3.50722166 118.637813,5.89857573 118.637813,8.83907723 C118.637813,9.44826479 118.144313,9.94322969 117.533661,9.94322969 L113.45679,9.94322969 C112.847603,9.94322969 112.352638,9.44826479 112.352638,8.83907723 C112.352638,8.22988967 112.846138,7.73492477 113.45679,7.73492477 L116.228887,7.73492477 C115.782247,6.55608826 114.64002,5.71552658 113.305958,5.71552658 C111.583831,5.71552658 110.180943,7.11695085 110.180943,8.83907723 C110.180943,10.5612036 111.582367,11.9626279 113.305958,11.9626279 C113.475827,11.9626279 113.645697,11.9494483 113.811174,11.9216249 C114.414504,11.8249749 114.979759,12.2320762 115.077874,12.8339418 C115.175988,13.4358074 114.767422,14.0025276 114.165557,14.1006419 C113.882929,14.1475025 113.594443,14.1709328 113.305958,14.1709328 Z" id="Path" fill="#FFC700"></path>
                    <path d="M92.8410632,14.1709328 C89.9005617,14.1709328 87.5092076,11.7795787 87.5092076,8.83907723 C87.5092076,5.89857573 89.9020261,3.50722166 92.8410632,3.50722166 C94.3244935,3.50722166 95.7522768,4.13251755 96.7583149,5.22202608 C97.1727382,5.67013039 97.1449147,6.36864594 96.6968104,6.78160481 C96.2487061,7.19456369 95.5501906,7.16820461 95.1372317,6.7201003 C94.5382949,6.07137412 93.7226279,5.71552658 92.8410632,5.71552658 C91.1189368,5.71552658 89.7175125,7.11695085 89.7175125,8.83907723 C89.7175125,10.5612036 91.1189368,11.9626279 92.8410632,11.9626279 C93.7226279,11.9626279 94.5382949,11.6053159 95.1372317,10.9580542 C95.5501906,10.5099498 96.2501705,10.4821264 96.6968104,10.8965496 C97.1449147,11.3109729 97.1727382,12.0080241 96.7583149,12.4561284 C95.7522768,13.5456369 94.3244935,14.1709328 92.8410632,14.1709328 Z" id="Path" fill="#FFC700"></path>
                    <path d="M80.9238315,8.83907723 C80.9238315,8.80686058 80.9223671,8.77464393 80.9209027,8.74096289 L80.9209027,4.73877633 C80.9209027,4.12958877 80.4259378,3.63462387 79.8167503,3.63462387 C79.2763892,3.63462387 78.8282849,4.02268806 78.7330993,4.53376128 C77.8515346,3.88796389 76.7649549,3.50722166 75.5919759,3.50722166 C72.6514744,3.50722166 70.2601204,5.89857573 70.2601204,8.83907723 C70.2601204,11.7795787 72.6529388,14.1709328 75.5919759,14.1709328 C76.7664193,14.1709328 77.8515346,13.7887262 78.7330993,13.1429288 C78.8297492,13.6554664 79.2778536,14.0420662 79.8167503,14.0420662 C80.4259378,14.0420662 80.9209027,13.5485657 80.9209027,12.9379137 L80.9209027,8.93572718 C80.9223671,8.90351053 80.9238315,8.87129388 80.9238315,8.83907723 Z M75.5919759,11.9626279 C73.8698495,11.9626279 72.4684253,10.5612036 72.4684253,8.83907723 C72.4684253,7.11695085 73.8698495,5.71552658 75.5919759,5.71552658 C77.2818857,5.71552658 78.661344,7.0642327 78.7140622,8.74242728 L78.7140622,8.93719157 C78.661344,10.6139218 77.2818857,11.9626279 75.5919759,11.9626279 Z" id="Shape" fill="#FFC700"></path>
                    <path d="M87.2265797,11.9626279 C85.5044534,11.9626279 84.1015647,10.5612036 84.1015647,8.83907723 L84.1015647,1.18615848 C84.1015647,0.576970913 83.6080642,0.0820060181 82.9974122,0.0820060181 C82.3867603,0.0820060181 81.8932598,0.576970913 81.8932598,1.18615848 L81.8932598,8.83907723 C81.8932598,11.7795787 84.2846138,14.1709328 87.2251153,14.1709328 C87.8343029,14.1709328 88.3292711,13.6774323 88.3292711,13.0667803 C88.3307322,12.4575928 87.8372317,11.9626279 87.2265797,11.9626279 Z" id="Path" fill="#FFC700"></path>
                    <path d="M102.462126,3.50722166 C101.576169,3.50722166 100.747322,3.72834504 100.041484,4.11055165 L100.041484,1.18615848 C100.041484,0.576970913 99.547984,0.0820060181 98.937332,0.0820060181 C98.32668,0.0820060181 97.8331795,0.576970913 97.8331795,1.18615848 L97.8331795,12.9393781 C97.8331795,13.5485657 98.32668,14.0435306 98.937332,14.0435306 C99.547984,14.0435306 100.041484,13.5500301 100.041484,12.9393781 L100.041484,7.5782347 C100.041484,6.55023069 101.1266,5.71552658 102.462126,5.71552658 C103.796189,5.71552658 104.882768,6.55169509 104.882768,7.5782347 L104.882768,12.9393781 C104.882768,13.5485657 105.376269,14.0435306 105.986921,14.0435306 C106.596108,14.0435306 107.091073,13.5500301 107.091073,12.9393781 L107.091073,7.5782347 C107.091073,5.33331996 105.014564,3.50722166 102.462126,3.50722166 Z" id="Path" fill="#FFC700"></path>
                    <path d="M145.938495,14.3861986 C145.938495,14.3730191 145.93996,14.3598395 145.93996,14.34666 L145.93996,4.73877633 C145.93996,4.12958877 145.446459,3.63462387 144.835807,3.63462387 C144.22662,3.63462387 143.731655,4.12958877 143.731655,4.73877633 L143.731655,10.0999198 C143.731655,11.1279238 142.64654,11.9626279 141.311013,11.9626279 C139.976951,11.9626279 138.890371,11.1264594 138.890371,10.0999198 L138.890371,9.84365095 L138.890371,4.73877633 C138.890371,4.12958877 138.396871,3.63462387 137.786219,3.63462387 C137.175567,3.63462387 136.682066,4.12958877 136.682066,4.73877633 L136.682066,9.84365095 L136.682066,10.0999198 C136.682066,12.3448345 138.758576,14.1709328 141.309549,14.1709328 C142.195507,14.1709328 143.024353,13.9498094 143.730191,13.5676028 L143.730191,14.34666 C143.730191,14.3759478 143.731655,14.4052357 143.734584,14.4345236 C143.734584,14.4477031 143.733119,14.4608826 143.733119,14.4740622 C143.733119,16.1961886 142.331695,17.5976128 140.609569,17.5976128 C140.000381,17.5976128 139.505416,18.0911133 139.505416,18.7017653 C139.505416,19.3109529 139.998917,19.8059178 140.609569,19.8059178 C143.55007,19.8059178 145.941424,17.4145637 145.941424,14.4740622 C145.942889,14.4447743 145.941424,14.4154865 145.938495,14.3861986 Z" id="Path" fill="#FFC700"></path>
                </g>
                <g id="Group" transform="translate(0.000000, 19.183551)">
                    <g id="Path">
                        <path d="M1.15540622,2.33570712 C1.77777332,2.33570712 2.27859579,1.83195587 2.27859579,1.21105316 C2.27859579,0.590150451 1.77630893,0.0849348044 1.15540622,0.0849348044 C0.534503511,0.0849348044 0.0307490721,0.588686058 0.0307490721,1.21105316 C0.0292878636,1.83342026 0.533039117,2.33570712 1.15540622,2.33570712" fill="#FFC700"></path>
                        <path d="M38.8884253,3.75177533 L38.8869609,3.75616851 L38.8884253,3.75177533 C37.2087663,3.75177533 35.6301505,4.50593781 34.5538215,5.8194985 C33.7249749,6.82992979 33.2695486,8.10102307 33.2724634,9.39261785 L33.2724634,13.6891474 C33.2724634,14.3539819 33.7410832,14.819659 34.4132397,14.819659 C35.0897894,14.819659 35.5481444,14.3656971 35.5481444,13.6891474 L35.5481444,9.34282849 C35.554002,8.57841525 35.8205216,7.83450351 36.3023069,7.24874624 C36.9363892,6.47261785 37.8823872,6.02597793 38.8913541,6.02597793 L38.8913541,6.02451354 L38.9264995,6.02451354 C39.1974122,6.02451354 39.4624674,5.93079238 39.6704112,5.76092277 C39.9017854,5.57055165 40.0511535,5.31135406 40.0862989,5.02726179 C40.1258375,4.72559679 40.0350451,4.43271815 39.8285657,4.17937813 C39.5386158,3.82645938 39.159338,3.75177533 38.8884253,3.75177533" fill="#FFFFFF"></path>
                        <path d="M8.5461986,3.50575727 C5.67745236,3.50575727 3.67416249,5.42118355 3.67416249,8.16252758 L3.67416249,11.8732999 L3.67562688,11.9025878 C3.65951856,12.2774724 3.35199599,12.5703511 2.98004012,12.5703511 C2.61247743,12.5703511 2.31081244,12.2847944 2.28298897,11.9274824 L2.27859579,11.9274824 L2.27859579,4.52790371 C2.27859579,3.86306921 1.81438315,3.39739218 1.15101304,3.39739218 C0.486178536,3.39739218 0.0219658977,3.86306921 0.0219658977,4.52790371 L0.0219658977,11.8732999 C0.0219658977,13.5017051 1.34724173,14.8284453 2.97271815,14.8284453 C4.53961886,14.8284453 5.83707121,13.6042126 5.92200602,12.0358475 C5.92932798,11.9831294 5.93518556,11.9289468 5.93518556,11.8747643 L5.93518556,8.29578736 C5.93518556,6.73327984 6.98515547,5.68330993 8.54912738,5.68330993 C10.1116349,5.68330993 11.1616048,6.73327984 11.1616048,8.29578736 L11.1616048,13.6920762 C11.1616048,14.3569107 11.6272818,14.8225878 12.2921163,14.8225878 C12.9569509,14.8225878 13.4211635,14.3569107 13.4211635,13.6920762 L13.4211635,8.16399198 C13.4182347,5.42118355 11.4134804,3.50575727 8.5461986,3.50575727" fill="#FFFFFF"></path>
                        <path d="M20.2979539,12.5703511 C19.58333,12.5674223 18.8350251,12.2730792 18.1921565,11.7458977 C17.4087061,11.1044935 16.9562086,10.1497091 16.9635306,9.13049147 L16.9635306,6.01865597 L19.2377332,6.01865597 C19.843992,6.01865597 20.3330993,5.53101304 20.3330993,4.92475426 C20.3330993,4.31703109 19.8395988,3.82645938 19.2362688,3.82645938 L16.9635306,3.82645938 L16.9635306,1.21544634 C16.9635306,0.550611836 16.491996,0.0863991976 15.8271615,0.0863991976 C15.1608626,0.0863991976 14.6951856,0.550611836 14.6951856,1.21544634 L14.6951856,9.13342026 C14.6981143,10.8262588 15.4390973,12.4121966 16.7614443,13.4943831 C17.7967703,14.3437312 18.9668205,14.7757272 20.234985,14.7757272 L20.2481645,14.7757272 C20.912999,14.7757272 21.3772116,14.3071214 21.3772116,13.6349649 C21.3772116,12.9994183 20.94668,12.5732798 20.2979539,12.5703511" fill="#FFFFFF"></path>
                        <path d="M68.7664393,12.7504714 L64.4201204,8.40268806 L67.7267202,5.57055165 C67.9610231,5.35675025 68.1191775,4.99943831 68.1191775,4.68459378 C68.1191775,4.01975928 67.6549649,3.55554664 66.9901304,3.55554664 C66.6635707,3.55554664 66.3091876,3.70198596 66.0397392,3.94946841 L61.9496891,7.45376128 L61.9496891,1.21398195 C61.9496891,0.547683049 61.4854764,0.0834704112 60.8206419,0.0834704112 C60.1558074,0.0834704112 59.6901304,0.547683049 59.6901304,1.21398195 L59.6901304,13.702327 C59.6901304,14.3671615 60.154343,14.8313741 60.8206419,14.8313741 C61.484012,14.8313741 61.9496891,14.3671615 61.9496891,13.702327 L61.9496891,10.6432096 C61.9511535,10.4865196 62.0185155,10.3283651 62.1444534,10.2156068 C62.3846138,10.0018054 62.7404614,10.0325577 62.9659779,10.2639318 L67.1482849,14.4403811 C67.3606219,14.6761484 67.715005,14.8328385 68.0342427,14.8328385 C68.6976128,14.8328385 69.1618255,14.3686259 69.1618255,13.7037914 C69.1603611,13.3772317 69.0124574,13.0213842 68.7664393,12.7504714" fill="#FFFFFF"></path>
                        <path d="M46.4154062,12.5703511 C45.699318,12.5674223 44.9524774,12.2730792 44.3081444,11.7458977 C43.5246941,11.1044935 43.0721966,10.1497091 43.0795186,9.13049147 L43.0795186,6.01865597 L45.349328,6.01865597 C45.9585155,6.01865597 46.3978335,5.55883651 46.3978335,4.92182548 C46.3978335,4.28774323 45.9585155,3.82645938 45.349328,3.82645938 L43.0795186,3.82645938 L43.0795186,1.21544634 C43.0795186,0.550611836 42.607984,0.0863991976 41.9416851,0.0863991976 C41.2783149,0.0863991976 40.8111735,0.550611836 40.8111735,1.21544634 L40.8111735,9.13342026 C40.8126379,10.8262588 41.5536209,12.4121966 42.8759679,13.4943831 C43.9142227,14.3437312 45.0842728,14.7757272 46.3509729,14.7757272 L46.3626881,14.7757272 C47.0275226,14.7757272 47.4946677,14.3071214 47.4946677,13.6349649 C47.4961284,12.9994183 47.0641324,12.5732798 46.4154062,12.5703511" fill="#FFFFFF"></path>
                        <path d="M56.4728586,4.83689067 C55.4477834,3.99925777 54.2191575,3.55554664 52.9187763,3.55554664 C51.2420461,3.55554664 49.6648947,4.30824473 48.5871013,5.62180542 C46.5955266,8.05416249 46.939659,11.515988 49.3705517,13.5075627 C50.3853761,14.3378736 51.6593982,14.7962287 52.9583149,14.7962287 C53.238014,14.7962287 53.5177131,14.7757272 53.7944835,14.7347242 C54.0024273,14.7025075 54.2982347,14.6058576 54.5281444,14.3246941 C54.9147442,13.8516951 54.8415246,13.1238917 54.36999,12.7358275 C54.191334,12.5908526 53.9702106,12.5161685 53.7124774,12.5161685 C53.6421866,12.5161685 53.5704313,12.5234905 53.4972116,12.5337412 C53.334664,12.5601003 53.1662588,12.5703511 52.9963892,12.5703511 C51.0165296,12.5703511 49.5184554,11.0459178 49.5184554,9.17149448 C49.5184554,7.29414243 51.0384955,5.77410231 52.9143831,5.77410231 C54.4432096,5.77410231 55.7362688,6.78306921 56.1624072,8.17131394 L52.9085256,8.17131394 C52.3505918,8.17131394 51.8980943,8.62381143 51.8980943,9.18467402 C51.8980943,9.74407222 52.3344835,10.1951053 52.8924173,10.1951053 L57.2196991,10.1951053 C57.6883049,10.1951053 58.0734403,9.99741224 58.2901705,9.73235707 C58.4702909,9.50976931 58.5610832,9.232999 58.5449749,8.9327984 C58.4658977,7.34539619 57.7117352,5.85317954 56.4728586,4.83689067" fill="#FFFFFF"></path>
                        <path d="M30.3876229,4.83689067 C29.3625476,3.99925777 28.1339218,3.55554664 26.835005,3.55554664 C25.1568104,3.55554664 23.5781946,4.30824473 22.5018656,5.62180542 C20.5102909,8.05416249 20.8558877,11.515988 23.2867803,13.5075627 C24.3016048,14.3378736 25.5741625,14.7962287 26.8745436,14.7962287 C27.1513139,14.7962287 27.431013,14.7757272 27.7077834,14.7347242 C27.9157272,14.7025075 28.212999,14.6058576 28.4414443,14.3246941 C28.8295085,13.8516951 28.7562889,13.1238917 28.2818255,12.7358275 C28.1046339,12.5908526 27.8849749,12.5161685 27.6257773,12.5161685 C27.5554865,12.5161685 27.4837312,12.5234905 27.4105115,12.5337412 C27.2479639,12.5601003 27.0795587,12.5703511 26.9096891,12.5703511 C24.9298295,12.5703511 23.4332197,11.0459178 23.4332197,9.17149448 C23.4332197,7.29414243 24.9517954,5.77410231 26.8291474,5.77410231 C28.3565095,5.77410231 29.6495687,6.78306921 30.0786359,8.17131394 L26.8232899,8.17131394 C26.2668205,8.17131394 25.8128586,8.62381143 25.8128586,9.18467402 C25.8128586,9.74407222 26.2507121,10.1951053 26.8071815,10.1951053 L31.1344634,10.1951053 C31.6030692,10.1951053 31.9882046,9.99741224 32.2034704,9.73235707 C32.3865196,9.50976931 32.4743831,9.232999 32.4612036,8.9327984 C32.380662,7.34539619 31.6264995,5.85317954 30.3876229,4.83689067" fill="#FFFFFF"></path>
                    </g>
                    <path d="M131.14666,3.55115346 C129.736449,3.55115346 128.471214,4.11055165 127.621866,4.98918756 C126.772518,4.11055165 125.507282,3.55115346 124.097071,3.55115346 C121.544634,3.55115346 119.469589,5.37725176 119.469589,7.6221665 L119.469589,12.9833099 C119.469589,13.5924975 119.963089,14.0874624 120.573741,14.0874624 C121.184393,14.0874624 121.677894,13.5939619 121.677894,12.9833099 L121.677894,7.6221665 C121.677894,6.59416249 122.763009,5.75945838 124.098536,5.75945838 C125.432598,5.75945838 126.519178,6.59562688 126.519178,7.6221665 L126.519178,12.9833099 C126.519178,13.5924975 127.012678,14.0874624 127.62333,14.0874624 C128.232518,14.0874624 128.727482,13.5939619 128.727482,12.9833099 L128.727482,7.66609829 C128.727482,7.65145436 128.730411,7.63681043 128.730411,7.62070211 C128.730411,6.59269809 129.815527,5.75799398 131.151053,5.75799398 C132.485115,5.75799398 133.571695,6.59416249 133.571695,7.62070211 L133.571695,12.9818455 C133.571695,13.5910331 134.065196,14.085998 134.675848,14.085998 C135.285035,14.085998 135.78,13.5924975 135.78,12.9818455 L135.78,7.62070211 C135.774142,5.37725176 133.697633,3.55115346 131.14666,3.55115346 Z" id="Path" fill="#FFC700"></path>
                    <path d="M113.305958,14.1709328 C110.365456,14.1709328 107.974102,11.7795787 107.974102,8.83907723 C107.974102,5.89857573 110.365456,3.50722166 113.305958,3.50722166 C116.246459,3.50722166 118.637813,5.89857573 118.637813,8.83907723 C118.637813,9.44826479 118.144313,9.94322969 117.533661,9.94322969 L113.45679,9.94322969 C112.847603,9.94322969 112.352638,9.44826479 112.352638,8.83907723 C112.352638,8.22988967 112.846138,7.73492477 113.45679,7.73492477 L116.228887,7.73492477 C115.782247,6.55608826 114.64002,5.71552658 113.305958,5.71552658 C111.583831,5.71552658 110.180943,7.11695085 110.180943,8.83907723 C110.180943,10.5612036 111.582367,11.9626279 113.305958,11.9626279 C113.475827,11.9626279 113.645697,11.9494483 113.811174,11.9216249 C114.414504,11.8249749 114.979759,12.2320762 115.077874,12.8339418 C115.175988,13.4358074 114.767422,14.0025276 114.165557,14.1006419 C113.882929,14.1475025 113.594443,14.1709328 113.305958,14.1709328 Z" id="Path" fill="#FFC700"></path>
                    <path d="M92.8410632,14.1709328 C89.9005617,14.1709328 87.5092076,11.7795787 87.5092076,8.83907723 C87.5092076,5.89857573 89.9020261,3.50722166 92.8410632,3.50722166 C94.3244935,3.50722166 95.7522768,4.13251755 96.7583149,5.22202608 C97.1727382,5.67013039 97.1449147,6.36864594 96.6968104,6.78160481 C96.2487061,7.19456369 95.5501906,7.16820461 95.1372317,6.7201003 C94.5382949,6.07137412 93.7226279,5.71552658 92.8410632,5.71552658 C91.1189368,5.71552658 89.7175125,7.11695085 89.7175125,8.83907723 C89.7175125,10.5612036 91.1189368,11.9626279 92.8410632,11.9626279 C93.7226279,11.9626279 94.5382949,11.6053159 95.1372317,10.9580542 C95.5501906,10.5099498 96.2501705,10.4821264 96.6968104,10.8965496 C97.1449147,11.3109729 97.1727382,12.0080241 96.7583149,12.4561284 C95.7522768,13.5456369 94.3244935,14.1709328 92.8410632,14.1709328 Z" id="Path" fill="#FFC700"></path>
                    <path d="M80.9238315,8.83907723 C80.9238315,8.80686058 80.9223671,8.77464393 80.9209027,8.74096289 L80.9209027,4.73877633 C80.9209027,4.12958877 80.4259378,3.63462387 79.8167503,3.63462387 C79.2763892,3.63462387 78.8282849,4.02268806 78.7330993,4.53376128 C77.8515346,3.88796389 76.7649549,3.50722166 75.5919759,3.50722166 C72.6514744,3.50722166 70.2601204,5.89857573 70.2601204,8.83907723 C70.2601204,11.7795787 72.6529388,14.1709328 75.5919759,14.1709328 C76.7664193,14.1709328 77.8515346,13.7887262 78.7330993,13.1429288 C78.8297492,13.6554664 79.2778536,14.0420662 79.8167503,14.0420662 C80.4259378,14.0420662 80.9209027,13.5485657 80.9209027,12.9379137 L80.9209027,8.93572718 C80.9223671,8.90351053 80.9238315,8.87129388 80.9238315,8.83907723 Z M75.5919759,11.9626279 C73.8698495,11.9626279 72.4684253,10.5612036 72.4684253,8.83907723 C72.4684253,7.11695085 73.8698495,5.71552658 75.5919759,5.71552658 C77.2818857,5.71552658 78.661344,7.0642327 78.7140622,8.74242728 L78.7140622,8.93719157 C78.661344,10.6139218 77.2818857,11.9626279 75.5919759,11.9626279 Z" id="Shape" fill="#FFC700"></path>
                    <path d="M87.2265797,11.9626279 C85.5044534,11.9626279 84.1015647,10.5612036 84.1015647,8.83907723 L84.1015647,1.18615848 C84.1015647,0.576970913 83.6080642,0.0820060181 82.9974122,0.0820060181 C82.3867603,0.0820060181 81.8932598,0.576970913 81.8932598,1.18615848 L81.8932598,8.83907723 C81.8932598,11.7795787 84.2846138,14.1709328 87.2251153,14.1709328 C87.8343029,14.1709328 88.3292711,13.6774323 88.3292711,13.0667803 C88.3307322,12.4575928 87.8372317,11.9626279 87.2265797,11.9626279 Z" id="Path" fill="#FFC700"></path>
                    <path d="M102.462126,3.50722166 C101.576169,3.50722166 100.747322,3.72834504 100.041484,4.11055165 L100.041484,1.18615848 C100.041484,0.576970913 99.547984,0.0820060181 98.937332,0.0820060181 C98.32668,0.0820060181 97.8331795,0.576970913 97.8331795,1.18615848 L97.8331795,12.9393781 C97.8331795,13.5485657 98.32668,14.0435306 98.937332,14.0435306 C99.547984,14.0435306 100.041484,13.5500301 100.041484,12.9393781 L100.041484,7.5782347 C100.041484,6.55023069 101.1266,5.71552658 102.462126,5.71552658 C103.796189,5.71552658 104.882768,6.55169509 104.882768,7.5782347 L104.882768,12.9393781 C104.882768,13.5485657 105.376269,14.0435306 105.986921,14.0435306 C106.596108,14.0435306 107.091073,13.5500301 107.091073,12.9393781 L107.091073,7.5782347 C107.091073,5.33331996 105.014564,3.50722166 102.462126,3.50722166 Z" id="Path" fill="#FFC700"></path>
                    <path d="M145.938495,14.3861986 C145.938495,14.3730191 145.93996,14.3598395 145.93996,14.34666 L145.93996,4.73877633 C145.93996,4.12958877 145.446459,3.63462387 144.835807,3.63462387 C144.22662,3.63462387 143.731655,4.12958877 143.731655,4.73877633 L143.731655,10.0999198 C143.731655,11.1279238 142.64654,11.9626279 141.311013,11.9626279 C139.976951,11.9626279 138.890371,11.1264594 138.890371,10.0999198 L138.890371,9.84365095 L138.890371,4.73877633 C138.890371,4.12958877 138.396871,3.63462387 137.786219,3.63462387 C137.175567,3.63462387 136.682066,4.12958877 136.682066,4.73877633 L136.682066,9.84365095 L136.682066,10.0999198 C136.682066,12.3448345 138.758576,14.1709328 141.309549,14.1709328 C142.195507,14.1709328 143.024353,13.9498094 143.730191,13.5676028 L143.730191,14.34666 C143.730191,14.3759478 143.731655,14.4052357 143.734584,14.4345236 C143.734584,14.4477031 143.733119,14.4608826 143.733119,14.4740622 C143.733119,16.1961886 142.331695,17.5976128 140.609569,17.5976128 C140.000381,17.5976128 139.505416,18.0911133 139.505416,18.7017653 C139.505416,19.3109529 139.998917,19.8059178 140.609569,19.8059178 C143.55007,19.8059178 145.941424,17.4145637 145.941424,14.4740622 C145.942889,14.4447743 145.941424,14.4154865 145.938495,14.3861986 Z" id="Path" fill="#FFC700"></path>
                </g>
            </g>
        </g>
    </g>
</svg>