<svg width="120px" height="33px" viewBox="0 0 120 33" version="1.1" xmlns="http://www.w3.org/2000/svg" xmlns:xlink="http://www.w3.org/1999/xlink">
    <title>PoweredByIntertekAlchemy-Logo</title>
    <g id="Symbols" stroke="none" stroke-width="1" fill="none" fill-rule="evenodd">
        <g id="Footer/small" fill-rule="nonzero">
            <g id="PoweredByIntertekAlchemy-Logo">
                <g id="Group" fill="#FFFFFF">
                    <path d="M2.3338014,9.3511159 C1.84994985,9.3511159 1.10491474,9.27668155 0.60782347,9.16503001 L0.60782347,11.4568878 C0.60782347,11.5805449 0.52116349,11.6921964 0.397191575,11.6921964 L0.273219659,11.6921964 C0.149247743,11.6921964 0.0625877633,11.5805449 0.0625877633,11.4568878 L0.0625877633,3.03380022 C0.0625877633,2.88493151 0.0998996991,2.83570879 0.249147442,2.79849161 C0.79558676,2.68684008 1.62728185,2.56318301 2.33500502,2.56318301 C4.04894684,2.56318301 4.76870612,3.78894875 4.76870612,5.57297214 L4.76870612,6.39054948 C4.76750251,8.34865322 3.94784353,9.3511159 2.3338014,9.3511159 Z M4.22106319,5.57297214 C4.22106319,3.97503463 3.72397192,3.04580576 2.3338014,3.04580576 C1.73801404,3.04580576 1.05436309,3.13224565 0.60782347,3.20668001 L0.60782347,8.70641835 C1.07963892,8.80606434 1.84994985,8.8672926 2.3338014,8.8672926 C3.6998997,8.8672926 4.22106319,8.02450362 4.22106319,6.38934893 L4.22106319,5.57297214 Z" id="Shape"></path>
                    <path d="M8.69127382,9.3511159 C6.9893681,9.3511159 6.13239719,8.26101278 6.13239719,6.39054948 L6.13239719,5.52374942 C6.13239719,3.65328613 6.9893681,2.56318301 8.69127382,2.56318301 C10.3931795,2.56318301 11.2489481,3.65328613 11.2489481,5.52374942 L11.2489481,6.39054948 C11.2501505,8.26101278 10.3931795,9.3511159 8.69127382,9.3511159 Z M10.7037111,5.52374942 C10.7037111,4.00024627 10.1452357,3.04580576 8.69247743,3.04580576 C7.23971916,3.04580576 6.68004012,3.99904571 6.68004012,5.52374942 L6.68004012,6.39054948 C6.68004012,7.91405264 7.23851555,8.86849315 8.69247743,8.86849315 C10.1452357,8.86849315 10.7037111,7.91525319 10.7037111,6.39054948 L10.7037111,5.52374942 Z" id="Shape"></path>
                    <path d="M19.0363089,8.68240726 C18.9243731,9.15302447 18.7751254,9.3511159 18.3899699,9.3511159 C17.9927783,9.3511159 17.8808425,9.10380175 17.7568706,8.64519009 L16.4401204,3.93781745 C16.4028084,3.83817146 16.3907723,3.82616592 16.3534604,3.82616592 C16.3161484,3.82616592 16.3041123,3.83817146 16.2668004,3.93781745 L14.9500502,8.64519009 C14.8260782,9.10380175 14.7141424,9.3511159 14.3169509,9.3511159 C13.9317954,9.3511159 13.7825476,9.15302447 13.6706118,8.68240726 L12.3045135,2.92214868 C12.2672016,2.77327998 12.3045135,2.62441127 12.5283852,2.62441127 L12.603009,2.62441127 C12.7522568,2.62441127 12.776329,2.71085116 12.8016048,2.79729106 L14.1424273,8.55754964 C14.2170512,8.85528706 14.242327,8.8672926 14.3157472,8.8672926 C14.378335,8.8672926 14.4024072,8.83007542 14.4770311,8.56955518 L15.8178536,3.78774819 C15.9045135,3.46599969 16.116349,3.34234262 16.3522568,3.34234262 C16.5881645,3.34234262 16.7987964,3.46599969 16.88666,3.78774819 L18.2274824,8.56955518 C18.3021063,8.83007542 18.3394183,8.8672926 18.3887663,8.8672926 C18.4381143,8.8672926 18.488666,8.8672926 18.5620863,8.55754964 L19.9029087,2.79729106 C19.9281846,2.71085116 19.9654965,2.62441127 20.1015045,2.62441127 L20.1761284,2.62441127 C20.4120361,2.62441127 20.449348,2.7360628 20.4,2.92214868 L19.0363089,8.68240726 Z" id="Path"></path>
                    <path d="M26.3253761,6.08080653 L22.1271815,6.08080653 L22.1271815,6.34132677 C22.1271815,8.42188702 23.1334002,8.86849315 24.3755266,8.86849315 C24.9219659,8.86849315 25.6044132,8.78205326 26.2134403,8.65839618 C26.3374122,8.63318455 26.4746239,8.65839618 26.4746239,8.81927043 L26.4746239,8.90571033 C26.4746239,9.0425735 26.4252758,9.10380175 26.2387161,9.14101893 C25.6429288,9.264676 24.9352056,9.3511159 24.3755266,9.3511159 C22.8361083,9.3511159 21.5807422,8.68240726 21.5807422,6.34132677 L21.5807422,5.52374942 C21.5807422,3.81416038 22.4497492,2.56318301 24.0890672,2.56318301 C25.803009,2.56318301 26.5600899,3.75293212 26.5600899,5.51174388 L26.5600899,5.84669848 C26.5612839,5.98236109 26.449348,6.08080653 26.3253761,6.08080653 Z M26.0148445,5.51174388 C26.0148445,3.95102355 25.493681,3.04700631 24.0902708,3.04700631 C22.7121364,3.04700631 22.1283852,4.05066954 22.1283852,5.52494998 L22.1283852,5.58737879 L26.0148445,5.58737879 L26.0148445,5.51174388 Z" id="Shape"></path>
                    <path d="M30.3863591,3.04700631 C29.9145436,3.04700631 29.3933801,3.15865784 28.6603811,3.61726951 L28.6603811,9.0425735 C28.6603811,9.16623057 28.5484453,9.2778821 28.4244734,9.2778821 L28.3498495,9.2778821 C28.2258776,9.2778821 28.1139418,9.16623057 28.1139418,9.0425735 L28.1139418,2.87292597 C28.1139418,2.73726335 28.2006018,2.62561182 28.3378134,2.62561182 L28.4377131,2.62561182 C28.5737212,2.62561182 28.6615848,2.73726335 28.6615848,2.87292597 L28.6615848,3.13344621 C29.2946841,2.72525781 29.7797392,2.56318301 30.3875627,2.56318301 C30.5861585,2.56318301 30.7233701,2.60040018 30.7233701,2.74926889 L30.7233701,2.84891488 C30.7221665,3.00978913 30.5849549,3.04700631 30.3863591,3.04700631 Z" id="Path"></path>
                    <path d="M36.136008,6.08080653 L31.9378134,6.08080653 L31.9378134,6.34132677 C31.9378134,8.42188702 32.9440321,8.86849315 34.1861585,8.86849315 C34.7325978,8.86849315 35.4150451,8.78205326 36.0240722,8.65839618 C36.1480441,8.63318455 36.2852558,8.65839618 36.2852558,8.81927043 L36.2852558,8.90571033 C36.2852558,9.0425735 36.2359077,9.10380175 36.049348,9.14101893 C35.4535607,9.264676 34.7458375,9.3511159 34.1861585,9.3511159 C32.6467402,9.3511159 31.3913741,8.68240726 31.3913741,6.34132677 L31.3913741,5.52374942 C31.3913741,3.81416038 32.2603811,2.56318301 33.8996991,2.56318301 C35.6136409,2.56318301 36.3707218,3.75293212 36.3707218,5.51174388 L36.3707218,5.84669848 C36.3719157,5.98236109 36.2599799,6.08080653 36.136008,6.08080653 Z M35.8254764,5.51174388 C35.8254764,3.95102355 35.3043129,3.04700631 33.9009027,3.04700631 C32.5227683,3.04700631 31.9390171,4.05066954 31.9390171,5.52494998 L31.9390171,5.58737879 L35.8254764,5.58737879 L35.8254764,5.51174388 Z" id="Shape"></path>
                    <path d="M42.2575727,9.1158073 C41.7111334,9.22745883 40.8794383,9.3511159 40.1717151,9.3511159 C38.4577733,9.3511159 37.738014,8.12535016 37.738014,6.34132677 L37.738014,5.52374942 C37.738014,3.56684624 38.557673,2.56318301 40.1717151,2.56318301 C40.6555667,2.56318301 41.4006018,2.63761736 41.8976931,2.74926889 L41.8976931,0.308542404 C41.8976931,0.184885332 41.9843531,0.0732338002 42.108325,0.0732338002 L42.2322969,0.0732338002 C42.3562688,0.0732338002 42.4429567,0.184885332 42.4429567,0.308542404 L42.4429567,8.88049869 C42.4441324,9.0293674 42.4068205,9.07859012 42.2575727,9.1158073 Z M41.8976931,3.20788056 C41.4258776,3.10823457 40.6555667,3.04700631 40.1717151,3.04700631 C38.8056169,3.04700631 38.2844534,3.88979529 38.2844534,5.52494998 L38.2844534,6.34252732 C38.2844534,7.94046483 38.7815446,8.8696937 40.1717151,8.8696937 C40.7675025,8.8696937 41.4511535,8.78325381 41.8976931,8.70881946 L41.8976931,3.20788056 Z" id="Shape"></path>
                    <path d="M49.1253761,9.3511159 C48.417653,9.3511159 47.5859579,9.22745883 47.0395186,9.1158073 C46.8902708,9.07859012 46.8529589,9.0293674 46.8529589,8.88049869 L46.8529589,0.308542404 C46.8529589,0.184885332 46.9396189,0.0732338002 47.0635908,0.0732338002 L47.1875627,0.0732338002 C47.3115346,0.0732338002 47.3981946,0.184885332 47.3981946,0.308542404 L47.3981946,2.74926889 C47.8952859,2.63761736 48.640321,2.56318301 49.1241725,2.56318301 C50.7382146,2.56318301 51.5578751,3.56684624 51.5578751,5.52374942 L51.5578751,6.34132677 C51.5590772,8.12535016 50.839318,9.3511159 49.1253761,9.3511159 Z M51.0126379,5.52374942 C51.0126379,3.88859474 50.4914744,3.04580576 49.1253761,3.04580576 C48.6415246,3.04580576 47.8712136,3.10823457 47.3993982,3.20668001 L47.3993982,8.70641835 C47.8459378,8.7808527 48.5295888,8.8672926 49.1253761,8.8672926 C50.5167503,8.8672926 51.0126379,7.93806372 51.0126379,6.34012621 L51.0126379,5.52374942 Z" id="Shape"></path>
                    <path d="M55.7440321,9.97060182 C55.3588766,11.2960135 54.8870612,11.6921964 53.7327984,11.6921964 C53.4475426,11.6921964 53.1863591,11.6549792 52.9624875,11.617762 C52.8132397,11.5925504 52.7145436,11.5685393 52.7145436,11.4448823 L52.7145436,11.3092196 C52.7145436,11.1603509 52.7771314,11.1111282 52.9757272,11.1351393 C53.1622869,11.1603509 53.5847543,11.2095736 53.7833501,11.2095736 C54.6776329,11.2095736 54.9628887,10.9370479 55.2613842,9.85895028 L55.422668,9.27668155 L55.249348,9.27668155 C54.8641926,9.27668155 54.6655968,9.17703555 54.4922768,8.58276127 L52.8156469,2.92214868 C52.7662989,2.76127443 52.8156469,2.62441127 53.0142427,2.62441127 L53.1261785,2.62441127 C53.2621866,2.62441127 53.2994985,2.71085116 53.3247743,2.79729106 L55.0014042,8.49512082 C55.0760281,8.75564107 55.1879639,8.76764661 55.28666,8.76764661 L55.5719157,8.76764661 L57.2738215,2.78408496 C57.2990973,2.69764507 57.3364092,2.62321071 57.4976931,2.62321071 L57.6096289,2.62321071 C57.8082247,2.62321071 57.8335005,2.77207942 57.7829488,2.93295367 L55.7440321,9.97060182 Z" id="Path"></path>
                </g>
                <g id="Group" transform="translate(0.000000, 15.727259)">
                    <g id="Path">
                        <path d="M0.949648947,1.91488379 C1.46118355,1.91488379 1.87281846,1.50189318 1.87281846,0.992858242 C1.87281846,0.483823303 1.45997994,0.0696321379 0.949648947,0.0696321379 C0.439317954,0.0696321379 0.02527321,0.482622749 0.02527321,0.992858242 C0.0240722166,1.50309374 0.438114343,1.91488379 0.949648947,1.91488379" fill="#FFC700"></path>
                        <path d="M31.9630893,3.07581961 L31.9618857,3.07942127 L31.9630893,3.07581961 C30.5825476,3.07581961 29.2850552,3.69410497 28.4004012,4.771002 C27.7191575,5.59938433 27.3448345,6.64146529 27.3472302,7.70035401 L27.3472302,11.2227797 C27.3472302,11.7678313 27.7323972,12.1496075 28.2848546,12.1496075 C28.8409228,12.1496075 29.217653,11.7774357 29.217653,11.2227797 L29.217653,7.65953517 C29.2224674,7.03284593 29.4415246,6.42296445 29.8375125,5.9427428 C30.358676,5.30644913 31.1362086,4.94028013 31.9654965,4.94028013 L31.9654965,4.93907958 L31.9943831,4.93907958 C32.2170512,4.93907958 32.4349047,4.86224411 32.6058175,4.72297984 C32.795988,4.5669078 32.9187563,4.35440973 32.9476429,4.12150223 C32.9801404,3.87418809 32.9055165,3.63407727 32.7358074,3.42638141 C32.4974925,3.13704787 32.1857573,3.07581961 31.9630893,3.07581961" fill="#FFFFFF"></path>
                        <path d="M7.02427282,2.87412652 C4.6663992,2.87412652 3.01985958,4.44445129 3.01985958,6.69188856 L3.01985958,9.73409266 L3.02106319,9.75810374 C3.00782347,10.0654456 2.7550652,10.3055564 2.44934804,10.3055564 C2.14724173,10.3055564 1.89929789,10.0714484 1.87642929,9.77851316 L1.87281846,9.77851316 L1.87281846,3.71211328 C1.87281846,3.16706172 1.49127382,2.78528552 0.946038114,2.78528552 C0.399598796,2.78528552 0.0180541625,3.16706172 0.0180541625,3.71211328 L0.0180541625,9.73409266 C0.0180541625,11.0691088 1.10732197,12.1568108 2.44332999,12.1568108 C3.73119358,12.1568108 4.79759278,11.1531476 4.86740221,9.86735416 C4.87342026,9.82413422 4.8782347,9.77971371 4.8782347,9.73529321 L4.8782347,6.80113899 C4.8782347,5.52014776 5.74122367,4.65935047 7.02668004,4.65935047 C8.3109328,4.65935047 9.17392177,5.52014776 9.17392177,6.80113899 L9.17392177,11.2251809 C9.17392177,11.7702324 9.55667001,12.1520086 10.1031093,12.1520086 C10.6495486,12.1520086 11.0310933,11.7702324 11.0310933,11.2251809 L11.0310933,6.69308912 C11.0286861,4.44445129 9.38094283,2.87412652 7.02427282,2.87412652" fill="#FFFFFF"></path>
                        <path d="M16.6832497,10.3055564 C16.0958877,10.3031553 15.4808425,10.0618439 14.9524574,9.62964445 C14.3085256,9.10380175 13.9366098,8.32104048 13.9426279,7.48545483 L13.9426279,4.93427736 L15.8118355,4.93427736 C16.3101304,4.93427736 16.7121364,4.53449284 16.7121364,4.03746344 C16.7121364,3.53923349 16.3065196,3.13704787 15.8106319,3.13704787 L13.9426279,3.13704787 L13.9426279,0.996459905 C13.9426279,0.451408342 13.5550652,0.070832692 13.0086259,0.070832692 C12.4609829,0.070832692 12.0782347,0.451408342 12.0782347,0.996459905 L12.0782347,7.48785593 C12.0806419,8.87569648 12.689669,10.1758966 13.7765296,11.063106 C14.6274824,11.7594274 15.5891675,12.1135909 16.6314945,12.1135909 L16.642327,12.1135909 C17.1887663,12.1135909 17.5703109,11.7294136 17.5703109,11.1783592 C17.5703109,10.6573188 17.2164493,10.3079575 16.6832497,10.3055564" fill="#FFFFFF"></path>
                        <path d="M56.5203611,10.4532246 L52.9480441,6.88877944 L55.6657974,4.5669078 C55.8583751,4.3916269 55.9883651,4.0986917 55.9883651,3.84057257 C55.9883651,3.29552101 55.6068205,2.91494536 55.0603811,2.91494536 C54.7919759,2.91494536 54.5007021,3.03500077 54.2792377,3.23789441 L50.9175527,6.11082038 L50.9175527,0.99525935 C50.9175527,0.449007234 50.536008,0.0684315838 49.9895687,0.0684315838 C49.4431294,0.0684315838 49.0603811,0.449007234 49.0603811,0.99525935 L49.0603811,11.2335847 C49.0603811,11.7786363 49.4419258,12.1592119 49.9895687,12.1592119 C50.5348044,12.1592119 50.9175527,11.7786363 50.9175527,11.2335847 L50.9175527,8.72562721 C50.9187563,8.59716792 50.9741224,8.46750808 51.0776329,8.37506541 C51.2750251,8.19978452 51.5675025,8.22499615 51.7528586,8.4146837 L55.1903711,11.838664 C55.3648947,12.0319532 55.6561685,12.1604125 55.9185557,12.1604125 C56.4637914,12.1604125 56.845336,11.7798368 56.845336,11.2347853 C56.8441324,10.9670617 56.7225677,10.6753271 56.5203611,10.4532246" fill="#FFFFFF"></path>
                        <path d="M38.1496489,10.3055564 C37.5610832,10.3031553 36.9472417,10.0618439 36.417653,9.62964445 C35.7737212,9.10380175 35.4018054,8.32104048 35.4078235,7.48545483 L35.4078235,4.93427736 L37.2734203,4.93427736 C37.7741224,4.93427736 38.1352056,4.55730337 38.1352056,4.03506234 C38.1352056,3.51522241 37.7741224,3.13704787 37.2734203,3.13704787 L35.4078235,3.13704787 L35.4078235,0.996459905 C35.4078235,0.451408342 35.0202608,0.070832692 34.4726179,0.070832692 C33.9273821,0.070832692 33.5434303,0.451408342 33.5434303,0.996459905 L33.5434303,7.48785593 C33.5446339,8.87569648 34.153661,10.1758966 35.2405216,11.063106 C36.0938816,11.7594274 37.0555667,12.1135909 38.0966901,12.1135909 L38.106319,12.1135909 C38.6527583,12.1135909 39.0367132,11.7294136 39.0367132,11.1783592 C39.0379137,10.6573188 38.6828485,10.3079575 38.1496489,10.3055564" fill="#FFFFFF"></path>
                        <path d="M46.4160481,3.9654302 C45.5735206,3.27871325 44.5636911,2.91494536 43.4948847,2.91494536 C42.1167503,2.91494536 40.8204614,3.53203017 39.9346038,4.6089272 C38.2976931,6.60304756 38.5805416,9.44115746 40.5785356,11.073911 C41.4126379,11.7546252 42.4597793,12.1303986 43.5273821,12.1303986 C43.7572718,12.1303986 43.9871615,12.1135909 44.2146439,12.0799754 C44.3855567,12.0535632 44.6286861,11.9743266 44.817653,11.7438202 C45.1354062,11.3560412 45.0752257,10.7593659 44.687663,10.441219 C44.5408225,10.3223642 44.3590772,10.2611359 44.1472417,10.2611359 C44.0894684,10.2611359 44.0304915,10.2671387 43.9703109,10.2755426 C43.8367101,10.2971525 43.6982949,10.3055564 43.558676,10.3055564 C41.9313942,10.3055564 40.7001003,9.05577959 40.7001003,7.51907034 C40.7001003,5.97995998 41.9494483,4.73378482 43.4912738,4.73378482 C44.7478435,4.73378482 45.8106319,5.5609666 46.1608826,6.69909189 L43.4864594,6.69909189 C43.0278837,6.69909189 42.6559679,7.07006311 42.6559679,7.52987533 C42.6559679,7.98848699 43.0146439,8.35825766 43.4732197,8.35825766 L47.0298897,8.35825766 C47.4150451,8.35825766 47.7315948,8.19618285 47.9097292,7.97888256 C48.0577733,7.79639834 48.1323972,7.56949361 48.1191575,7.32338002 C48.0541625,6.02197938 47.4343029,4.79861475 46.4160481,3.9654302" fill="#FFFFFF"></path>
                        <path d="M24.9761284,3.9654302 C24.1336008,3.27871325 23.1237713,2.91494536 22.0561685,2.91494536 C20.6768305,2.91494536 19.379338,3.53203017 18.4946841,4.6089272 C16.8577733,6.60304756 17.1418255,9.44115746 19.1398195,11.073911 C19.9739218,11.7546252 21.0198596,12.1303986 22.088666,12.1303986 C22.3161484,12.1303986 22.5460381,12.1135909 22.7735206,12.0799754 C22.9444333,12.0535632 23.1887663,11.9743266 23.3765296,11.7438202 C23.6954865,11.3560412 23.6353059,10.7593659 23.245336,10.441219 C23.0996991,10.3223642 22.9191575,10.2611359 22.7061184,10.2611359 C22.648345,10.2611359 22.5893681,10.2671387 22.5291876,10.2755426 C22.3955868,10.2971525 22.2571715,10.3055564 22.1175527,10.3055564 C20.4902708,10.3055564 19.2601805,9.05577959 19.2601805,7.51907034 C19.2601805,5.97995998 20.508325,4.73378482 22.0513541,4.73378482 C23.3067202,4.73378482 24.3695085,5.5609666 24.7221665,6.69909189 L22.0465396,6.69909189 C21.5891675,6.69909189 21.2160481,7.07006311 21.2160481,7.52987533 C21.2160481,7.98848699 21.5759278,8.35825766 22.0332999,8.35825766 L25.5899699,8.35825766 C25.9751254,8.35825766 26.291675,8.19618285 26.4686058,7.97888256 C26.6190572,7.79639834 26.6912738,7.56949361 26.6804413,7.32338002 C26.6142427,6.02197938 25.9943831,4.79861475 24.9761284,3.9654302" fill="#FFFFFF"></path>
                    </g>
                    <path d="M107.791775,2.9113437 C106.632698,2.9113437 105.592778,3.36995536 104.894684,4.09028783 C104.19659,3.36995536 103.15667,2.9113437 101.997593,2.9113437 C99.8996991,2.9113437 98.1941825,4.40843466 98.1941825,6.2488841 L98.1941825,10.6441127 C98.1941825,11.1435432 98.5997994,11.5493305 99.1017051,11.5493305 C99.6036108,11.5493305 100.009228,11.1447437 100.009228,10.6441127 L100.009228,6.2488841 C100.009228,5.40609512 100.901103,4.72177928 101.998796,4.72177928 C103.095286,4.72177928 103.988365,5.40729567 103.988365,6.2488841 L103.988365,10.6441127 C103.988365,11.1435432 104.393982,11.5493305 104.895888,11.5493305 C105.39659,11.5493305 105.80341,11.1447437 105.80341,10.6441127 L105.80341,6.28490072 C105.80341,6.27289518 105.805817,6.26088964 105.805817,6.24768355 C105.805817,5.40489457 106.697693,4.72057873 107.795386,4.72057873 C108.891876,4.72057873 109.784955,5.40609512 109.784955,6.24768355 L109.784955,10.6429121 C109.784955,11.1423426 110.190572,11.5481299 110.692477,11.5481299 C111.19318,11.5481299 111.6,11.1435432 111.6,10.6429121 L111.6,6.24768355 C111.595186,4.40843466 109.888465,2.9113437 107.791775,2.9113437 Z" id="Path" fill="#FFC700"></path>
                    <path d="M93.1281846,11.617762 C90.711334,11.617762 88.7458375,9.6572572 88.7458375,7.24654456 C88.7458375,4.83583192 90.711334,2.87532707 93.1281846,2.87532707 C95.5450351,2.87532707 97.5105316,4.83583192 97.5105316,7.24654456 C97.5105316,7.74597507 97.1049147,8.15176235 96.603009,8.15176235 L93.2521565,8.15176235 C92.7514544,8.15176235 92.3446339,7.74597507 92.3446339,7.24654456 C92.3446339,6.74711405 92.7502508,6.34132677 93.2521565,6.34132677 L95.5305918,6.34132677 C95.1634905,5.37488071 94.224674,4.68576266 93.1281846,4.68576266 C91.7127382,4.68576266 90.559679,5.83469294 90.559679,7.24654456 C90.559679,8.65839618 91.7115346,9.80732646 93.1281846,9.80732646 C93.2678034,9.80732646 93.4074223,9.79652147 93.5434303,9.77371094 C94.039318,9.69447437 94.5039117,10.0282284 94.5845537,10.5216561 C94.6651956,11.0150839 94.3293882,11.4796983 93.8347041,11.5601354 C93.6024072,11.5985532 93.3652959,11.617762 93.1281846,11.617762 Z" id="Path" fill="#FFC700"></path>
                    <path d="M76.3077232,11.617762 C73.8908726,11.617762 71.9253761,9.6572572 71.9253761,7.24654456 C71.9253761,4.83583192 73.8920762,2.87532707 76.3077232,2.87532707 C77.5269809,2.87532707 78.7005015,3.38796368 79.5273821,4.28117593 C79.868004,4.64854548 79.8451354,5.22120979 79.4768305,5.55976605 C79.1085256,5.8983223 78.5344032,5.87671233 78.194985,5.50934277 C77.7027081,4.97749731 77.0322969,4.68576266 76.3077232,4.68576266 C74.8922768,4.68576266 73.7404213,5.83469294 73.7404213,7.24654456 C73.7404213,8.65839618 74.8922768,9.80732646 76.3077232,9.80732646 C77.0322969,9.80732646 77.7027081,9.51439126 78.194985,8.98374634 C78.5344032,8.61637679 79.1097292,8.59356626 79.4768305,8.93332307 C79.8451354,9.27307988 79.868004,9.84454364 79.5273821,10.2119132 C78.7005015,11.1051254 77.5269809,11.617762 76.3077232,11.617762 Z" id="Path" fill="#FFC700"></path>
                    <path d="M66.5127382,7.24654456 C66.5127382,7.22013237 66.5115346,7.19372018 66.510331,7.16610743 L66.510331,3.88499307 C66.510331,3.38556257 66.1035105,2.97977528 65.6028084,2.97977528 C65.158676,2.97977528 64.7903711,3.29792212 64.7121364,3.7169155 C63.9875627,3.18747114 63.0944835,2.87532707 62.1303912,2.87532707 C59.7135406,2.87532707 57.7480441,4.83583192 57.7480441,7.24654456 C57.7480441,9.6572572 59.7147442,11.617762 62.1303912,11.617762 C63.0956871,11.617762 63.9875627,11.3044174 64.7121364,10.7749731 C64.7915747,11.195167 65.1598796,11.5121133 65.6028084,11.5121133 C66.1035105,11.5121133 66.510331,11.1075266 66.510331,10.6068955 L66.510331,7.32578113 C66.5115346,7.29936894 66.5127382,7.27295675 66.5127382,7.24654456 Z M62.1303912,9.80732646 C60.7149448,9.80732646 59.5630893,8.65839618 59.5630893,7.24654456 C59.5630893,5.83469294 60.7149448,4.68576266 62.1303912,4.68576266 C63.5193581,4.68576266 64.6531595,5.79147299 64.6964895,7.16730799 L64.6964895,7.32698168 C64.6531595,8.70161613 63.5193581,9.80732646 62.1303912,9.80732646 Z" id="Shape" fill="#FFC700"></path>
                    <path d="M71.6930792,9.80732646 C70.2776329,9.80732646 69.1245737,8.65839618 69.1245737,7.24654456 L69.1245737,0.972448823 C69.1245737,0.473018316 68.7189569,0.0672310297 68.2170512,0.0672310297 C67.7151454,0.0672310297 67.3095286,0.473018316 67.3095286,0.972448823 L67.3095286,7.24654456 C67.3095286,9.6572572 69.2750251,11.617762 71.6918756,11.617762 C72.1925777,11.617762 72.5994009,11.2131753 72.5994009,10.7125443 C72.6006018,10.2131137 72.194985,9.80732646 71.6930792,9.80732646 Z" id="Path" fill="#FFC700"></path>
                    <path d="M84.2154463,2.87532707 C83.4872618,2.87532707 82.8060181,3.05661074 82.2258776,3.36995536 L82.2258776,0.972448823 C82.2258776,0.473018316 81.8202608,0.0672310297 81.3183551,0.0672310297 C80.8164493,0.0672310297 80.4108325,0.473018316 80.4108325,0.972448823 L80.4108325,10.608096 C80.4108325,11.1075266 80.8164493,11.5133138 81.3183551,11.5133138 C81.8202608,11.5133138 82.2258776,11.1087271 82.2258776,10.608096 L82.2258776,6.21286748 C82.2258776,5.3700785 83.1177533,4.68576266 84.2154463,4.68576266 C85.3119358,4.68576266 86.205015,5.37127905 86.205015,6.21286748 L86.205015,10.608096 C86.205015,11.1075266 86.6106319,11.5133138 87.1125376,11.5133138 C87.6132397,11.5133138 88.0200602,11.1087271 88.0200602,10.608096 L88.0200602,6.21286748 C88.0200602,4.37241804 86.31334,2.87532707 84.2154463,2.87532707 Z" id="Path" fill="#FFC700"></path>
                    <path d="M119.949448,11.7942435 C119.949448,11.7834385 119.950652,11.7726335 119.950652,11.7618285 L119.950652,3.88499307 C119.950652,3.38556257 119.545035,2.97977528 119.043129,2.97977528 C118.542427,2.97977528 118.135607,3.38556257 118.135607,3.88499307 L118.135607,8.28022164 C118.135607,9.12301062 117.243731,9.80732646 116.146038,9.80732646 C115.049549,9.80732646 114.156469,9.12181007 114.156469,8.28022164 L114.156469,8.07012467 L114.156469,3.88499307 C114.156469,3.38556257 113.750853,2.97977528 113.248947,2.97977528 C112.747041,2.97977528 112.341424,3.38556257 112.341424,3.88499307 L112.341424,8.07012467 L112.341424,8.28022164 C112.341424,10.1206711 114.048144,11.617762 116.144835,11.617762 C116.873019,11.617762 117.554263,11.4364784 118.134403,11.1231338 L118.134403,11.7618285 C118.134403,11.7858396 118.135607,11.8098507 118.138014,11.8338618 C118.138014,11.8446668 118.13681,11.8554718 118.13681,11.8662767 C118.13681,13.2781284 116.984955,14.4270586 115.569509,14.4270586 C115.068806,14.4270586 114.661986,14.8316454 114.661986,15.3322764 C114.661986,15.8317069 115.067603,16.2374942 115.569509,16.2374942 C117.986359,16.2374942 119.951856,14.2769894 119.951856,11.8662767 C119.953059,11.8422657 119.951856,11.8182546 119.949448,11.7942435 Z" id="Path" fill="#FFC700"></path>
                </g>
                <g id="Group" transform="translate(0.000000, 15.727259)">
                    <g id="Path">
                        <path d="M0.949648947,1.91488379 C1.46118355,1.91488379 1.87281846,1.50189318 1.87281846,0.992858242 C1.87281846,0.483823303 1.45997994,0.0696321379 0.949648947,0.0696321379 C0.439317954,0.0696321379 0.02527321,0.482622749 0.02527321,0.992858242 C0.0240722166,1.50309374 0.438114343,1.91488379 0.949648947,1.91488379" fill="#FFC700"></path>
                        <path d="M31.9630893,3.07581961 L31.9618857,3.07942127 L31.9630893,3.07581961 C30.5825476,3.07581961 29.2850552,3.69410497 28.4004012,4.771002 C27.7191575,5.59938433 27.3448345,6.64146529 27.3472302,7.70035401 L27.3472302,11.2227797 C27.3472302,11.7678313 27.7323972,12.1496075 28.2848546,12.1496075 C28.8409228,12.1496075 29.217653,11.7774357 29.217653,11.2227797 L29.217653,7.65953517 C29.2224674,7.03284593 29.4415246,6.42296445 29.8375125,5.9427428 C30.358676,5.30644913 31.1362086,4.94028013 31.9654965,4.94028013 L31.9654965,4.93907958 L31.9943831,4.93907958 C32.2170512,4.93907958 32.4349047,4.86224411 32.6058175,4.72297984 C32.795988,4.5669078 32.9187563,4.35440973 32.9476429,4.12150223 C32.9801404,3.87418809 32.9055165,3.63407727 32.7358074,3.42638141 C32.4974925,3.13704787 32.1857573,3.07581961 31.9630893,3.07581961" fill="#FFFFFF"></path>
                        <path d="M7.02427282,2.87412652 C4.6663992,2.87412652 3.01985958,4.44445129 3.01985958,6.69188856 L3.01985958,9.73409266 L3.02106319,9.75810374 C3.00782347,10.0654456 2.7550652,10.3055564 2.44934804,10.3055564 C2.14724173,10.3055564 1.89929789,10.0714484 1.87642929,9.77851316 L1.87281846,9.77851316 L1.87281846,3.71211328 C1.87281846,3.16706172 1.49127382,2.78528552 0.946038114,2.78528552 C0.399598796,2.78528552 0.0180541625,3.16706172 0.0180541625,3.71211328 L0.0180541625,9.73409266 C0.0180541625,11.0691088 1.10732197,12.1568108 2.44332999,12.1568108 C3.73119358,12.1568108 4.79759278,11.1531476 4.86740221,9.86735416 C4.87342026,9.82413422 4.8782347,9.77971371 4.8782347,9.73529321 L4.8782347,6.80113899 C4.8782347,5.52014776 5.74122367,4.65935047 7.02668004,4.65935047 C8.3109328,4.65935047 9.17392177,5.52014776 9.17392177,6.80113899 L9.17392177,11.2251809 C9.17392177,11.7702324 9.55667001,12.1520086 10.1031093,12.1520086 C10.6495486,12.1520086 11.0310933,11.7702324 11.0310933,11.2251809 L11.0310933,6.69308912 C11.0286861,4.44445129 9.38094283,2.87412652 7.02427282,2.87412652" fill="#FFFFFF"></path>
                        <path d="M16.6832497,10.3055564 C16.0958877,10.3031553 15.4808425,10.0618439 14.9524574,9.62964445 C14.3085256,9.10380175 13.9366098,8.32104048 13.9426279,7.48545483 L13.9426279,4.93427736 L15.8118355,4.93427736 C16.3101304,4.93427736 16.7121364,4.53449284 16.7121364,4.03746344 C16.7121364,3.53923349 16.3065196,3.13704787 15.8106319,3.13704787 L13.9426279,3.13704787 L13.9426279,0.996459905 C13.9426279,0.451408342 13.5550652,0.070832692 13.0086259,0.070832692 C12.4609829,0.070832692 12.0782347,0.451408342 12.0782347,0.996459905 L12.0782347,7.48785593 C12.0806419,8.87569648 12.689669,10.1758966 13.7765296,11.063106 C14.6274824,11.7594274 15.5891675,12.1135909 16.6314945,12.1135909 L16.642327,12.1135909 C17.1887663,12.1135909 17.5703109,11.7294136 17.5703109,11.1783592 C17.5703109,10.6573188 17.2164493,10.3079575 16.6832497,10.3055564" fill="#FFFFFF"></path>
                        <path d="M56.5203611,10.4532246 L52.9480441,6.88877944 L55.6657974,4.5669078 C55.8583751,4.3916269 55.9883651,4.0986917 55.9883651,3.84057257 C55.9883651,3.29552101 55.6068205,2.91494536 55.0603811,2.91494536 C54.7919759,2.91494536 54.5007021,3.03500077 54.2792377,3.23789441 L50.9175527,6.11082038 L50.9175527,0.99525935 C50.9175527,0.449007234 50.536008,0.0684315838 49.9895687,0.0684315838 C49.4431294,0.0684315838 49.0603811,0.449007234 49.0603811,0.99525935 L49.0603811,11.2335847 C49.0603811,11.7786363 49.4419258,12.1592119 49.9895687,12.1592119 C50.5348044,12.1592119 50.9175527,11.7786363 50.9175527,11.2335847 L50.9175527,8.72562721 C50.9187563,8.59716792 50.9741224,8.46750808 51.0776329,8.37506541 C51.2750251,8.19978452 51.5675025,8.22499615 51.7528586,8.4146837 L55.1903711,11.838664 C55.3648947,12.0319532 55.6561685,12.1604125 55.9185557,12.1604125 C56.4637914,12.1604125 56.845336,11.7798368 56.845336,11.2347853 C56.8441324,10.9670617 56.7225677,10.6753271 56.5203611,10.4532246" fill="#FFFFFF"></path>
                        <path d="M38.1496489,10.3055564 C37.5610832,10.3031553 36.9472417,10.0618439 36.417653,9.62964445 C35.7737212,9.10380175 35.4018054,8.32104048 35.4078235,7.48545483 L35.4078235,4.93427736 L37.2734203,4.93427736 C37.7741224,4.93427736 38.1352056,4.55730337 38.1352056,4.03506234 C38.1352056,3.51522241 37.7741224,3.13704787 37.2734203,3.13704787 L35.4078235,3.13704787 L35.4078235,0.996459905 C35.4078235,0.451408342 35.0202608,0.070832692 34.4726179,0.070832692 C33.9273821,0.070832692 33.5434303,0.451408342 33.5434303,0.996459905 L33.5434303,7.48785593 C33.5446339,8.87569648 34.153661,10.1758966 35.2405216,11.063106 C36.0938816,11.7594274 37.0555667,12.1135909 38.0966901,12.1135909 L38.106319,12.1135909 C38.6527583,12.1135909 39.0367132,11.7294136 39.0367132,11.1783592 C39.0379137,10.6573188 38.6828485,10.3079575 38.1496489,10.3055564" fill="#FFFFFF"></path>
                        <path d="M46.4160481,3.9654302 C45.5735206,3.27871325 44.5636911,2.91494536 43.4948847,2.91494536 C42.1167503,2.91494536 40.8204614,3.53203017 39.9346038,4.6089272 C38.2976931,6.60304756 38.5805416,9.44115746 40.5785356,11.073911 C41.4126379,11.7546252 42.4597793,12.1303986 43.5273821,12.1303986 C43.7572718,12.1303986 43.9871615,12.1135909 44.2146439,12.0799754 C44.3855567,12.0535632 44.6286861,11.9743266 44.817653,11.7438202 C45.1354062,11.3560412 45.0752257,10.7593659 44.687663,10.441219 C44.5408225,10.3223642 44.3590772,10.2611359 44.1472417,10.2611359 C44.0894684,10.2611359 44.0304915,10.2671387 43.9703109,10.2755426 C43.8367101,10.2971525 43.6982949,10.3055564 43.558676,10.3055564 C41.9313942,10.3055564 40.7001003,9.05577959 40.7001003,7.51907034 C40.7001003,5.97995998 41.9494483,4.73378482 43.4912738,4.73378482 C44.7478435,4.73378482 45.8106319,5.5609666 46.1608826,6.69909189 L43.4864594,6.69909189 C43.0278837,6.69909189 42.6559679,7.07006311 42.6559679,7.52987533 C42.6559679,7.98848699 43.0146439,8.35825766 43.4732197,8.35825766 L47.0298897,8.35825766 C47.4150451,8.35825766 47.7315948,8.19618285 47.9097292,7.97888256 C48.0577733,7.79639834 48.1323972,7.56949361 48.1191575,7.32338002 C48.0541625,6.02197938 47.4343029,4.79861475 46.4160481,3.9654302" fill="#FFFFFF"></path>
                        <path d="M24.9761284,3.9654302 C24.1336008,3.27871325 23.1237713,2.91494536 22.0561685,2.91494536 C20.6768305,2.91494536 19.379338,3.53203017 18.4946841,4.6089272 C16.8577733,6.60304756 17.1418255,9.44115746 19.1398195,11.073911 C19.9739218,11.7546252 21.0198596,12.1303986 22.088666,12.1303986 C22.3161484,12.1303986 22.5460381,12.1135909 22.7735206,12.0799754 C22.9444333,12.0535632 23.1887663,11.9743266 23.3765296,11.7438202 C23.6954865,11.3560412 23.6353059,10.7593659 23.245336,10.441219 C23.0996991,10.3223642 22.9191575,10.2611359 22.7061184,10.2611359 C22.648345,10.2611359 22.5893681,10.2671387 22.5291876,10.2755426 C22.3955868,10.2971525 22.2571715,10.3055564 22.1175527,10.3055564 C20.4902708,10.3055564 19.2601805,9.05577959 19.2601805,7.51907034 C19.2601805,5.97995998 20.508325,4.73378482 22.0513541,4.73378482 C23.3067202,4.73378482 24.3695085,5.5609666 24.7221665,6.69909189 L22.0465396,6.69909189 C21.5891675,6.69909189 21.2160481,7.07006311 21.2160481,7.52987533 C21.2160481,7.98848699 21.5759278,8.35825766 22.0332999,8.35825766 L25.5899699,8.35825766 C25.9751254,8.35825766 26.291675,8.19618285 26.4686058,7.97888256 C26.6190572,7.79639834 26.6912738,7.56949361 26.6804413,7.32338002 C26.6142427,6.02197938 25.9943831,4.79861475 24.9761284,3.9654302" fill="#FFFFFF"></path>
                    </g>
                    <path d="M107.791775,2.9113437 C106.632698,2.9113437 105.592778,3.36995536 104.894684,4.09028783 C104.19659,3.36995536 103.15667,2.9113437 101.997593,2.9113437 C99.8996991,2.9113437 98.1941825,4.40843466 98.1941825,6.2488841 L98.1941825,10.6441127 C98.1941825,11.1435432 98.5997994,11.5493305 99.1017051,11.5493305 C99.6036108,11.5493305 100.009228,11.1447437 100.009228,10.6441127 L100.009228,6.2488841 C100.009228,5.40609512 100.901103,4.72177928 101.998796,4.72177928 C103.095286,4.72177928 103.988365,5.40729567 103.988365,6.2488841 L103.988365,10.6441127 C103.988365,11.1435432 104.393982,11.5493305 104.895888,11.5493305 C105.39659,11.5493305 105.80341,11.1447437 105.80341,10.6441127 L105.80341,6.28490072 C105.80341,6.27289518 105.805817,6.26088964 105.805817,6.24768355 C105.805817,5.40489457 106.697693,4.72057873 107.795386,4.72057873 C108.891876,4.72057873 109.784955,5.40609512 109.784955,6.24768355 L109.784955,10.6429121 C109.784955,11.1423426 110.190572,11.5481299 110.692477,11.5481299 C111.19318,11.5481299 111.6,11.1435432 111.6,10.6429121 L111.6,6.24768355 C111.595186,4.40843466 109.888465,2.9113437 107.791775,2.9113437 Z" id="Path" fill="#FFC700"></path>
                    <path d="M93.1281846,11.617762 C90.711334,11.617762 88.7458375,9.6572572 88.7458375,7.24654456 C88.7458375,4.83583192 90.711334,2.87532707 93.1281846,2.87532707 C95.5450351,2.87532707 97.5105316,4.83583192 97.5105316,7.24654456 C97.5105316,7.74597507 97.1049147,8.15176235 96.603009,8.15176235 L93.2521565,8.15176235 C92.7514544,8.15176235 92.3446339,7.74597507 92.3446339,7.24654456 C92.3446339,6.74711405 92.7502508,6.34132677 93.2521565,6.34132677 L95.5305918,6.34132677 C95.1634905,5.37488071 94.224674,4.68576266 93.1281846,4.68576266 C91.7127382,4.68576266 90.559679,5.83469294 90.559679,7.24654456 C90.559679,8.65839618 91.7115346,9.80732646 93.1281846,9.80732646 C93.2678034,9.80732646 93.4074223,9.79652147 93.5434303,9.77371094 C94.039318,9.69447437 94.5039117,10.0282284 94.5845537,10.5216561 C94.6651956,11.0150839 94.3293882,11.4796983 93.8347041,11.5601354 C93.6024072,11.5985532 93.3652959,11.617762 93.1281846,11.617762 Z" id="Path" fill="#FFC700"></path>
                    <path d="M76.3077232,11.617762 C73.8908726,11.617762 71.9253761,9.6572572 71.9253761,7.24654456 C71.9253761,4.83583192 73.8920762,2.87532707 76.3077232,2.87532707 C77.5269809,2.87532707 78.7005015,3.38796368 79.5273821,4.28117593 C79.868004,4.64854548 79.8451354,5.22120979 79.4768305,5.55976605 C79.1085256,5.8983223 78.5344032,5.87671233 78.194985,5.50934277 C77.7027081,4.97749731 77.0322969,4.68576266 76.3077232,4.68576266 C74.8922768,4.68576266 73.7404213,5.83469294 73.7404213,7.24654456 C73.7404213,8.65839618 74.8922768,9.80732646 76.3077232,9.80732646 C77.0322969,9.80732646 77.7027081,9.51439126 78.194985,8.98374634 C78.5344032,8.61637679 79.1097292,8.59356626 79.4768305,8.93332307 C79.8451354,9.27307988 79.868004,9.84454364 79.5273821,10.2119132 C78.7005015,11.1051254 77.5269809,11.617762 76.3077232,11.617762 Z" id="Path" fill="#FFC700"></path>
                    <path d="M66.5127382,7.24654456 C66.5127382,7.22013237 66.5115346,7.19372018 66.510331,7.16610743 L66.510331,3.88499307 C66.510331,3.38556257 66.1035105,2.97977528 65.6028084,2.97977528 C65.158676,2.97977528 64.7903711,3.29792212 64.7121364,3.7169155 C63.9875627,3.18747114 63.0944835,2.87532707 62.1303912,2.87532707 C59.7135406,2.87532707 57.7480441,4.83583192 57.7480441,7.24654456 C57.7480441,9.6572572 59.7147442,11.617762 62.1303912,11.617762 C63.0956871,11.617762 63.9875627,11.3044174 64.7121364,10.7749731 C64.7915747,11.195167 65.1598796,11.5121133 65.6028084,11.5121133 C66.1035105,11.5121133 66.510331,11.1075266 66.510331,10.6068955 L66.510331,7.32578113 C66.5115346,7.29936894 66.5127382,7.27295675 66.5127382,7.24654456 Z M62.1303912,9.80732646 C60.7149448,9.80732646 59.5630893,8.65839618 59.5630893,7.24654456 C59.5630893,5.83469294 60.7149448,4.68576266 62.1303912,4.68576266 C63.5193581,4.68576266 64.6531595,5.79147299 64.6964895,7.16730799 L64.6964895,7.32698168 C64.6531595,8.70161613 63.5193581,9.80732646 62.1303912,9.80732646 Z" id="Shape" fill="#FFC700"></path>
                    <path d="M71.6930792,9.80732646 C70.2776329,9.80732646 69.1245737,8.65839618 69.1245737,7.24654456 L69.1245737,0.972448823 C69.1245737,0.473018316 68.7189569,0.0672310297 68.2170512,0.0672310297 C67.7151454,0.0672310297 67.3095286,0.473018316 67.3095286,0.972448823 L67.3095286,7.24654456 C67.3095286,9.6572572 69.2750251,11.617762 71.6918756,11.617762 C72.1925777,11.617762 72.5994009,11.2131753 72.5994009,10.7125443 C72.6006018,10.2131137 72.194985,9.80732646 71.6930792,9.80732646 Z" id="Path" fill="#FFC700"></path>
                    <path d="M84.2154463,2.87532707 C83.4872618,2.87532707 82.8060181,3.05661074 82.2258776,3.36995536 L82.2258776,0.972448823 C82.2258776,0.473018316 81.8202608,0.0672310297 81.3183551,0.0672310297 C80.8164493,0.0672310297 80.4108325,0.473018316 80.4108325,0.972448823 L80.4108325,10.608096 C80.4108325,11.1075266 80.8164493,11.5133138 81.3183551,11.5133138 C81.8202608,11.5133138 82.2258776,11.1087271 82.2258776,10.608096 L82.2258776,6.21286748 C82.2258776,5.3700785 83.1177533,4.68576266 84.2154463,4.68576266 C85.3119358,4.68576266 86.205015,5.37127905 86.205015,6.21286748 L86.205015,10.608096 C86.205015,11.1075266 86.6106319,11.5133138 87.1125376,11.5133138 C87.6132397,11.5133138 88.0200602,11.1087271 88.0200602,10.608096 L88.0200602,6.21286748 C88.0200602,4.37241804 86.31334,2.87532707 84.2154463,2.87532707 Z" id="Path" fill="#FFC700"></path>
                    <path d="M119.949448,11.7942435 C119.949448,11.7834385 119.950652,11.7726335 119.950652,11.7618285 L119.950652,3.88499307 C119.950652,3.38556257 119.545035,2.97977528 119.043129,2.97977528 C118.542427,2.97977528 118.135607,3.38556257 118.135607,3.88499307 L118.135607,8.28022164 C118.135607,9.12301062 117.243731,9.80732646 116.146038,9.80732646 C115.049549,9.80732646 114.156469,9.12181007 114.156469,8.28022164 L114.156469,8.07012467 L114.156469,3.88499307 C114.156469,3.38556257 113.750853,2.97977528 113.248947,2.97977528 C112.747041,2.97977528 112.341424,3.38556257 112.341424,3.88499307 L112.341424,8.07012467 L112.341424,8.28022164 C112.341424,10.1206711 114.048144,11.617762 116.144835,11.617762 C116.873019,11.617762 117.554263,11.4364784 118.134403,11.1231338 L118.134403,11.7618285 C118.134403,11.7858396 118.135607,11.8098507 118.138014,11.8338618 C118.138014,11.8446668 118.13681,11.8554718 118.13681,11.8662767 C118.13681,13.2781284 116.984955,14.4270586 115.569509,14.4270586 C115.068806,14.4270586 114.661986,14.8316454 114.661986,15.3322764 C114.661986,15.8317069 115.067603,16.2374942 115.569509,16.2374942 C117.986359,16.2374942 119.951856,14.2769894 119.951856,11.8662767 C119.953059,11.8422657 119.951856,11.8182546 119.949448,11.7942435 Z" id="Path" fill="#FFC700"></path>
                </g>
            </g>
        </g>
    </g>
</svg>