<?xml version="1.0" encoding="UTF-8"?>
<svg width="130px" height="51px" viewBox="0 0 797 299" version="1.1" xmlns="http://www.w3.org/2000/svg" xmlns:xlink="http://www.w3.org/1999/xlink">
    <title>Group 2</title>
    <g id="Page-1" stroke="none" stroke-width="1" fill="#000000" fill-rule="evenodd">
        <g id="Group-2" transform="translate(0.100000, 0.000000)" fill-rule="nonzero">
            <path d="M13.9,10.6 C16.8,10.6 19.2,8.2 19.2,5.3 C19.2,2.4 16.8,-4.52970994e-14 13.9,-4.52970994e-14 C11,-4.52970994e-14 8.6,2.4 8.6,5.3 C8.6,8.3 11,10.6 13.9,10.6" id="Path" fill="#000000"></path>
            <path d="M191.9,17.3 L192.080306,17.3025545 C193.363223,17.338843 195.072727,17.7727273 196.6,19.3 C197.6,20.5 198,21.9 197.8,23.3 C197.6,24.7 196.9,25.9 195.8,26.8 C194.8,27.6 193.6,28 192.3,28 L192.3,28 L192.1,28 L191.708824,28.0048504 C187.151157,28.1179012 182.816667,30.2027778 179.9,33.8 C177.6,36.6 176.3,40.1 176.3,43.7 L176.3,43.7 L176.3,64.3 C176.3,67.5 174.1,69.6 170.9,69.6 C167.7,69.6 165.5,67.4 165.5,64.3 L165.5,64.3 L165.5,44 C165.4,37.9 167.6,31.9 171.5,27.1 C176.5,20.9 184,17.3 191.9,17.3 L191.9,17.3 Z M295.5,-1.0658141e-13 C298.6,-1.0658141e-13 300.8,2.2 300.8,5.3 L300.8,5.3 L300.8,34.8 L320.1,18.3 C321.4,17.1 323.1,16.4 324.6,16.4 C327.7,16.4 329.9,18.6 329.9,21.7 C329.9,23.2 329.1,24.9 328,25.9 L328,25.9 L312.4,39.3 L332.9,59.8 C334,61 334.7,62.7 334.8,64.3 C334.8,67.4 332.6,69.6 329.5,69.6 C328,69.6 326.3,68.8 325.3,67.7 L325.3,67.7 L305.6,48 C304.5,46.9 302.8,46.8 301.7,47.8 C301.1,48.3 300.8,49.1 300.8,49.8 L300.8,49.8 L300.8,64.2 C300.8,67.3 298.6,69.5 295.5,69.5 C292.4,69.5 290.2,67.3 290.2,64.2 L290.2,64.2 L290.2,5.3 C290.2,2.2 292.4,-1.0658141e-13 295.5,-1.0658141e-13 Z M13.9,15.7 C17,15.7 19.2,17.9 19.2,21 L19.2,21 L19.2,56 L19.2160168,56.1805712 C19.407398,57.791199 20.8607143,59 22.5,59 C24.3,59 25.7,57.6 25.8,55.8 L25.8,55.8 L25.8,38.2 C25.8,25.2 35.3,16.2 48.8,16.2 C62.3,16.2 71.8,25.2 71.7,38.1 L71.7,64.2 C71.7,67.3 69.5,69.5 66.4,69.5 C63.3,69.5 61.1,67.3 61.1,64.2 L61.1,64.2 L61.1,38.7 C61.1,31.4 56.2,26.4 48.8,26.4 C41.5,26.4 36.5,31.3 36.5,38.7 L36.5,38.7 L36.5,55.5 C36.5,55.8 36.4,56 36.4,56.3 C36,63.7 29.9,69.5 22.5,69.5 C14.8,69.5 8.6,63.3 8.6,55.6 L8.6,55.6 L8.6,21 C8.6,17.9 10.8,15.7 13.9,15.7 Z M258.1,16.4 C264.3,16.4 270.1,18.4 274.9,22.4 C280.7,27.2 284.3,34.3 284.6,41.9 C284.7,43.3 284.3,44.7 283.4,45.7 C282.4,47 280.6,47.9 278.4,47.9 L278.4,47.9 L258,47.9 C255.4,47.9 253.3,45.7 253.3,43.1 C253.3,40.4 255.5,38.3 258.1,38.3 L258.1,38.3 L273.4,38.3 C271.4,31.8 265.3,27 258.1,27 C249.3,27 242.1,34.1 242.1,43 C242.1,51.8 249.2,59 258.5,59 C259.3,59 260.1,58.9 260.9,58.8 C261.2,58.7 261.6,58.7 261.9,58.7 C263.1,58.7 264.2,59 265,59.7 C267.2,61.5 267.5,65 265.7,67.2 C264.6,68.5 263.2,68.9 262.2,69.1 C260.9,69.3 259.6,69.4 258.3,69.4 C252.2,69.4 246.2,67.2 241.4,63.3 C229.9,53.9 228.3,37.6 237.7,26.1 C242.7,20 250.2,16.4 258.1,16.4 Z M135,16.4 C141.2,16.4 147,18.4 151.8,22.4 C157.7,27.2 161.2,34.3 161.3,41.9 C161.4,43.3 161,44.7 160.1,45.7 C159.1,47 157.3,47.9 155.1,47.9 L155.1,47.9 L134.7,47.9 C132.1,47.9 130,45.7 130,43.1 C130,40.4 132.2,38.3 134.8,38.3 L134.8,38.3 L150.2,38.3 C148.2,31.8 142.1,27 134.9,27 C126.1,27 118.9,34.1 118.9,43 C118.9,51.8 126,59 135.3,59 C136.1,59 136.9,58.9 137.7,58.8 C138,58.7 138.4,58.7 138.7,58.7 C139.9,58.7 141,59 141.8,59.7 C144.1,61.5 144.4,65 142.6,67.2 C141.5,68.5 140.1,68.9 139.1,69.1 C137.8,69.3 136.5,69.4 135.2,69.4 C129.1,69.4 123.1,67.2 118.3,63.3 C106.8,53.9 105.2,37.6 114.6,26.1 C119.6,20 127.1,16.4 135,16.4 Z M83.1,-7.81597009e-14 C86.3,-7.81597009e-14 88.5,2.2 88.5,5.3 L88.5,5.3 L88.5,17.6 L99.2,17.6 C102.1,17.6 104.4,19.9 104.4,22.8 C104.4,25.7 102.1,28 99.2,28 L99.2,28 L88.5,28 L88.5,42.7 C88.5,47.5 90.6,52 94.3,55 C97.3,57.5 100.8,58.9 104.2,58.9 C107.3,58.9 109.3,60.9 109.4,63.9 C109.4,67.1 107.2,69.3 104.1,69.3 L104.1,69.3 L104,69.3 C98,69.3 92.5,67.3 87.6,63.3 C81.3,58.2 77.8,50.7 77.8,42.7 L77.8,42.7 L77.8,5.3 C77.8,2.2 80,-7.81597009e-14 83.1,-7.81597009e-14 Z M206.3,-7.81597009e-14 C209.5,-7.81597009e-14 211.7,2.2 211.7,5.3 L211.7,5.3 L211.7,17.6 L222.4,17.6 C225.2,17.6 227.3,19.8 227.3,22.8 C227.3,25.8 225.3,28 222.4,28 L222.4,28 L211.7,28 L211.7,42.7 C211.7,47.5 213.8,52 217.5,55 C220.5,57.5 224,58.9 227.4,58.9 C230.5,58.9 232.5,60.9 232.5,63.9 C232.5,67.1 230.3,69.3 227.2,69.3 L227.2,69.3 L227.1,69.3 C221.1,69.3 215.6,67.3 210.7,63.3 C204.5,58.2 201,50.7 201,42.7 L201,42.7 L201,5.3 C201,2.2 203.2,-7.81597009e-14 206.3,-7.81597009e-14 Z" id="Combined-Shape" fill="#000000"></path>
            <path d="M639.8,128.2 C625,128.2 611.7,134.1 602.8,143.3 C593.9,134.1 580.6,128.2 565.8,128.2 C539,128.2 517.2,147.4 517.2,171 L517.2,227.3 C517.2,233.7 522.4,238.9 528.8,238.9 C535.2,238.9 540.4,233.7 540.4,227.3 L540.4,171 C540.4,160.2 551.8,151.4 565.8,151.4 C579.8,151.4 591.2,160.2 591.2,171 L591.2,227.3 C591.2,233.7 596.4,238.9 602.8,238.9 C609.2,238.9 614.4,233.7 614.4,227.3 L614.4,171.4 C614.4,171.2 614.4,171.1 614.4,170.9 C614.4,160.1 625.8,151.3 639.8,151.3 C653.8,151.3 665.2,160.1 665.2,170.9 L665.2,227.2 C665.2,233.6 670.4,238.8 676.8,238.8 C683.2,238.8 688.4,233.6 688.4,227.2 L688.4,171 C688.4,147.4 666.6,128.2 639.8,128.2 Z" id="Path" fill="#FFC700"></path>
            <path d="M452.3,239.8 C421.4,239.8 396.3,214.7 396.3,183.8 C396.3,152.9 421.4,127.8 452.3,127.8 C483.2,127.8 508.3,152.9 508.3,183.8 C508.3,190.2 503.1,195.4 496.7,195.4 L453.9,195.4 C447.5,195.4 442.3,190.2 442.3,183.8 C442.3,177.4 447.5,172.2 453.9,172.2 L483,172.2 C478.3,159.8 466.3,151 452.3,151 C434.2,151 419.5,165.7 419.5,183.8 C419.5,201.9 434.2,216.6 452.3,216.6 C454.1,216.6 455.9,216.5 457.6,216.2 C463.9,215.2 469.9,219.5 470.9,225.8 C471.9,232.1 467.6,238.1 461.3,239.1 C458.3,239.6 455.3,239.8 452.3,239.8 Z" id="Path" fill="#FFC700"></path>
            <path d="M237.2,239.8 C206.3,239.8 181.2,214.7 181.2,183.8 C181.2,152.9 206.3,127.8 237.2,127.8 C252.8,127.8 267.8,134.4 278.4,145.8 C282.7,150.5 282.5,157.8 277.7,162.2 C273,166.5 265.7,166.3 261.3,161.5 C255,154.7 246.4,150.9 237.2,150.9 C219.1,150.9 204.4,165.6 204.4,183.7 C204.4,201.8 219.1,216.5 237.2,216.5 C246.5,216.5 255,212.7 261.3,205.9 C265.6,201.2 273,200.9 277.7,205.2 C282.4,209.5 282.7,216.9 278.4,221.6 C267.8,233.2 252.8,239.8 237.2,239.8 Z" id="Path" fill="#FFC700"></path>
            <path d="M112,183.8 C112,183.5 112,183.1 112,182.8 L112,140.7 C112,134.3 106.8,129.1 100.4,129.1 C94.7,129.1 90,133.2 89,138.6 C79.7,131.8 68.3,127.8 56,127.8 C25.1,127.8 0,152.9 0,183.8 C0,214.7 25.1,239.8 56,239.8 C68.3,239.8 79.7,235.8 89,229 C90,234.4 94.7,238.5 100.4,238.5 C106.8,238.5 112,233.3 112,226.9 L112,184.8 C112,184.5 112,184.1 112,183.8 Z M55.9,216.6 C37.8,216.6 23.1,201.9 23.1,183.8 C23.1,165.7 37.8,151 55.9,151 C73.7,151 88.2,165.2 88.7,182.8 L88.7,184.8 C88.2,202.4 73.7,216.6 55.9,216.6 Z" id="Shape" fill="#FFC700"></path>
            <path d="M178.2,216.6 C160.1,216.6 145.4,201.9 145.4,183.8 L145.4,103.4 C145.4,97 140.2,91.8 133.8,91.8 C127.4,91.8 122.2,97 122.2,103.4 L122.2,183.8 C122.2,214.7 147.3,239.8 178.2,239.8 C184.6,239.8 189.8,234.6 189.8,228.2 C189.8,221.8 184.6,216.6 178.2,216.6 Z" id="Path" fill="#FFC700"></path>
            <path d="M338.3,127.7 C329,127.7 320.3,130 312.9,134 L312.9,103.3 C312.9,96.9 307.7,91.7 301.3,91.7 C294.9,91.7 289.7,96.9 289.7,103.3 L289.7,226.8 C289.7,233.2 294.9,238.4 301.3,238.4 C307.7,238.4 312.9,233.2 312.9,226.8 L312.9,170.5 C312.9,159.7 324.3,150.9 338.3,150.9 C352.3,150.9 363.7,159.7 363.7,170.5 L363.7,226.8 C363.7,233.2 368.9,238.4 375.3,238.4 C381.7,238.4 386.900341,233.2 386.900341,226.8 L386.900341,170.5 C387,146.9 365.1,127.7 338.3,127.7 Z" id="Path" fill="#FFC700"></path>
            <path d="M795.2,242.1 C795.2,242 795.2,241.8 795.2,241.7 L795.2,140.7 C795.2,134.3 790,129.1 783.6,129.1 C777.2,129.1 772,134.3 772,140.7 L772,197 C772,207.8 760.6,216.6 746.6,216.6 C732.6,216.6 721.2,207.8 721.2,197 L721.2,194.3 L721.2,140.6 C721.2,134.2 716,129 709.6,129 C703.2,129 698,134.2 698,140.6 L698,194.3 L698,197 C698,220.6 719.8,239.8 746.6,239.8 C755.9,239.8 764.6,237.5 772,233.5 L772,241.7 C772,242 772,242.3 772,242.6 C772,242.7 772,242.9 772,243 C772,261.1 757.3,275.8 739.2,275.8 C732.8,275.8 727.6,281 727.6,287.4 C727.6,293.8 732.8,299 739.2,299 C770.1,299 795.2,273.9 795.2,243 C795.3,242.7 795.2,242.4 795.2,242.1 Z" id="Path" fill="#FFC700"></path>
        </g>
    </g>
</svg>