
<svg xmlns="http://www.w3.org/2000/svg" width="90" height="35" viewBox="0 0 90 35">
    <g fill="none" fill-rule="evenodd">
        <g>
            <g>
                <path fill="#F7C024" d="M88.367 18.283c.86 0 1.557-.69 1.557-1.543 0-.851-.697-1.542-1.557-1.542s-1.557.69-1.557 1.542c0 .852.697 1.543 1.557 1.543zM20.722 4.989c-.007.86-.214 1.793-.724 2.769-.896 1.715-2.359 2.815-3.65 3.786-1.616 1.216-3.012 2.265-3.36 4.348-.337 2.019.935 3.595 2.4 4.706.006-.86.214-1.793.724-2.769.895-1.714 2.358-2.815 3.65-3.786 1.616-1.215 3.012-2.265 3.36-4.347.336-2.02-.935-3.595-2.4-4.707zm5.502 5.214c-.552 3.306-2.774 4.977-4.56 6.32-1.175.884-2.19 1.647-2.759 2.737-1.033 1.978.374 3.333.666 3.585.004.002.006.006.01.01.06.05.113.106.164.164.045.051.084.104.12.16.01.014.02.027.029.042.347.553.32 1.281-.125 1.811-.31.37-.757.56-1.209.56-.14 0-.278-.025-.415-.061-.03-.008-.059-.012-.088-.022l-.016-.005-.017-.006c-.28-.095-2.348-.824-4.318-2.258-2.994-2.178-4.315-4.895-3.82-7.855.55-3.306 2.774-4.978 4.56-6.321 1.175-.883 2.19-1.646 2.759-2.737 1.032-1.977-.374-3.332-.666-3.584l-.01-.01c-.06-.05-.114-.106-.164-.165-.045-.05-.084-.104-.121-.159-.01-.014-.02-.028-.028-.042-.347-.553-.32-1.282.124-1.812.175-.207.395-.351.633-.443l.033-.014c.066-.023.132-.043.2-.058.044-.01.088-.018.133-.024.037-.005.073-.01.11-.013.072-.005.145-.004.219.002.021.001.042.001.064.004.081.01.163.026.245.049.017.004.034.008.052.014l.024.007c.091.03 2.277.76 4.351 2.269 2.993 2.178 4.314 4.895 3.82 7.855zm5.64 11.541c0-.851.696-1.542 1.556-1.542.86 0 1.557.69 1.557 1.542 0 .852-.697 1.543-1.557 1.543s-1.557-.69-1.557-1.543z" transform="translate(-40 -34) translate(40 34)"/>
                <path fill="#FFFFFE" d="M53.346 33.198c0-.851-.697-1.542-1.557-1.542h-6.342l7.733-8.906.009-.012c.02-.023.038-.048.057-.073.013-.017.026-.032.037-.05.017-.023.031-.048.046-.072.012-.02.025-.038.035-.057.013-.022.023-.046.034-.069.011-.022.023-.044.033-.067.009-.02.016-.043.024-.064l.029-.077.016-.06.023-.087.009-.057c.005-.031.011-.062.014-.093l.004-.056c.003-.033.005-.065.005-.098l.001-.014c0-.016-.002-.031-.003-.047 0-.03-.001-.06-.004-.09-.002-.024-.006-.047-.009-.071l-.012-.077c-.004-.025-.01-.05-.017-.076l-.018-.07c-.007-.025-.016-.049-.024-.073l-.026-.07-.03-.067c-.01-.024-.022-.047-.034-.07-.01-.02-.022-.04-.034-.06-.013-.024-.028-.048-.043-.071-.012-.019-.025-.037-.039-.055-.016-.022-.032-.044-.05-.066-.015-.019-.03-.037-.047-.055l-.052-.057c-.02-.02-.04-.039-.062-.058l-.038-.036-.012-.01c-.023-.019-.048-.037-.073-.055-.017-.012-.033-.026-.05-.037-.024-.017-.05-.031-.075-.046-.019-.012-.037-.024-.056-.034-.024-.013-.048-.024-.073-.036-.021-.01-.042-.021-.064-.03-.023-.01-.047-.018-.07-.026-.024-.01-.048-.02-.073-.027-.022-.007-.044-.012-.067-.018-.027-.007-.053-.015-.08-.02-.02-.005-.042-.007-.063-.01l-.09-.014-.059-.004-.096-.005H42.35c-.86 0-1.557.69-1.557 1.541 0 .852.697 1.543 1.557 1.543h6.257l-7.733 8.906-.009.012c-.02.023-.039.048-.058.073-.012.016-.025.032-.036.049-.017.024-.032.049-.047.073-.011.02-.024.038-.034.057-.013.022-.024.046-.035.07-.01.022-.023.043-.032.066-.01.02-.017.043-.025.065-.01.025-.02.05-.028.076l-.016.06c-.008.03-.017.058-.023.086l-.01.058-.014.093-.004.056-.005.097v.014l.002.048c.001.03.002.06.005.09.002.024.005.047.009.071l.011.076.017.077.019.07c.007.024.015.05.024.074l.025.068.03.068.034.07.035.06c.013.024.027.047.042.07.013.02.026.038.04.056l.049.065.049.057.05.055.064.06.037.034.012.01.055.043.062.046.055.035c.023.014.046.029.07.042l.055.029c.025.012.05.025.076.036l.056.023.081.03.056.017.088.022.054.012c.034.006.068.011.103.015l.042.006c.05.005.1.007.15.007h9.734c.86 0 1.557-.69 1.557-1.542M29.434 33.176c0-.86-.704-1.558-1.573-1.558h-2.504c2.462-1.106 4.687-2.73 6.506-4.796.57-.649.503-1.634-.152-2.2-.655-.566-1.65-.498-2.222.15-3.033 3.446-7.418 5.476-12.03 5.476-6.167 0-11.842-3.63-14.459-9.164-.369-.78-1.306-1.116-2.093-.751-.787.365-1.127 1.293-.758 2.073 1.961 4.149 5.36 7.378 9.44 9.212H6.514c-.869 0-1.573.698-1.573 1.558 0 .86.704 1.557 1.573 1.557H27.86c.869 0 1.573-.697 1.573-1.557M57.61 27.432c0-2.406 1.976-4.364 4.406-4.364 2.43 0 4.406 1.958 4.406 4.364 0 2.406-1.977 4.364-4.406 4.364-2.43 0-4.407-1.958-4.407-4.364zm11.926 0c0-4.107-3.373-7.448-7.52-7.448-4.147 0-7.52 3.341-7.52 7.448s3.373 7.448 7.52 7.448c4.147 0 7.52-3.341 7.52-7.448zM89.924 33.159V21.705c0-.851-.697-1.542-1.557-1.542s-1.557.69-1.557 1.542V33.16c0 .852.697 1.542 1.557 1.542s1.557-.69 1.557-1.542M84.743 30.271c0-2.458-2.02-4.459-4.503-4.459h-4.446-.001c-.73 0-1.323-.588-1.323-1.31 0-.723.594-1.312 1.324-1.312h5.824c.854 0 1.545-.684 1.545-1.53 0-.844-.691-1.53-1.545-1.53h-5.824c-2.433 0-4.413 1.961-4.413 4.371s1.98 4.37 4.413 4.37h4.446c.78 0 1.413.628 1.413 1.4 0 .772-.634 1.4-1.413 1.4h-6.666c-.853 0-1.545.685-1.545 1.53 0 .844.692 1.53 1.545 1.53h6.666c2.483 0 4.503-2.001 4.503-4.46" transform="translate(-40 -34) translate(40 34)"/>
            </g>
        </g>
    </g>
</svg>
