<svg xmlns="http://www.w3.org/2000/svg" width="24" height="24" viewBox="0 0 24 24">
    <defs>
        <filter id="fqc40b9m1a">
            <feColorMatrix in="SourceGraphic" values="0 0 0 0 1.000000 0 0 0 0 1.000000 0 0 0 0 1.000000 0 0 0 1.000000 0"/>
        </filter>
    </defs>
    <g fill="none" fill-rule="evenodd">
        <g>
            <g>
                <g>
                    <g>
                        <path d="M0 0H24V24H0z" transform="translate(-16 -130) translate(0 116) translate(0 8) translate(16 6)"/>
                        <g filter="url(#fqc40b9m1a)" transform="translate(-16 -130) translate(0 116) translate(0 8) translate(16 6)">
                            <g>
                                <path fill="#FFF" fill-rule="nonzero" d="M15.833 20H3.583c-.499 0-.903-.445-.903-.992 0-.548.404-.992.903-.992h1.735c-2.28-1.148-4.128-3.127-5.231-5.6-.21-.49-.025-1.074.416-1.313.441-.24.976-.047 1.202.434 1.314 2.925 3.842 4.962 6.775 5.46 2.933.5 5.903-.604 7.96-2.956.222-.26.554-.369.87-.285.316.084.566.349.655.692.09.343.004.713-.224.968-.948 1.088-2.075 1.97-3.32 2.6h1.414c.498 0 .902.445.902.992 0 .548-.404.992-.902.992h-.002zM19 11c-.404 0-.769-.243-.924-.617-.155-.374-.07-.804.217-1.09.286-.286.716-.372 1.09-.217.374.155.617.52.617.925 0 .551-.448.998-1 .999zM10.958 10.995h-.032c-.062 0-.123-.013-.178-.04-.438-.203-.8-.378-1.135-.573-.354-.208-.69-.443-1.005-.704-.326-.253-.615-.55-.857-.879-.25-.338-.433-.719-.537-1.122-.144-.431-.216-.882-.214-1.335-.005-.375.06-.747.192-1.098.121-.312.294-.603.513-.86.2-.22.414-.427.64-.621.006-.005.011-.01.017-.013.184-.153.4-.318.671-.52l.012-.01c.199-.137.39-.286.57-.446.144-.124.265-.271.358-.435l.007-.012c.075-.134.113-.284.109-.436 0-.333-.144-.789-.417-1.316-.064-.123-.057-.27.018-.387.075-.118.208-.189.351-.188h.016c.062 0 .123.013.178.04.438.202.8.378 1.134.573.354.208.69.444 1.006.704.327.254.615.551.857.882l.009.012c.23.34.41.71.54 1.096.148.436.222.891.219 1.35.005.374-.06.746-.192 1.098-.121.312-.295.602-.514.86-.2.219-.414.426-.64.62l-.016.014c-.184.152-.4.318-.671.52l-.012.008c-.2.138-.39.288-.57.448-.145.124-.266.271-.358.435l-.007.012c-.075.133-.113.283-.109.435 0 .367.14.807.413 1.31.067.123.063.271-.011.39-.075.12-.208.193-.352.193l-.003-.005zM8.913 7.986c.166.223.359.424.575.602.05-.215.13-.422.24-.615.175-.297.396-.566.655-.797.195-.172.435-.354.667-.53.08-.066.173-.138.269-.211.112-.089.228-.18.343-.273.179-.144.344-.303.493-.476.11-.136.198-.288.257-.451.071-.197.108-.405.108-.614-.001-.317-.051-.632-.148-.934-.08-.259-.2-.504-.355-.729-.165-.222-.358-.424-.574-.601-.05.215-.13.422-.241.614-.174.297-.395.566-.655.798-.194.171-.434.353-.665.53-.081.065-.174.137-.269.21-.11.087-.225.175-.339.268-.181.162-.35.324-.5.484-.11.135-.196.286-.255.448-.065.203-.102.413-.107.625.002.313.051.624.147.924.08.258.2.503.354.728z" transform="translate(2 2)"/>
                            </g>
                        </g>
                    </g>
                </g>
            </g>
        </g>
    </g>
</svg>
